<svg xmlns="http://www.w3.org/2000/svg" xmlns:xlink="http://www.w3.org/1999/xlink" width="944" zoomAndPan="magnify" viewBox="0 0 708 566.999966" height="755" preserveAspectRatio="xMidYMid meet" version="1.0"><defs><clipPath id="id1"><path d="M 0 0 L 708 0 L 708 566.398438 L 0 566.398438 Z M 0 0 " clip-rule="nonzero"/></clipPath><clipPath id="id2"><path d="M 337.835938 162.683594 L 376.628906 162.683594 L 376.628906 201.640625 L 337.835938 201.640625 Z M 337.835938 162.683594 " clip-rule="nonzero"/></clipPath><clipPath id="id3"><path d="M 279.113281 113.101562 L 337 113.101562 L 337 203 L 279.113281 203 Z M 279.113281 113.101562 " clip-rule="nonzero"/></clipPath><clipPath id="id4"><path d="M 219.695312 121.144531 L 283.203125 121.144531 L 283.203125 205.804688 L 219.695312 205.804688 Z M 219.695312 121.144531 " clip-rule="nonzero"/></clipPath></defs><rect x="-70.8" width="849.6" fill="#ffffff" y="-56.699997" height="680.399959" fill-opacity="1"/><path fill="#ffffff" d="M 0 0 L 708 0 L 708 566.398438 L 0 566.398438 Z M 0 0 " fill-opacity="1" fill-rule="nonzero"/><g clip-path="url(#id1)"><path fill="#ffffff" d="M 0 0 L 708 0 L 708 566.398438 L 0 566.398438 Z M 0 0 " fill-opacity="1" fill-rule="nonzero"/></g><g clip-path="url(#id2)"><path fill="#256b4e" d="M 346.546875 162.683594 C 348.332031 162.683594 349.121094 163.230469 349.980469 163.867188 C 351.367188 163.730469 352.949219 164.285156 353.75 165.753906 C 354.378906 166.902344 355.519531 168.988281 355.664062 170.496094 C 355.683594 170.589844 355.691406 170.6875 355.691406 170.785156 C 355.691406 170.789062 355.691406 170.792969 355.691406 170.796875 C 355.691406 171.015625 355.652344 171.222656 355.570312 171.417969 C 355.484375 171.617188 355.367188 171.792969 355.214844 171.945312 C 355.0625 172.097656 354.890625 172.214844 354.691406 172.296875 C 354.492188 172.378906 354.285156 172.421875 354.070312 172.421875 C 356.378906 180.058594 370.300781 178.945312 370.300781 193.523438 L 370.300781 198.179688 C 371.1875 197.941406 371.859375 197.523438 372.355469 196.972656 C 373.121094 196.128906 373.546875 194.914062 373.546875 193.523438 C 373.546875 193.304688 373.585938 193.09375 373.667969 192.890625 C 373.75 192.6875 373.871094 192.507812 374.023438 192.351562 C 374.179688 192.199219 374.359375 192.078125 374.5625 191.996094 C 374.765625 191.914062 374.976562 191.875 375.195312 191.878906 C 375.410156 191.882812 375.617188 191.925781 375.816406 192.011719 C 376.011719 192.097656 376.1875 192.21875 376.335938 192.371094 C 376.484375 192.527344 376.601562 192.703125 376.679688 192.902344 C 376.757812 193.101562 376.796875 193.308594 376.792969 193.523438 C 376.792969 195.582031 376.15625 197.613281 374.765625 199.152344 C 373.375 200.691406 371.238281 201.640625 368.679688 201.640625 L 352.445312 201.640625 C 352.445312 199.851562 353.902344 198.394531 355.691406 198.394531 C 356.589844 198.394531 357.316406 197.667969 357.316406 196.769531 C 357.316406 195.875 356.589844 195.148438 355.691406 195.148438 C 352.445312 195.148438 352.445312 188.65625 352.445312 188.65625 C 352.445312 188.65625 350.820312 190.277344 350.820312 193.523438 C 350.820312 194.628906 351.207031 195.636719 351.828125 196.453125 C 350.242188 197.640625 349.199219 199.511719 349.199219 201.640625 L 344.328125 201.640625 C 343.429688 201.640625 342.707031 200.914062 342.707031 200.019531 C 342.707031 199.121094 343.429688 198.394531 344.328125 198.394531 L 344.980469 198.394531 L 347.414062 186.214844 C 346.515625 185.101562 345.953125 183.707031 345.953125 182.160156 C 345.953125 174.007812 345.511719 172.421875 343.140625 172.421875 L 341.894531 172.421875 C 341.453125 172.421875 341.042969 172.308594 340.664062 172.085938 C 340.285156 171.863281 339.988281 171.558594 339.773438 171.171875 L 339.765625 171.167969 L 339.726562 171.089844 C 339.722656 171.085938 339.722656 171.085938 339.722656 171.082031 L 338.050781 167.835938 C 337.941406 167.675781 337.871094 167.496094 337.847656 167.300781 C 337.820312 167.105469 337.84375 166.914062 337.910156 166.730469 C 337.980469 166.542969 338.085938 166.386719 338.230469 166.25 C 338.375 166.117188 338.542969 166.023438 338.734375 165.972656 L 338.761719 165.964844 C 338.765625 165.964844 338.765625 165.964844 338.769531 165.964844 L 342.707031 164.769531 C 342.707031 164.769531 343.5 162.683594 346.546875 162.683594 Z M 346.546875 162.683594 " fill-opacity="1" fill-rule="nonzero"/></g><g clip-path="url(#id3)"><path fill="#256b4e" d="M 336.171875 174.878906 C 336.039062 174.664062 335.777344 174.375 335.453125 174.5625 C 335.121094 174.75 334.714844 174.867188 334.476562 175.171875 C 333.75 176.089844 332.769531 175.105469 332.175781 175.019531 C 332.03125 174.996094 331.910156 174.867188 331.820312 174.707031 C 331.371094 173.917969 330.324219 173.316406 329.867188 173.105469 C 329.589844 172.972656 329.476562 172.617188 329.214844 172.484375 C 328.777344 172.269531 328.453125 171.890625 327.984375 171.71875 C 327.144531 171.414062 327.910156 171.621094 326.75 171.46875 C 325.964844 171.363281 326.894531 171.058594 326.996094 170.257812 C 327.058594 169.78125 327.203125 169.351562 327.585938 169.035156 C 327.640625 168.992188 327.65625 168.933594 327.65625 168.867188 C 327.660156 168.570312 327.710938 168.269531 327.636719 167.972656 C 327.652344 167.9375 327.664062 167.90625 327.675781 167.871094 C 328.382812 167.363281 327.589844 165.667969 327.59375 164.917969 C 327.601562 163.90625 327.007812 163.253906 326.316406 162.683594 C 324.472656 161.167969 322.910156 161.921875 322.125 162.144531 C 321.585938 162.296875 321.324219 162.84375 320.972656 163.230469 C 320.601562 163.640625 320.5 164.25 320.519531 164.773438 C 320.550781 165.46875 320.21875 166.15625 320.488281 166.851562 C 320.507812 166.90625 320.429688 166.996094 320.4375 167.0625 C 320.480469 167.363281 320.25 167.671875 320.488281 167.960938 C 320.910156 168.476562 320.707031 168.761719 321.191406 169.714844 C 321.230469 169.792969 321.390625 169.820312 321.316406 169.945312 C 321.246094 170.0625 321.109375 169.992188 321.003906 170 C 320.867188 170.015625 320.804688 169.898438 320.730469 169.820312 C 320.296875 169.351562 319.683594 170.136719 318.847656 169.277344 C 318.617188 169.039062 318.171875 169.296875 318.097656 168.734375 C 318.027344 168.152344 317.886719 167.578125 317.6875 167.023438 C 317.667969 166.96875 317.664062 166.867188 317.695312 166.839844 C 317.90625 166.660156 317.667969 167.066406 318.613281 162.960938 C 318.722656 162.488281 318.386719 162.828125 318.550781 162.492188 C 318.769531 162.035156 318.925781 161.488281 318.644531 161.082031 C 318.242188 160.492188 317.921875 159.851562 317.484375 159.285156 C 317.171875 158.875 316.894531 158.46875 316.898438 157.894531 C 316.898438 157.285156 316.539062 156.71875 316.597656 156.082031 C 316.605469 155.960938 316.5 155.824219 316.429688 155.703125 C 315.710938 154.515625 315.855469 153.066406 315.847656 152.324219 C 315.839844 151.824219 315.28125 151.136719 315.398438 149.988281 C 315.414062 149.839844 315.179688 149.574219 315.167969 149.320312 C 315.152344 148.941406 314.636719 146.632812 314.621094 146.558594 C 314.5 145.851562 314.652344 145.089844 314.199219 144.453125 C 314.167969 144.40625 314.167969 144.328125 314.171875 144.265625 C 314.207031 143.667969 313.851562 143.710938 313.875 143.359375 C 313.917969 142.601562 313.082031 142.546875 313.375 141.90625 C 313.71875 141.152344 312.902344 141.054688 312.808594 140.171875 C 312.730469 139.421875 312.621094 138.683594 312.292969 137.992188 C 312.140625 137.671875 312.363281 137.570312 312.339844 136.902344 C 312.285156 135.335938 312.488281 134.445312 311.808594 132.351562 C 309.910156 126.503906 310.011719 128.675781 309.035156 126.792969 C 309.023438 126.777344 308.992188 126.769531 308.96875 126.761719 C 308.417969 126.492188 307.09375 125.058594 305.925781 124.605469 C 305.425781 124.410156 305.925781 124.054688 306.011719 123.765625 C 306.144531 123.316406 306.257812 122.859375 306.714844 122.601562 C 306.796875 122.554688 306.859375 122.457031 306.855469 122.34375 C 306.8125 121.628906 307.464844 120.042969 307.464844 119.914062 C 307.46875 119.152344 307.570312 118.394531 307.550781 117.632812 C 307.53125 116.996094 307.210938 116.421875 307.214844 115.785156 C 307.21875 115.601562 305.953125 114.644531 305.785156 114.496094 C 305.144531 113.917969 304.320312 113.710938 303.5 113.511719 C 302.070312 113.167969 301.933594 113.953125 301.421875 113.300781 C 301.339844 113.199219 301.148438 113.113281 301.078125 113.296875 C 300.773438 114.121094 300.042969 114.148438 299.925781 114.292969 C 299.15625 115.242188 299.191406 114.648438 298.496094 116.519531 C 297.917969 118.082031 298.59375 119.179688 297.773438 119.980469 C 297.566406 120.183594 297.585938 120.34375 297.789062 120.507812 C 298.203125 120.839844 297.304688 121.839844 296.203125 121.910156 C 295.492188 121.953125 294.761719 121.851562 294.097656 122.179688 C 293.886719 122.28125 293.683594 122.308594 293.460938 122.328125 C 292.710938 122.402344 293.097656 122.308594 291.046875 122.917969 C 288.949219 123.542969 289.542969 123.566406 288.691406 123.953125 C 287.753906 124.382812 286.921875 124.914062 286.265625 125.75 C 285.722656 126.445312 285.175781 127.121094 284.820312 127.9375 C 284.753906 128.097656 284.558594 128.234375 284.550781 128.386719 C 284.507812 129.285156 282.75 132.03125 282.09375 134.144531 C 281.804688 135.070312 281.71875 134.410156 281.632812 135.199219 C 281.410156 137.257812 279.292969 140.558594 279.582031 143.238281 C 279.601562 143.4375 279.660156 143.722656 279.558594 143.828125 C 279.113281 144.285156 279.617188 144.503906 279.660156 144.972656 C 279.84375 146.972656 280.21875 147.574219 280.179688 149.160156 C 280.15625 150.125 280.847656 149.914062 280.621094 150.851562 C 280.574219 151.050781 280.609375 151.1875 280.695312 151.34375 C 281.171875 152.222656 280.453125 152.046875 280.976562 153.882812 C 281.230469 154.777344 281.941406 154.375 281.738281 154.8125 C 281.527344 155.261719 281.742188 155.40625 281.53125 156.40625 C 281.285156 157.558594 281.585938 157.730469 282.113281 158.78125 C 282.230469 159.019531 282.300781 159.347656 282.582031 159.4375 C 283.058594 159.597656 283.546875 159.820312 284.066406 159.59375 C 284.238281 159.519531 284.375 159.628906 284.421875 159.714844 C 284.648438 160.144531 285.03125 160.046875 285.390625 160.050781 C 285.488281 160.054688 285.578125 160.011719 285.578125 159.910156 C 285.585938 159.75 285.179688 159.925781 285.144531 159.542969 C 285.128906 159.390625 285.59375 159.339844 285.671875 159.738281 C 285.6875 159.804688 285.664062 159.921875 285.785156 159.867188 C 285.855469 159.835938 285.992188 159.847656 285.972656 159.71875 C 285.863281 159.058594 286.542969 159.140625 286.324219 158.609375 C 285.808594 157.335938 286.007812 156.320312 285.808594 155.316406 C 285.761719 155.089844 285.507812 155 285.53125 154.757812 C 285.59375 154.074219 284.984375 154.101562 284.996094 153.644531 C 285.007812 152.992188 284.371094 151.859375 284.671875 151.070312 C 284.945312 150.34375 283.933594 150.667969 284.207031 149.992188 C 284.90625 148.25 284.894531 148.101562 284.746094 147.757812 C 284.097656 146.265625 284.707031 145.640625 284.730469 144.660156 C 284.742188 144.1875 285.058594 143.742188 284.777344 143.230469 C 284.492188 142.707031 285.378906 142.648438 285.363281 142.191406 C 285.34375 141.683594 285.457031 141.171875 285.292969 140.675781 C 285.171875 140.3125 285.214844 140.019531 285.542969 139.78125 C 285.816406 139.582031 286.300781 138.210938 286.988281 137.039062 C 287.066406 136.910156 287.179688 136.800781 287.25 136.671875 C 287.320312 136.539062 287.394531 136.648438 287.464844 136.632812 C 287.726562 136.570312 287.449219 137.261719 287.652344 138.558594 C 287.679688 138.722656 287.542969 138.867188 287.582031 139.042969 C 287.734375 139.726562 287.742188 140.425781 287.730469 141.125 C 287.679688 144.402344 288.648438 144.878906 288.210938 145.992188 C 287.894531 146.792969 287.800781 147.621094 288.160156 148.453125 C 288.207031 148.558594 288.222656 148.71875 288.179688 148.824219 C 287.964844 149.359375 287.96875 151.125 288.171875 151.636719 C 288.488281 152.441406 288.046875 152.59375 288.203125 153.433594 C 288.328125 154.09375 288.308594 154.765625 288.242188 155.410156 C 287.769531 160.066406 288.625 166.378906 288.492188 168.101562 C 288.46875 168.402344 288.75 168.523438 288.621094 169.21875 C 288.546875 169.617188 289.128906 173.761719 289.117188 174.425781 C 289.117188 174.613281 289.191406 174.851562 289.316406 174.980469 C 289.617188 175.289062 289.570312 175.675781 289.632812 176.035156 C 289.863281 177.332031 290.078125 177.347656 290.78125 178.167969 C 291.070312 178.503906 290.925781 179.09375 290.550781 179.097656 C 290.246094 179.101562 290.230469 179.234375 290.242188 179.464844 C 290.316406 180.867188 290.144531 181.085938 291.046875 181.976562 C 291.628906 182.546875 290.667969 182.570312 290.949219 183.253906 C 291.230469 183.945312 291.308594 184.65625 291.292969 185.390625 C 291.285156 185.828125 291.769531 187.46875 291.707031 188.140625 C 291.699219 188.210938 291.765625 188.320312 291.828125 188.359375 C 292.070312 188.515625 292.078125 188.75 292.074219 188.996094 C 292.066406 189.835938 292.226562 189.273438 292.808594 190.917969 C 292.863281 191.078125 292.847656 191.257812 292.9375 191.421875 C 293.152344 191.8125 293.335938 192.207031 293.230469 192.691406 C 293.003906 193.746094 293.355469 193.546875 293.078125 194.507812 C 293.058594 194.578125 293.0625 194.664062 293.082031 194.734375 C 293.203125 195.203125 293.15625 195.660156 293.019531 196.113281 C 292.980469 196.246094 292.886719 196.40625 292.929688 196.507812 C 293.15625 197.070312 292.953125 197.640625 292.996094 198.203125 C 293.097656 199.410156 293.664062 199.949219 293.515625 199.929688 C 293.457031 199.917969 293.40625 199.972656 293.40625 200.035156 L 293.40625 201.480469 C 293.40625 202.292969 294.0625 202.953125 294.875 202.953125 L 299.828125 202.953125 C 300.636719 202.953125 301.292969 202.292969 301.292969 201.480469 C 301.292969 201.480469 301.597656 201.097656 301.597656 197.453125 C 301.597656 197.363281 301.585938 197.277344 301.550781 197.191406 C 301.199219 196.359375 301.097656 195.453125 300.839844 194.59375 C 300.511719 193.484375 300.414062 194.339844 298.734375 187.746094 C 298.65625 187.445312 298.675781 187.109375 298.710938 186.796875 C 298.769531 186.253906 298.609375 185.742188 298.507812 185.234375 C 297.476562 180.058594 297.789062 178.582031 297.789062 178.289062 C 297.789062 177.929688 297.636719 177.148438 297.636719 177.144531 C 297.738281 176.253906 297.417969 175.386719 297.472656 174.492188 C 297.59375 172.523438 297.28125 169.480469 297.511719 168.417969 C 297.699219 167.550781 297.515625 166.667969 297.722656 165.824219 C 298.214844 163.800781 298.238281 163.769531 298.152344 163.59375 C 297.984375 163.253906 298.210938 162.984375 298.246094 162.683594 C 298.300781 162.269531 298.996094 163.039062 299.082031 164.453125 C 299.097656 164.714844 299.457031 167.21875 299.804688 168.585938 C 300.957031 173.148438 301.230469 170.871094 300.757812 174.605469 C 300.597656 175.871094 301.734375 176.5625 301.753906 177.824219 C 301.785156 179.734375 303.082031 179.597656 302.226562 180.667969 C 302.195312 180.707031 302.160156 180.734375 302.175781 180.796875 C 302.269531 181.195312 302.132812 181.574219 302.082031 181.960938 C 302.074219 182.007812 302.082031 182.058594 302.101562 182.101562 C 302.429688 182.910156 301.910156 185.097656 302.335938 186.195312 C 302.441406 186.46875 302.394531 186.792969 302.417969 187.09375 C 302.453125 187.609375 302.585938 188.121094 302.519531 188.648438 C 302.417969 189.738281 302.40625 190.828125 302.234375 191.917969 C 301.878906 194.167969 302.125 194.714844 302.035156 196.351562 C 301.988281 197.199219 302.894531 197.316406 302.90625 197.792969 C 302.914062 198.183594 303.53125 198.03125 303.261719 198.761719 C 303.035156 199.378906 303.566406 199.996094 303.347656 200.183594 C 303.324219 200.203125 303.3125 200.230469 303.3125 200.261719 L 303.3125 201.480469 C 303.3125 202.292969 303.96875 202.953125 304.777344 202.953125 L 309.578125 202.953125 C 310.390625 202.953125 311.046875 202.292969 311.046875 201.480469 L 311.046875 200.28125 C 311.046875 200.261719 311.039062 200.242188 311.03125 200.226562 C 311.007812 200.1875 310.984375 200.140625 310.972656 200.089844 C 310.410156 198.183594 309.128906 198.542969 309.726562 196.605469 C 310.054688 195.550781 310.210938 194.769531 309.457031 194.054688 C 309.15625 193.769531 308.445312 192.601562 308.96875 192.667969 C 309.433594 192.726562 309.433594 192.363281 309.433594 192.109375 C 309.433594 191.464844 309.511719 190.816406 309.382812 190.171875 C 309.097656 188.761719 309.730469 184.121094 309.304688 182.539062 C 309.226562 182.246094 309.261719 181.933594 309.242188 181.632812 C 309.15625 180.425781 308.746094 179.25 308.914062 178.023438 C 309 177.414062 308.753906 176.890625 308.496094 176.378906 C 308.195312 175.777344 308.1875 175.136719 308.15625 174.496094 C 308.132812 174.085938 309.496094 173.304688 309.445312 172.640625 C 309.210938 169.425781 308.515625 165.0625 308.289062 164.144531 C 308.035156 163.128906 308.144531 162.101562 308.058594 161.085938 C 307.914062 159.429688 307.742188 158.5 307.769531 157.890625 C 307.808594 157.070312 307.238281 157.226562 307.394531 156.84375 C 307.589844 156.363281 307.464844 155.863281 307.355469 155.425781 C 307.238281 154.96875 307.289062 154.519531 307.269531 154.089844 C 307.183594 151.992188 306.734375 152.898438 306.761719 148.1875 C 306.769531 147.375 306.445312 146.511719 306.058594 145.875 C 305.40625 144.804688 306.171875 144.394531 305.648438 141.925781 C 305.433594 140.90625 306.269531 140.0625 306.246094 138.273438 C 306.246094 138.191406 306.203125 138.050781 306.300781 138.042969 C 306.460938 138.023438 306.402344 138.191406 306.402344 138.265625 C 306.414062 138.640625 306.546875 138.976562 306.699219 139.3125 C 306.878906 139.714844 306.660156 141.132812 307.765625 142.769531 C 308.324219 143.597656 307.34375 143.445312 307.742188 144.132812 C 307.9375 144.464844 307.964844 144.871094 308.148438 145.21875 C 308.445312 145.769531 308.570312 146.386719 308.789062 146.96875 C 309.085938 147.757812 308.617188 147.660156 310.160156 150.769531 C 311.015625 152.496094 310.800781 152.453125 311.082031 152.785156 C 311.433594 153.195312 311.621094 153.695312 311.792969 154.191406 C 312.839844 157.230469 312.890625 156.859375 313.253906 158.433594 C 313.402344 159.074219 313.761719 158.882812 314.421875 158.910156 C 314.472656 158.910156 314.558594 158.863281 314.566406 158.964844 C 314.570312 159.023438 314.519531 159.054688 314.464844 159.054688 C 313.796875 159.046875 314.027344 160.28125 314.125 160.957031 C 314.261719 161.941406 314.785156 161.964844 314.925781 163.613281 C 314.945312 163.847656 314.964844 164.078125 314.753906 164.28125 C 314.65625 164.371094 314.601562 164.597656 314.683594 164.773438 C 314.769531 164.945312 314.941406 164.902344 315.082031 164.894531 C 316.515625 164.820312 314.113281 168.609375 317.035156 171.257812 C 317.492188 171.671875 316.773438 172.007812 316.925781 174.304688 C 316.972656 174.972656 318.078125 174.269531 318.933594 175.570312 C 319.445312 176.351562 318.800781 181.121094 318.648438 182.828125 C 318.507812 184.363281 318.695312 184.667969 318.496094 185.289062 C 318.367188 185.699219 318.65625 186.257812 319.21875 186.300781 C 319.320312 186.308594 319.410156 186.355469 319.503906 186.375 C 319.777344 186.433594 319.773438 186.597656 319.613281 186.742188 C 319.28125 187.039062 319.484375 187.410156 319.4375 187.746094 C 319.414062 187.910156 320.035156 187.730469 319.625 188.3125 C 319.414062 188.613281 319.515625 192.535156 319.519531 192.613281 C 319.527344 192.976562 319.605469 193.710938 319.917969 193.898438 C 320.1875 194.058594 320.234375 194.496094 320 194.714844 C 319.765625 194.933594 319.648438 195.128906 319.855469 195.433594 C 319.902344 195.5 319.878906 198.148438 319.882812 198.371094 C 319.898438 198.917969 319.917969 198.933594 320.382812 198.933594 C 320.863281 198.957031 321.230469 198.75 321.636719 198.730469 C 321.945312 198.714844 321.84375 198.820312 321.867188 198.96875 C 321.878906 199.019531 321.898438 199.074219 321.953125 199.132812 C 322.015625 199.242188 322.015625 199.394531 321.941406 199.46875 C 321.789062 199.546875 321.558594 199.394531 321.484375 199.394531 C 321.027344 199.625 320.875 200.234375 320.941406 200.679688 C 320.9375 200.75 320.9375 200.820312 320.933594 200.894531 C 320.929688 201.035156 320.929688 201.179688 320.925781 201.316406 C 320.929688 201.394531 320.9375 201.46875 320.949219 201.542969 C 321 201.84375 321.113281 202.117188 321.324219 202.351562 C 321.367188 202.40625 321.414062 202.460938 321.464844 202.511719 C 321.519531 202.566406 321.578125 202.617188 321.640625 202.664062 C 322.015625 202.914062 322.398438 202.992188 322.78125 202.953125 L 324.179688 202.953125 C 324.425781 202.953125 324.660156 202.890625 324.867188 202.785156 C 324.933594 202.75 325 202.707031 325.0625 202.664062 C 325.542969 202.355469 325.839844 201.890625 325.847656 201.367188 C 325.847656 201.292969 325.84375 201.214844 325.832031 201.140625 C 325.597656 200.386719 325.675781 199.699219 324.992188 199.25 C 324.976562 199.15625 325.007812 199.089844 325.058594 199.039062 C 325.109375 198.988281 325.179688 198.953125 325.246094 198.917969 C 326.15625 198.417969 325.585938 197.175781 325.285156 196.914062 C 325.21875 196.859375 325.246094 196.832031 325.3125 196.777344 C 325.683594 196.476562 325.117188 195.726562 325.625 194.480469 C 325.65625 194.40625 325.757812 194.398438 325.804688 194.464844 C 326.253906 195.117188 326.292969 195.46875 326.652344 195.90625 C 326.867188 196.167969 326.761719 196.53125 326.796875 196.839844 C 326.910156 197.75 327.441406 198.175781 326.832031 198.332031 C 326.476562 198.421875 326.617188 198.769531 326.554688 199.007812 C 326.542969 199.0625 326.558594 199.144531 326.59375 199.191406 C 326.8125 199.511719 326.703125 199.722656 326.535156 199.914062 C 326.480469 199.980469 326.527344 200.082031 326.613281 200.082031 L 326.953125 200.082031 C 326.992188 200.082031 327.027344 200.0625 327.046875 200.023438 C 327.058594 199.996094 327.078125 199.964844 327.097656 199.929688 C 327.144531 199.835938 327.1875 199.902344 327.226562 199.953125 C 327.296875 200.039062 327.363281 200.074219 327.429688 200.082031 L 327.464844 200.082031 L 327.464844 200.085938 C 327.574219 200.082031 327.675781 200.007812 327.773438 199.960938 C 327.851562 199.925781 327.9375 199.996094 327.914062 200.078125 C 327.890625 200.175781 327.910156 200.300781 327.664062 200.308594 C 327.648438 200.308594 327.628906 200.304688 327.613281 200.292969 C 327.609375 200.292969 327.609375 200.292969 327.605469 200.292969 C 327.542969 200.261719 327.464844 200.3125 327.464844 200.386719 C 327.464844 200.453125 327.464844 200.542969 327.464844 200.652344 C 327.460938 200.71875 327.457031 200.785156 327.453125 200.851562 C 327.449219 200.917969 327.445312 200.988281 327.441406 201.054688 C 327.273438 201.917969 327.808594 202.839844 328.640625 202.917969 C 328.691406 202.929688 328.742188 202.9375 328.796875 202.945312 C 328.851562 202.949219 328.90625 202.953125 328.960938 202.953125 L 330.832031 202.953125 C 331.398438 202.953125 331.898438 202.636719 332.152344 202.164062 C 332.1875 202.097656 332.21875 202.027344 332.246094 201.953125 C 332.378906 201.460938 332.761719 200.773438 332.378906 200.390625 C 332 200.082031 331.390625 200.464844 330.933594 200.234375 C 331.160156 200.082031 331.542969 200.3125 331.726562 199.949219 C 331.769531 199.910156 331.828125 199.878906 331.871094 199.84375 C 331.910156 199.804688 331.929688 199.757812 331.898438 199.695312 C 331.746094 199.386719 331.1875 200.105469 331.15625 199.492188 C 331.144531 199.171875 331.285156 198.878906 331.316406 198.566406 C 331.324219 198.507812 331.363281 198.492188 331.417969 198.476562 C 332.046875 198.3125 331.882812 197.652344 332.1875 197.09375 C 332.539062 196.449219 331.789062 196.824219 331.78125 196.4375 C 331.773438 196.28125 331.246094 195.8125 331.300781 195.355469 C 331.355469 194.871094 331.523438 194.375 331.25 193.910156 C 331.074219 193.609375 331.011719 193.335938 331.226562 193.035156 C 331.253906 193 331.226562 192.933594 331.238281 192.882812 C 331.359375 192.347656 331.253906 191.828125 331.078125 191.332031 C 330.601562 189.980469 331.707031 189.019531 331.207031 188.148438 C 330.992188 187.773438 331.664062 187.691406 331.414062 187.199219 C 331.363281 187.097656 331.414062 187 331.425781 186.898438 C 331.484375 186.40625 332 186.015625 331.074219 184.488281 C 329.96875 182.667969 330.96875 184.355469 330.074219 180.871094 C 329.9375 180.34375 329.699219 178.5 330.492188 178.824219 C 330.925781 178.996094 331.382812 179.089844 331.78125 179.363281 C 332.878906 180.121094 333.019531 178.316406 334.304688 178.273438 C 334.421875 178.269531 335.257812 177.585938 335.335938 177.523438 C 336.242188 176.769531 335.609375 177.464844 336.585938 176.820312 C 337.550781 176.179688 336.445312 175.328125 336.171875 174.878906 Z M 327.621094 167.277344 C 327.660156 167.199219 327.789062 167.203125 327.617188 167.902344 C 327.566406 167.695312 327.53125 167.472656 327.621094 167.277344 Z M 297.964844 120.125 C 297.972656 120.125 297.980469 120.121094 297.984375 120.125 C 298.03125 120.164062 297.921875 120.199219 297.964844 120.125 Z M 326.011719 192.503906 C 325.996094 192.523438 326.011719 192.6875 325.890625 192.546875 C 325.695312 192.332031 325.695312 191.644531 325.914062 191.460938 C 326.042969 191.355469 326.050781 191.488281 326.109375 191.757812 C 326.113281 191.777344 326.109375 191.800781 326.101562 191.820312 C 326.011719 192.042969 326.164062 192.296875 326.011719 192.503906 Z M 326.011719 192.503906 " fill-opacity="1" fill-rule="nonzero"/></g><path fill="#256b4e" d="M 317.851562 169.503906 L 317.871094 169.515625 L 317.871094 169.492188 Z M 317.851562 169.503906 " fill-opacity="1" fill-rule="nonzero"/><g clip-path="url(#id4)"><path fill="#256b4e" d="M 219.625 195.078125 C 219.710938 194.953125 219.863281 194.890625 220.011719 194.878906 C 220.34375 194.855469 220.671875 194.949219 221.003906 194.910156 C 221.769531 194.824219 222.539062 194.726562 223.289062 194.539062 C 223.890625 194.375 224.507812 194.253906 225.078125 193.996094 C 225.507812 193.800781 225.863281 193.453125 226.085938 193.039062 C 226.289062 192.667969 226.503906 192.304688 226.667969 191.914062 C 226.796875 191.621094 226.894531 191.316406 227.015625 191.019531 C 227.0625 190.890625 227.179688 190.808594 227.238281 190.6875 C 227.253906 190.375 227.210938 190.058594 227.195312 189.742188 C 227.132812 188.914062 227.164062 188.082031 227.1875 187.25 C 227.21875 186.257812 227.269531 185.261719 227.359375 184.273438 C 227.503906 182.707031 227.71875 181.148438 227.9375 179.589844 C 228.066406 178.738281 228.1875 177.882812 228.367188 177.035156 C 228.410156 176.800781 228.507812 176.582031 228.605469 176.363281 C 228.824219 175.882812 229.1875 175.484375 229.589844 175.148438 C 230.097656 174.746094 230.664062 174.425781 231.257812 174.167969 C 231.972656 173.851562 232.753906 173.777344 233.519531 173.671875 C 234.011719 173.625 234.492188 173.515625 234.976562 173.425781 C 235.4375 173.324219 235.902344 173.242188 236.339844 173.070312 C 236.738281 172.902344 236.917969 172.488281 237.183594 172.179688 C 237.753906 171.546875 238.3125 170.902344 238.898438 170.285156 C 239.164062 170.007812 239.433594 169.726562 239.75 169.503906 C 240.21875 169.148438 240.769531 168.921875 241.285156 168.636719 C 241.738281 168.382812 242.207031 168.148438 242.714844 168.027344 C 242.960938 167.957031 243.222656 167.964844 243.476562 167.964844 C 244.726562 167.976562 245.972656 168.089844 247.222656 168.039062 C 247.519531 168.023438 247.824219 168.007812 248.109375 167.914062 C 248.277344 167.859375 248.351562 167.679688 248.367188 167.519531 C 248.390625 167.195312 248.300781 166.878906 248.238281 166.566406 C 248.152344 166.136719 248.09375 165.683594 248.214844 165.253906 C 248.347656 164.707031 248.632812 164.214844 248.921875 163.738281 C 249.152344 163.367188 249.332031 162.96875 249.53125 162.582031 C 249.953125 161.734375 250.414062 160.90625 250.789062 160.039062 C 250.90625 159.796875 250.871094 159.527344 250.828125 159.273438 C 250.796875 159.078125 250.773438 158.847656 250.914062 158.6875 C 251.050781 158.515625 251.28125 158.503906 251.46875 158.421875 C 251.527344 158.402344 251.5625 158.347656 251.558594 158.289062 C 251.582031 157.871094 251.539062 157.457031 251.488281 157.042969 C 251.40625 156.433594 251.304688 155.816406 251.050781 155.253906 C 250.949219 155.019531 250.765625 154.832031 250.542969 154.710938 C 249.980469 154.410156 249.332031 154.355469 248.726562 154.203125 C 248.539062 154.152344 248.332031 154.078125 248.25 153.886719 C 248.09375 153.535156 248.101562 153.128906 248.15625 152.757812 C 248.097656 152.652344 248.109375 152.535156 248.117188 152.421875 C 248.140625 152.210938 248.15625 151.996094 248.246094 151.804688 C 248.273438 151.714844 248.332031 151.609375 248.292969 151.519531 C 248.152344 151.429688 247.980469 151.414062 247.824219 151.363281 C 247.644531 151.304688 247.4375 151.238281 247.339844 151.066406 C 247.25 150.910156 247.3125 150.730469 247.378906 150.582031 C 247.550781 150.222656 247.792969 149.898438 247.992188 149.554688 C 248.101562 149.402344 248.132812 149.207031 248.109375 149.019531 C 248.070312 148.714844 248.09375 148.410156 248.105469 148.105469 C 248.121094 147.804688 248.1875 147.507812 248.335938 147.246094 C 248.464844 146.988281 248.632812 146.75 248.753906 146.488281 C 248.859375 146.265625 248.691406 146.03125 248.753906 145.804688 C 248.789062 145.648438 248.90625 145.535156 249.023438 145.445312 C 249.28125 145.246094 249.5625 145.085938 249.835938 144.910156 C 250.042969 144.78125 250.183594 144.574219 250.402344 144.464844 C 250.644531 144.339844 250.902344 144.25 251.164062 144.175781 C 251.496094 144.082031 251.839844 144.015625 252.1875 144.046875 C 252.589844 144.09375 252.953125 144.285156 253.3125 144.453125 C 253.417969 144.496094 253.542969 144.566406 253.648438 144.492188 C 253.804688 144.386719 253.953125 144.226562 254.160156 144.238281 C 254.367188 144.261719 254.5625 144.347656 254.761719 144.414062 C 255.1875 144.570312 255.605469 144.753906 256.015625 144.945312 C 256.429688 145.148438 256.847656 145.363281 257.207031 145.652344 C 257.4375 145.839844 257.597656 146.097656 257.703125 146.371094 C 257.867188 146.808594 257.863281 147.28125 257.882812 147.742188 C 257.921875 148.386719 257.972656 149.027344 257.9375 149.671875 C 257.914062 150.152344 257.878906 150.648438 257.683594 151.09375 C 257.464844 151.59375 257.082031 151.996094 256.746094 152.417969 C 256.585938 152.609375 256.359375 152.742188 256.253906 152.976562 C 256.113281 153.296875 256.023438 153.644531 256.007812 153.996094 C 255.996094 154.246094 256.042969 154.507812 256.199219 154.710938 C 256.667969 155.355469 257.285156 155.878906 257.867188 156.417969 C 258.128906 156.644531 258.453125 156.785156 258.691406 157.039062 C 258.875 157.234375 259 157.476562 259.089844 157.722656 C 259.167969 157.949219 259.261719 158.175781 259.289062 158.414062 C 259.351562 158.757812 259.359375 159.113281 259.488281 159.4375 C 259.59375 159.367188 259.640625 159.238281 259.707031 159.132812 C 259.890625 158.804688 260.046875 158.4375 260.363281 158.214844 C 260.84375 157.882812 261.453125 157.871094 262.011719 157.890625 C 262.734375 157.964844 263.417969 158.253906 264.144531 158.289062 C 264.429688 158.3125 264.710938 158.367188 265 158.371094 C 265.148438 158.367188 265.3125 158.351562 265.433594 158.257812 C 265.492188 158.214844 265.492188 158.132812 265.511719 158.066406 C 265.578125 157.660156 265.613281 157.25 265.648438 156.839844 C 265.789062 155.117188 265.867188 153.390625 265.945312 151.667969 C 266.011719 149.933594 266.078125 148.199219 266.097656 146.464844 C 266.09375 146.136719 266.121094 145.800781 266.042969 145.480469 C 265.957031 145.058594 265.761719 144.671875 265.5625 144.296875 C 265.300781 143.738281 264.777344 143.359375 264.488281 142.820312 C 264.175781 142.234375 264.167969 141.527344 264.335938 140.898438 C 264.4375 140.542969 264.550781 140.183594 264.75 139.867188 C 264.972656 139.507812 265.285156 139.21875 265.53125 138.875 C 265.867188 138.40625 266.242188 137.96875 266.574219 137.496094 C 266.820312 137.136719 267.046875 136.761719 267.273438 136.390625 C 267.453125 136.082031 267.640625 135.769531 267.761719 135.433594 C 267.867188 135.148438 267.859375 134.839844 267.820312 134.546875 C 267.75 134.007812 267.832031 133.460938 267.773438 132.917969 C 267.753906 132.707031 267.726562 132.488281 267.613281 132.304688 C 267.523438 132.15625 267.332031 132.121094 267.171875 132.109375 C 266.808594 132.074219 266.433594 132.179688 266.078125 132.066406 C 265.777344 131.949219 265.660156 131.613281 265.601562 131.324219 C 265.515625 130.785156 265.261719 130.289062 265.152344 129.757812 C 265.117188 129.617188 265.058594 129.464844 264.921875 129.398438 C 264.71875 129.289062 264.464844 129.226562 264.347656 129.011719 C 264.242188 128.796875 264.339844 128.554688 264.433594 128.355469 C 264.519531 128.171875 264.625 128 264.707031 127.8125 C 264.777344 127.671875 264.886719 127.550781 264.957031 127.414062 C 265.015625 127.304688 265.007812 127.171875 264.960938 127.0625 C 264.867188 126.820312 264.734375 126.59375 264.660156 126.34375 C 264.546875 125.929688 264.382812 125.523438 264.355469 125.089844 C 264.320312 124.675781 264.445312 124.269531 264.632812 123.902344 C 264.816406 123.546875 265.046875 123.210938 265.34375 122.941406 C 265.566406 122.734375 265.863281 122.644531 266.148438 122.566406 C 266.296875 122.519531 266.460938 122.484375 266.570312 122.371094 C 266.695312 122.25 266.738281 122.078125 266.824219 121.933594 C 266.90625 121.789062 267.039062 121.671875 267.199219 121.628906 C 267.46875 121.550781 267.75 121.574219 268.023438 121.585938 C 268.128906 121.585938 268.238281 121.609375 268.34375 121.578125 C 268.617188 121.460938 268.871094 121.296875 269.15625 121.210938 C 269.355469 121.152344 269.5625 121.144531 269.765625 121.144531 C 270.183594 121.152344 270.609375 121.203125 271.007812 121.332031 C 271.542969 121.519531 272.039062 121.808594 272.492188 122.144531 C 272.910156 122.464844 273.304688 122.824219 273.597656 123.265625 C 273.890625 123.695312 274.140625 124.148438 274.390625 124.601562 C 274.757812 125.28125 275.101562 125.96875 275.441406 126.664062 C 275.683594 127.15625 275.9375 127.644531 276.148438 128.152344 C 276.324219 128.546875 276.46875 128.957031 276.664062 129.34375 C 276.886719 129.804688 277.164062 130.261719 277.1875 130.785156 C 277.207031 131.175781 276.972656 131.511719 276.75 131.816406 C 276.632812 131.988281 276.476562 132.167969 276.503906 132.390625 C 276.527344 132.65625 276.726562 132.851562 276.871094 133.0625 C 277.039062 133.28125 277.140625 133.542969 277.261719 133.789062 C 277.664062 134.644531 278.066406 135.503906 278.40625 136.386719 C 278.554688 136.777344 278.640625 137.1875 278.722656 137.597656 C 278.773438 137.886719 278.824219 138.179688 278.835938 138.476562 C 278.835938 138.585938 278.835938 138.710938 278.746094 138.789062 C 278.695312 138.839844 278.617188 138.824219 278.550781 138.816406 C 278.703125 139.121094 278.660156 139.476562 278.585938 139.796875 C 278.542969 139.945312 278.480469 140.136719 278.304688 140.175781 C 278.171875 140.199219 278.082031 140.078125 278.015625 139.980469 C 277.808594 139.6875 277.625 139.375 277.460938 139.058594 C 277.507812 139.59375 277.578125 140.132812 277.53125 140.671875 C 277.503906 141.054688 277.414062 141.433594 277.390625 141.816406 C 277.382812 142.035156 277.386719 142.253906 277.414062 142.46875 C 277.472656 142.96875 277.644531 143.445312 277.726562 143.9375 C 277.871094 144.808594 278.070312 145.675781 278.101562 146.5625 C 278.105469 146.914062 278.109375 147.261719 278.09375 147.613281 C 278.070312 148.171875 277.953125 148.730469 277.703125 149.234375 C 277.484375 149.664062 277.089844 149.957031 276.800781 150.332031 C 276.554688 150.652344 276.457031 151.054688 276.386719 151.441406 C 276.308594 151.90625 276.292969 152.378906 276.308594 152.851562 C 276.328125 153.183594 276.363281 153.515625 276.460938 153.835938 C 276.570312 154.210938 276.765625 154.550781 276.9375 154.902344 C 277.058594 155.144531 277.160156 155.394531 277.285156 155.632812 C 277.605469 156.25 277.945312 156.859375 278.25 157.488281 C 278.894531 158.785156 279.351562 160.167969 279.847656 161.527344 C 280.34375 162.855469 280.726562 164.226562 281.285156 165.527344 C 281.558594 166.167969 281.878906 166.789062 282.199219 167.40625 C 282.421875 167.839844 282.660156 168.269531 282.839844 168.726562 C 282.984375 169.15625 283.082031 169.597656 283.152344 170.046875 C 283.171875 170.207031 283.199219 170.371094 283.171875 170.53125 C 283.152344 170.632812 283.050781 170.71875 282.941406 170.695312 C 282.792969 170.640625 282.722656 170.488281 282.632812 170.371094 C 282.523438 170.226562 282.421875 170.054688 282.246094 169.980469 C 282.003906 169.949219 281.761719 170.011719 281.523438 170.050781 C 281.082031 170.148438 280.632812 170.253906 280.214844 170.433594 C 280.082031 170.484375 280.035156 170.628906 280.011719 170.753906 C 279.972656 170.941406 279.902344 171.144531 279.730469 171.257812 C 279.546875 171.359375 279.339844 171.417969 279.136719 171.488281 C 278.296875 171.757812 277.445312 171.996094 276.605469 172.265625 C 276.347656 172.351562 276.082031 172.429688 275.839844 172.550781 C 275.589844 172.714844 275.421875 172.984375 275.355469 173.273438 C 275.289062 173.496094 275.339844 173.730469 275.355469 173.957031 C 275.449219 174.816406 275.59375 175.664062 275.753906 176.511719 C 275.902344 177.273438 276.0625 178.03125 276.265625 178.777344 C 276.417969 179.355469 276.636719 179.914062 276.882812 180.457031 C 277.183594 181.121094 277.523438 181.773438 277.753906 182.464844 C 278.019531 183.226562 278.144531 184.027344 278.191406 184.832031 C 278.285156 186.378906 278 187.914062 277.863281 189.453125 C 277.8125 190.082031 277.753906 190.707031 277.660156 191.332031 C 277.507812 192.453125 277.277344 193.5625 277.152344 194.6875 C 277.128906 194.9375 277.109375 195.1875 277.132812 195.4375 C 277.152344 195.660156 277.28125 195.855469 277.433594 196.011719 C 277.710938 196.296875 278.066406 196.492188 278.351562 196.769531 C 278.519531 196.925781 278.628906 197.136719 278.652344 197.363281 C 278.722656 197.808594 278.523438 198.226562 278.398438 198.644531 C 278.222656 199.300781 277.933594 199.917969 277.691406 200.550781 C 277.5625 200.890625 277.410156 201.226562 277.386719 201.59375 C 277.359375 201.878906 277.378906 202.164062 277.347656 202.449219 C 277.339844 202.558594 277.285156 202.675781 277.179688 202.730469 C 276.996094 202.824219 276.761719 202.816406 276.582031 202.714844 C 276.46875 202.648438 276.441406 202.507812 276.417969 202.390625 C 276.351562 202.007812 276.320312 201.617188 276.25 201.234375 C 276.21875 201.101562 276.203125 200.960938 276.128906 200.847656 C 275.960938 200.660156 275.695312 200.570312 275.445312 200.601562 C 275.308594 200.609375 275.222656 200.734375 275.132812 200.824219 C 274.738281 201.273438 274.398438 201.765625 274.015625 202.226562 C 273.847656 202.421875 273.679688 202.625 273.460938 202.761719 C 273.140625 202.980469 272.777344 203.132812 272.398438 203.203125 C 272.027344 203.289062 271.648438 203.261719 271.273438 203.253906 C 270.386719 203.214844 269.5 203.152344 268.617188 203.050781 C 268.382812 203.027344 268.148438 202.976562 267.925781 202.898438 C 267.714844 202.828125 267.496094 202.757812 267.328125 202.609375 C 267.214844 202.515625 267.128906 202.363281 267.164062 202.210938 C 267.199219 202.0625 267.292969 201.933594 267.386719 201.8125 C 267.582031 201.558594 267.800781 201.324219 268.007812 201.082031 C 267.816406 201.089844 267.617188 201.035156 267.488281 200.882812 C 267.367188 200.753906 267.253906 200.621094 267.164062 200.46875 C 267.066406 200.304688 267.050781 200.128906 267.019531 199.9375 C 267.015625 199.945312 267.015625 199.953125 267.015625 199.960938 C 266.984375 199.808594 267.015625 199.648438 267.097656 199.515625 C 267.164062 199.40625 267.265625 199.316406 267.382812 199.269531 C 267.496094 199.226562 267.65625 199.25 267.773438 199.265625 C 268.058594 199.300781 268.363281 199.390625 268.640625 199.261719 C 269.011719 199.066406 269.339844 198.804688 269.664062 198.546875 C 270.335938 198.011719 270.96875 197.429688 271.570312 196.820312 C 271.832031 196.554688 272.085938 196.277344 272.304688 195.976562 C 272.589844 195.585938 272.785156 195.132812 272.855469 194.65625 C 272.9375 194.101562 272.976562 193.542969 272.953125 192.984375 C 272.90625 191.65625 272.769531 190.335938 272.609375 189.019531 C 272.460938 187.835938 272.304688 186.65625 272.113281 185.480469 C 271.890625 184.09375 271.546875 182.726562 271.097656 181.398438 C 270.878906 180.777344 270.660156 180.152344 270.320312 179.589844 C 270.03125 179.070312 269.664062 178.59375 269.449219 178.039062 C 269.277344 177.5625 269.253906 177.050781 269.285156 176.550781 C 269.3125 176.167969 269.285156 175.78125 269.324219 175.398438 C 269.347656 175.0625 269.414062 174.726562 269.390625 174.386719 C 269.394531 174.25 269.253906 174.1875 269.140625 174.15625 C 268.980469 174.105469 268.800781 174.089844 268.667969 173.980469 C 268.519531 173.835938 268.542969 173.609375 268.542969 173.421875 C 268.414062 173.453125 268.28125 173.484375 268.148438 173.460938 C 267.898438 173.417969 267.65625 173.308594 267.398438 173.332031 C 267.242188 173.335938 267.132812 173.464844 267.023438 173.558594 C 266.558594 174.003906 266.152344 174.503906 265.699219 174.957031 C 265.609375 175.042969 265.507812 175.160156 265.367188 175.136719 C 265.222656 175.109375 265.15625 174.960938 265.121094 174.832031 C 265.042969 174.507812 265 174.171875 264.972656 173.835938 C 264.902344 172.964844 264.867188 172.085938 264.898438 171.210938 C 264.9375 170.496094 265.050781 169.789062 265.160156 169.082031 C 265.308594 168.144531 265.476562 167.207031 265.597656 166.265625 C 265.726562 165.132812 265.925781 164.011719 266.050781 162.878906 C 266.074219 162.585938 266.121094 162.285156 266.070312 161.992188 C 266.015625 161.929688 265.925781 161.964844 265.855469 161.972656 C 265.492188 162.058594 265.167969 162.261719 264.824219 162.402344 C 264.488281 162.539062 264.226562 162.808594 263.886719 162.945312 C 263.417969 163.144531 262.894531 163.109375 262.40625 163.21875 C 262.199219 163.269531 262.246094 163.535156 262.191406 163.691406 C 262.011719 164.289062 261.808594 164.886719 261.636719 165.488281 C 261.433594 166.179688 261.234375 166.875 261.164062 167.59375 C 261.105469 168.148438 261.078125 168.707031 260.972656 169.253906 C 260.824219 169.964844 260.632812 170.667969 260.457031 171.371094 C 260.199219 172.402344 259.933594 173.433594 259.753906 174.480469 C 259.71875 174.734375 259.675781 174.988281 259.683594 175.242188 C 259.683594 175.269531 259.683594 175.335938 259.675781 175.425781 C 265.4375 177.785156 269.496094 183.433594 269.496094 190.027344 C 269.496094 198.742188 262.40625 205.804688 253.65625 205.804688 C 244.910156 205.804688 237.820312 198.742188 237.820312 190.027344 C 237.820312 189.03125 237.910156 188.058594 238.089844 187.117188 C 238.070312 187.113281 238.050781 187.113281 238.035156 187.109375 C 238.015625 186.859375 238.136719 186.527344 238.191406 186.273438 C 238.253906 185.980469 238.328125 185.6875 238.347656 185.386719 C 238.367188 185.242188 238.222656 185.15625 238.113281 185.105469 C 237.773438 184.960938 237.402344 184.953125 237.039062 184.9375 C 236.507812 184.921875 235.972656 184.933594 235.445312 185.011719 C 235.179688 185.050781 234.910156 185.105469 234.660156 185.214844 C 234.441406 185.304688 234.261719 185.46875 234.121094 185.660156 C 233.945312 185.910156 233.847656 186.203125 233.777344 186.5 C 233.683594 186.902344 233.621094 187.3125 233.519531 187.714844 C 233.335938 188.390625 233.210938 189.082031 233.097656 189.773438 C 232.8125 191.488281 232.621094 193.214844 232.484375 194.945312 C 232.460938 195.339844 232.421875 195.734375 232.449219 196.128906 C 232.460938 196.214844 232.457031 196.339844 232.570312 196.355469 C 232.796875 196.398438 233.03125 196.34375 233.261719 196.394531 C 233.8125 196.523438 234.367188 196.660156 234.898438 196.859375 C 235.179688 196.972656 235.46875 197.089844 235.695312 197.296875 C 235.941406 197.523438 236.140625 197.804688 236.261719 198.117188 C 236.488281 198.691406 236.515625 199.320312 236.46875 199.925781 C 236.429688 200.421875 236.351562 200.917969 236.222656 201.402344 C 236.09375 201.898438 235.917969 202.386719 235.636719 202.816406 C 235.285156 203.347656 234.832031 203.808594 234.324219 204.191406 C 233.929688 204.484375 233.496094 204.746094 233.019531 204.886719 C 232.351562 205.0625 231.613281 204.9375 231.039062 204.558594 C 230.839844 204.425781 230.640625 204.277344 230.5 204.082031 C 230.273438 203.773438 230.109375 203.421875 229.960938 203.070312 C 229.710938 202.476562 229.496094 201.867188 229.378906 201.234375 C 229.296875 200.867188 229.496094 200.523438 229.691406 200.234375 C 229.761719 200.109375 229.882812 199.988281 229.871094 199.835938 C 229.726562 199.785156 229.570312 199.792969 229.421875 199.800781 C 229.066406 199.828125 228.71875 199.886719 228.363281 199.90625 C 227.617188 199.9375 226.871094 199.910156 226.128906 199.980469 C 225.980469 199.988281 225.847656 200.0625 225.75 200.167969 C 225.621094 200.304688 225.464844 200.421875 225.277344 200.453125 C 224.957031 200.503906 224.636719 200.527344 224.316406 200.558594 C 223.511719 200.621094 222.699219 200.671875 221.890625 200.664062 C 221.613281 200.65625 221.324219 200.664062 221.066406 200.546875 C 220.730469 200.410156 220.410156 200.207031 220.191406 199.914062 C 220.039062 199.703125 219.917969 199.441406 219.96875 199.171875 C 220.027344 198.84375 220.21875 198.5625 220.355469 198.261719 C 220.433594 198.097656 220.519531 197.914062 220.472656 197.726562 C 220.410156 197.464844 220.203125 197.28125 220.066406 197.058594 C 219.933594 196.863281 219.871094 196.632812 219.789062 196.417969 C 219.6875 196.132812 219.585938 195.851562 219.546875 195.550781 C 219.527344 195.390625 219.527344 195.214844 219.625 195.078125 Z M 282.875 170.195312 C 282.894531 170.152344 282.886719 170.121094 282.847656 170.105469 C 282.824219 170.144531 282.835938 170.175781 282.875 170.195312 Z M 246.65625 173.523438 C 246.636719 173.402344 246.574219 173.273438 246.453125 173.226562 C 246.175781 173.125 245.871094 173.152344 245.582031 173.089844 C 245.167969 173.003906 244.757812 172.890625 244.335938 172.824219 C 243.671875 172.710938 242.996094 172.730469 242.328125 172.742188 C 241.882812 172.761719 241.433594 172.761719 240.992188 172.839844 C 241.058594 173.011719 241.152344 173.183594 241.140625 173.375 C 241.125 173.589844 241.074219 173.796875 241.007812 174 C 240.992188 174.0625 240.9375 174.113281 240.871094 174.113281 C 240.867188 174.128906 240.867188 174.164062 240.867188 174.179688 C 241.785156 174.367188 242.6875 174.617188 243.605469 174.808594 C 244.167969 174.929688 244.730469 175.046875 245.300781 175.132812 C 245.597656 175.171875 245.902344 175.214844 246.203125 175.203125 C 246.28125 175.199219 246.363281 175.1875 246.414062 175.125 C 246.550781 174.96875 246.601562 174.765625 246.644531 174.570312 C 246.707031 174.226562 246.71875 173.871094 246.65625 173.523438 Z M 252.191406 202.925781 L 253.144531 195.148438 L 253.082031 194.636719 C 252.890625 194.628906 252.699219 194.613281 252.515625 194.582031 L 250.078125 202.511719 C 250.761719 202.703125 251.464844 202.84375 252.191406 202.925781 Z M 256.429688 202.710938 L 253.933594 194.59375 C 253.746094 194.621094 253.554688 194.636719 253.359375 194.640625 L 253.296875 195.148438 L 254.261719 202.992188 C 255 202.960938 255.726562 202.863281 256.429688 202.710938 Z M 240.960938 192.945312 L 247.46875 190.964844 L 240.691406 191.324219 C 240.75 191.875 240.835938 192.417969 240.960938 192.945312 Z M 240.628906 190.027344 C 240.628906 190.414062 240.644531 190.792969 240.679688 191.171875 L 248.074219 190.78125 L 248.585938 190.628906 C 248.558594 190.445312 248.539062 190.257812 248.535156 190.066406 L 240.660156 189.097656 C 240.640625 189.40625 240.628906 189.714844 240.628906 190.027344 Z M 248.53125 189.914062 C 248.535156 189.382812 248.625 188.871094 248.789062 188.394531 L 242.847656 187.03125 C 242.21875 187.050781 241.589844 187.074219 240.960938 187.089844 C 240.824219 187.695312 240.726562 188.316406 240.671875 188.949219 Z M 247.519531 187.046875 C 246.171875 186.992188 244.820312 186.984375 243.472656 187.015625 C 243.464844 187.015625 243.460938 187.015625 243.457031 187.015625 L 248.839844 188.25 C 248.910156 188.074219 248.988281 187.898438 249.078125 187.730469 L 248.667969 187.425781 L 247.808594 187.0625 C 247.710938 187.058594 247.617188 187.050781 247.519531 187.046875 Z M 248.746094 187.292969 L 249.210938 187.492188 C 249.28125 187.375 249.359375 187.265625 249.4375 187.15625 C 249.117188 187.132812 248.800781 187.113281 248.480469 187.09375 Z M 259.125 178.242188 C 259 178.636719 258.894531 178.917969 258.871094 178.910156 C 258.605469 180.105469 258.3125 181.292969 258.019531 182.480469 C 258.019531 182.484375 258.019531 182.488281 258.015625 182.492188 L 260.621094 179.050781 C 260.144531 178.75 259.644531 178.480469 259.125 178.242188 Z M 260.75 179.132812 L 257.929688 182.859375 C 257.8125 183.363281 257.707031 183.863281 257.625 184.382812 C 257.519531 185.042969 257.417969 185.699219 257.3125 186.355469 L 262.660156 180.640625 C 262.070312 180.082031 261.433594 179.578125 260.75 179.132812 Z M 262.769531 180.746094 L 257.265625 186.628906 C 257.230469 186.8125 257.171875 186.992188 257.074219 187.132812 C 257.152344 187.238281 257.226562 187.351562 257.296875 187.460938 L 257.699219 187.292969 L 264.210938 182.410156 C 263.777344 181.816406 263.292969 181.257812 262.769531 180.746094 Z M 266.617188 191.367188 L 258.972656 190.964844 L 266.296875 193.191406 C 266.445312 192.601562 266.554688 191.992188 266.617188 191.367188 Z M 266.632812 191.21875 C 266.667969 190.824219 266.6875 190.425781 266.6875 190.027344 C 266.6875 189.679688 266.671875 189.332031 266.644531 188.992188 L 257.992188 190.054688 C 257.988281 190.257812 257.96875 190.457031 257.9375 190.652344 L 258.371094 190.78125 Z M 257.996094 189.902344 L 266.632812 188.839844 C 266.558594 188.015625 266.40625 187.210938 266.183594 186.4375 L 257.734375 188.378906 C 257.898438 188.855469 257.992188 189.367188 257.996094 189.902344 Z M 266.140625 186.292969 C 265.925781 185.578125 265.648438 184.886719 265.320312 184.230469 L 257.773438 187.425781 L 257.425781 187.6875 C 257.523438 187.863281 257.605469 188.046875 257.679688 188.234375 Z M 264.296875 182.53125 L 258.28125 187.046875 L 265.25 184.09375 C 264.96875 183.550781 264.652344 183.027344 264.296875 182.53125 Z M 258.34375 190.933594 L 257.890625 190.910156 C 257.851562 191.105469 257.796875 191.296875 257.730469 191.484375 L 265.503906 195.433594 C 265.8125 194.765625 266.066406 194.066406 266.257812 193.339844 Z M 257.675781 191.625 C 257.488281 192.113281 257.21875 192.5625 256.886719 192.957031 L 264.1875 197.671875 C 264.667969 197.015625 265.089844 196.3125 265.441406 195.570312 Z M 256.789062 193.070312 C 256.65625 193.21875 256.515625 193.355469 256.371094 193.484375 L 256.632812 193.886719 L 262.617188 199.449219 C 263.15625 198.941406 263.652344 198.386719 264.097656 197.796875 Z M 256.976562 194.414062 L 261.078125 200.699219 C 261.578125 200.351562 262.058594 199.96875 262.503906 199.554688 Z M 256.515625 193.984375 L 256.160156 193.65625 C 256.007812 193.773438 255.84375 193.882812 255.675781 193.980469 L 259.027344 201.855469 C 259.699219 201.550781 260.34375 201.191406 260.949219 200.785156 Z M 255.542969 194.058594 C 255.097656 194.304688 254.605469 194.480469 254.085938 194.570312 L 256.578125 202.679688 C 257.378906 202.496094 258.152344 202.242188 258.886719 201.917969 Z M 249.929688 202.46875 L 252.363281 194.554688 C 251.84375 194.457031 251.359375 194.273438 250.914062 194.019531 L 247.703125 201.574219 C 248.410156 201.9375 249.15625 202.238281 249.929688 202.46875 Z M 247.566406 201.503906 L 250.78125 193.941406 C 250.621094 193.84375 250.46875 193.734375 250.320312 193.617188 L 249.929688 193.984375 L 245.769531 200.359375 C 246.335938 200.785156 246.933594 201.167969 247.566406 201.503906 Z M 245.648438 200.265625 L 249.464844 194.414062 L 244.382812 199.140625 C 244.777344 199.542969 245.203125 199.917969 245.648438 200.265625 Z M 244.277344 199.03125 L 249.8125 193.886719 L 250.105469 193.4375 C 249.964844 193.3125 249.832031 193.179688 249.707031 193.039062 L 242.941406 197.410156 C 243.34375 197.988281 243.789062 198.53125 244.277344 199.03125 Z M 242.855469 197.285156 L 249.609375 192.921875 C 249.28125 192.527344 249.019531 192.078125 248.835938 191.589844 L 241.710938 195.210938 C 242.027344 195.941406 242.414062 196.632812 242.855469 197.285156 Z M 241.648438 195.074219 L 248.785156 191.445312 C 248.722656 191.269531 248.671875 191.089844 248.632812 190.90625 L 248.101562 190.933594 L 240.996094 193.09375 C 241.160156 193.777344 241.378906 194.4375 241.648438 195.074219 Z M 254.109375 203 L 253.222656 195.777344 L 252.339844 202.941406 C 252.773438 202.984375 253.214844 203.007812 253.65625 203.007812 C 253.808594 203.007812 253.957031 203.003906 254.109375 203 Z M 232.796875 202.433594 C 233 202.398438 233.179688 202.289062 233.339844 202.160156 C 233.515625 202.015625 233.503906 201.761719 233.519531 201.554688 C 233.425781 201.511719 233.332031 201.457031 233.226562 201.46875 C 233.050781 201.550781 232.910156 201.695312 232.792969 201.847656 C 232.65625 202.011719 232.683594 202.261719 232.796875 202.433594 Z M 232.796875 202.433594 " fill-opacity="1" fill-rule="nonzero"/></g></svg>