<svg xmlns="http://www.w3.org/2000/svg" xmlns:xlink="http://www.w3.org/1999/xlink" width="944" zoomAndPan="magnify" viewBox="0 0 708 566.999966" height="755" preserveAspectRatio="xMidYMid meet" version="1.0"><defs><clipPath id="id1"><path d="M 0 0 L 708 0 L 708 566.398438 L 0 566.398438 Z M 0 0 " clip-rule="nonzero"/></clipPath><clipPath id="id2"><path d="M 294.722656 142.140625 L 353.910156 142.140625 L 353.910156 201.328125 L 294.722656 201.328125 Z M 294.722656 142.140625 " clip-rule="nonzero"/></clipPath></defs><rect x="-70.8" width="849.6" fill="#ffffff" y="-56.699997" height="680.399959" fill-opacity="1"/><path fill="#ffffff" d="M 0 0 L 708 0 L 708 566.398438 L 0 566.398438 Z M 0 0 " fill-opacity="1" fill-rule="nonzero"/><g clip-path="url(#id1)"><path fill="#ffffff" d="M 0 0 L 708 0 L 708 566.398438 L 0 566.398438 Z M 0 0 " fill-opacity="1" fill-rule="nonzero"/></g><g clip-path="url(#id2)"><path fill="#f3f2f2" d="M 294.722656 171.734375 C 294.722656 155.390625 307.972656 142.140625 324.316406 142.140625 C 340.65625 142.140625 353.910156 155.390625 353.910156 171.734375 C 353.910156 188.074219 340.65625 201.328125 324.316406 201.328125 C 307.972656 201.328125 294.722656 188.074219 294.722656 171.734375 Z M 294.722656 171.734375 " fill-opacity="1" fill-rule="nonzero"/></g><path fill="#0f549d" d="M 304.585938 186.488281 L 311.886719 186.488281 C 314.449219 186.488281 317.421875 184.078125 317.421875 180.953125 L 317.421875 156.238281 L 310.359375 156.238281 C 307.066406 156.238281 304.585938 158.324219 304.585938 161.941406 Z M 304.585938 186.488281 " fill-opacity="1" fill-rule="nonzero"/><path fill="#b41f36" d="M 319.019531 186.488281 L 326.320312 186.488281 C 328.882812 186.488281 331.851562 184.078125 331.851562 180.953125 L 331.851562 156.238281 L 324.792969 156.238281 C 321.5 156.238281 319.019531 158.324219 319.019531 161.941406 Z M 319.019531 186.488281 " fill-opacity="1" fill-rule="nonzero"/><path fill="#329947" d="M 333.667969 186.488281 L 340.964844 186.488281 C 343.53125 186.488281 346.5 184.078125 346.5 180.953125 L 346.5 156.238281 L 339.441406 156.238281 C 336.148438 156.238281 333.667969 158.324219 333.667969 161.941406 Z M 333.667969 186.488281 " fill-opacity="1" fill-rule="nonzero"/><path fill="#f3f2f2" d="M 304.550781 172.234375 L 302.546875 172.234375 C 303.105469 174.476562 305.753906 176.242188 308.726562 176.242188 C 311.457031 176.242188 315.140625 174.714844 315.140625 171.828125 L 315.140625 166.617188 L 310.574219 166.617188 L 310.574219 171.828125 C 310.574219 173.355469 309.367188 174.558594 307.6875 174.558594 C 306.160156 174.558594 304.800781 173.605469 304.550781 172.234375 " fill-opacity="1" fill-rule="nonzero"/><path fill="#f3f2f2" d="M 344.582031 173.285156 C 344.582031 174.488281 343.542969 175.453125 342.171875 175.453125 L 332.066406 175.453125 L 332.066406 166.628906 L 342.171875 166.628906 C 343.375 166.628906 344.414062 167.664062 344.414062 168.871094 C 344.414062 170.074219 343.363281 171.113281 342.171875 171.113281 C 343.542969 171.113281 344.582031 172.078125 344.582031 173.285156 M 335.921875 170.636719 L 339.046875 170.636719 C 339.84375 170.636719 340.574219 169.90625 340.574219 169.109375 C 340.574219 168.308594 339.84375 167.582031 339.046875 167.582031 L 335.921875 167.582031 Z M 339.128906 174.488281 C 339.929688 174.488281 340.65625 173.761719 340.65625 172.960938 C 340.65625 172.164062 339.929688 171.433594 339.128906 171.433594 L 335.921875 171.433594 L 335.921875 174.488281 Z M 339.128906 174.488281 " fill-opacity="1" fill-rule="nonzero"/><path fill="#f3f2f2" d="M 329.648438 173.914062 L 329.648438 175.441406 L 321.941406 175.441406 C 319.53125 175.441406 317.527344 173.4375 317.527344 171.03125 C 317.527344 168.621094 319.53125 166.617188 321.941406 166.617188 L 329.648438 166.617188 L 329.648438 168.226562 C 327.796875 167.820312 326.03125 167.582031 325.148438 167.582031 C 323.230469 167.582031 321.703125 169.109375 321.703125 171.03125 C 321.703125 172.949219 323.230469 174.476562 325.148438 174.476562 C 326.03125 174.488281 327.808594 174.320312 329.648438 173.914062 " fill-opacity="1" fill-rule="nonzero"/></svg>