<svg xmlns="http://www.w3.org/2000/svg" xmlns:xlink="http://www.w3.org/1999/xlink" width="944" zoomAndPan="magnify" viewBox="0 0 708 566.999966" height="755" preserveAspectRatio="xMidYMid meet" version="1.0"><defs><clipPath id="id1"><path d="M 0 0 L 708 0 L 708 566.398438 L 0 566.398438 Z M 0 0 " clip-rule="nonzero"/></clipPath><clipPath id="id2"><path d="M 296.585938 99.878906 L 354.277344 99.878906 L 354.277344 157.566406 L 296.585938 157.566406 Z M 296.585938 99.878906 " clip-rule="nonzero"/></clipPath><clipPath id="id3"><path d="M 299 142 L 352 142 L 352 157.566406 L 299 157.566406 Z M 299 142 " clip-rule="nonzero"/></clipPath><clipPath id="id4"><path d="M 300 99.878906 L 351 99.878906 L 351 115 L 300 115 Z M 300 99.878906 " clip-rule="nonzero"/></clipPath></defs><rect x="-70.8" width="849.6" fill="#ffffff" y="-56.699997" height="680.399959" fill-opacity="1"/><path fill="#ffffff" d="M 0 0 L 708 0 L 708 566.398438 L 0 566.398438 Z M 0 0 " fill-opacity="1" fill-rule="nonzero"/><g clip-path="url(#id1)"><path fill="#ffffff" d="M 0 0 L 708 0 L 708 566.398438 L 0 566.398438 Z M 0 0 " fill-opacity="1" fill-rule="nonzero"/></g><g clip-path="url(#id2)"><path fill="#f3f2f2" d="M 296.585938 128.722656 C 296.585938 112.796875 309.503906 99.878906 325.433594 99.878906 C 341.359375 99.878906 354.277344 112.796875 354.277344 128.722656 C 354.277344 144.652344 341.359375 157.566406 325.433594 157.566406 C 309.503906 157.566406 296.585938 144.652344 296.585938 128.722656 Z M 296.585938 128.722656 " fill-opacity="1" fill-rule="nonzero"/></g><path fill="#293688" d="M 317.945312 134.257812 L 320.152344 121.222656 L 323.734375 121.222656 L 321.527344 134.257812 Z M 317.945312 134.257812 " fill-opacity="1" fill-rule="nonzero"/><path fill="#293688" d="M 334.246094 121.5625 C 333.535156 121.292969 332.429688 121.015625 331.046875 121.015625 C 327.511719 121.015625 325.023438 122.78125 325.003906 125.316406 C 324.980469 127.1875 326.78125 128.234375 328.128906 128.863281 C 329.523438 129.503906 329.988281 129.910156 329.976562 130.480469 C 329.964844 131.351562 328.863281 131.746094 327.839844 131.746094 C 326.410156 131.746094 325.652344 131.546875 324.480469 131.058594 L 324.015625 130.851562 L 323.515625 133.769531 C 324.351562 134.128906 325.898438 134.445312 327.488281 134.464844 C 331.246094 134.464844 333.6875 132.722656 333.710938 130.015625 C 333.722656 128.539062 332.769531 127.398438 330.710938 126.46875 C 329.464844 125.863281 328.699219 125.46875 328.699219 124.851562 C 328.699219 124.304688 329.351562 123.734375 330.746094 123.734375 C 331.917969 123.710938 332.757812 123.96875 333.417969 124.234375 L 333.746094 124.386719 Z M 334.246094 121.5625 " fill-opacity="1" fill-rule="nonzero"/><path fill="#293688" d="M 340.335938 121.222656 C 339.476562 121.222656 338.859375 121.480469 338.488281 122.328125 L 333.199219 134.246094 L 336.976562 134.246094 L 337.710938 132.246094 L 342.230469 132.246094 L 342.652344 134.246094 L 346.011719 134.246094 L 343.070312 121.210938 L 340.335938 121.210938 Z M 338.710938 129.652344 C 339 128.898438 340.128906 126.015625 340.128906 126.015625 C 340.105469 126.050781 340.417969 125.257812 340.605469 124.769531 L 340.847656 125.898438 C 340.847656 125.898438 341.535156 129.015625 341.675781 129.664062 L 338.710938 129.664062 Z M 338.710938 129.652344 " fill-opacity="1" fill-rule="nonzero"/><path fill="#293688" d="M 311.433594 130.152344 L 311.121094 128.363281 C 310.46875 126.28125 308.445312 124.027344 306.179688 122.898438 L 309.339844 134.246094 L 313.121094 134.246094 L 318.792969 121.210938 L 315.015625 121.210938 Z M 311.433594 130.152344 " fill-opacity="1" fill-rule="nonzero"/><path fill="#f7981d" d="M 302.285156 121.222656 L 302.285156 121.433594 C 306.773438 122.515625 309.875 125.234375 311.109375 128.375 L 309.816406 122.339844 C 309.597656 121.515625 308.945312 121.257812 308.167969 121.222656 Z M 302.285156 121.222656 " fill-opacity="1" fill-rule="nonzero"/><g clip-path="url(#id3)"><path fill="#f7981d" d="M 325.433594 157.566406 C 336.570312 157.566406 346.21875 151.253906 351.019531 142.023438 L 299.84375 142.023438 C 304.644531 151.253906 314.304688 157.566406 325.433594 157.566406 Z M 325.433594 157.566406 " fill-opacity="1" fill-rule="nonzero"/></g><g clip-path="url(#id4)"><path fill="#293688" d="M 325.433594 99.878906 C 314.480469 99.878906 304.945312 105.984375 300.0625 114.980469 L 350.800781 114.980469 C 345.917969 105.996094 336.382812 99.878906 325.433594 99.878906 Z M 325.433594 99.878906 " fill-opacity="1" fill-rule="nonzero"/></g></svg>