<svg xmlns="http://www.w3.org/2000/svg" xmlns:xlink="http://www.w3.org/1999/xlink" width="944" zoomAndPan="magnify" viewBox="0 0 708 566.999966" height="755" preserveAspectRatio="xMidYMid meet" version="1.0"><defs><clipPath id="id1"><path d="M 0 0 L 708 0 L 708 566.398438 L 0 566.398438 Z M 0 0 " clip-rule="nonzero"/></clipPath><clipPath id="id2"><path d="M 317.523438 103.082031 L 376.710938 103.082031 L 376.710938 162.269531 L 317.523438 162.269531 Z M 317.523438 103.082031 " clip-rule="nonzero"/></clipPath></defs><rect x="-70.8" width="849.6" fill="#ffffff" y="-56.699997" height="680.399959" fill-opacity="1"/><path fill="#ffffff" d="M 0 0 L 708 0 L 708 566.398438 L 0 566.398438 Z M 0 0 " fill-opacity="1" fill-rule="nonzero"/><g clip-path="url(#id1)"><path fill="#ffffff" d="M 0 0 L 708 0 L 708 566.398438 L 0 566.398438 Z M 0 0 " fill-opacity="1" fill-rule="nonzero"/></g><g clip-path="url(#id2)"><path fill="#003473" d="M 317.523438 132.675781 C 317.523438 116.335938 330.773438 103.082031 347.117188 103.082031 C 363.457031 103.082031 376.710938 116.335938 376.710938 132.675781 C 376.710938 149.015625 363.457031 162.269531 347.117188 162.269531 C 330.773438 162.269531 317.523438 149.015625 317.523438 132.675781 Z M 317.523438 132.675781 " fill-opacity="1" fill-rule="nonzero"/></g><path fill="#009ddd" d="M 346.339844 141.585938 C 348.917969 139.261719 350.539062 135.882812 350.539062 132.140625 C 350.539062 128.394531 348.917969 125.019531 346.339844 122.667969 C 344.085938 120.617188 341.09375 119.375 337.800781 119.375 C 330.761719 119.375 325.035156 125.101562 325.035156 132.140625 C 325.035156 139.1875 330.761719 144.878906 337.800781 144.878906 C 341.105469 144.878906 344.097656 143.625 346.339844 141.585938 " fill-opacity="1" fill-rule="evenodd"/><path fill="#009ddd" d="M 346.339844 141.585938 C 348.917969 139.261719 350.539062 135.882812 350.539062 132.140625 C 350.539062 128.394531 348.917969 125.019531 346.339844 122.667969 Z M 346.339844 141.585938 " fill-opacity="1" fill-rule="evenodd"/><path fill="#ed1c2e" d="M 354.917969 119.375 C 351.625 119.375 348.617188 120.628906 346.351562 122.667969 C 345.898438 123.097656 345.480469 123.539062 345.074219 124.015625 L 347.652344 124.015625 C 348 124.433594 348.332031 124.910156 348.628906 125.363281 L 344.109375 125.363281 C 343.835938 125.816406 343.585938 126.257812 343.359375 126.710938 L 349.359375 126.710938 C 349.5625 127.164062 349.765625 127.605469 349.90625 128.058594 L 342.820312 128.058594 C 342.667969 128.511719 342.546875 128.964844 342.453125 129.429688 L 350.265625 129.429688 C 350.445312 130.277344 350.539062 131.207031 350.539062 132.128906 C 350.539062 133.523438 350.3125 134.894531 349.882812 136.171875 L 342.820312 136.171875 C 342.964844 136.625 343.144531 137.066406 343.347656 137.519531 L 349.347656 137.519531 C 349.121094 137.972656 348.894531 138.4375 348.617188 138.867188 L 344.097656 138.867188 C 344.394531 139.34375 344.71875 139.785156 345.074219 140.214844 L 347.652344 140.214844 C 347.257812 140.691406 346.828125 141.144531 346.351562 141.5625 C 348.628906 143.613281 351.625 144.855469 354.917969 144.855469 C 361.964844 144.855469 367.65625 139.164062 367.65625 132.117188 C 367.65625 125.101562 361.953125 119.375 354.917969 119.375 " fill-opacity="1" fill-rule="evenodd"/><path fill="#ffffff" d="M 363.253906 134.882812 C 363.253906 134.65625 363.457031 134.476562 363.683594 134.476562 C 363.910156 134.476562 364.089844 134.65625 364.089844 134.882812 C 364.089844 135.109375 363.910156 135.3125 363.683594 135.3125 C 363.457031 135.3125 363.253906 135.109375 363.253906 134.882812 M 363.683594 135.214844 C 363.863281 135.214844 363.980469 135.0625 363.980469 134.894531 C 363.980469 134.726562 363.863281 134.597656 363.683594 134.597656 C 363.503906 134.597656 363.363281 134.714844 363.363281 134.894531 C 363.363281 135.074219 363.503906 135.214844 363.683594 135.214844 M 363.625 135.0625 L 363.527344 135.0625 L 363.527344 134.714844 L 363.683594 134.714844 C 363.730469 134.714844 363.753906 134.714844 363.777344 134.738281 C 363.804688 134.761719 363.828125 134.789062 363.828125 134.8125 C 363.828125 134.859375 363.804688 134.90625 363.753906 134.90625 L 363.828125 135.0625 L 363.730469 135.0625 L 363.683594 134.941406 L 363.636719 134.941406 L 363.636719 135.0625 Z M 363.625 134.859375 L 363.71875 134.859375 C 363.71875 134.859375 363.71875 134.835938 363.71875 134.8125 L 363.71875 134.789062 C 363.695312 134.789062 363.671875 134.789062 363.648438 134.789062 L 363.625 134.789062 Z M 363.625 134.859375 " fill-opacity="1" fill-rule="evenodd"/><path fill="#ffffff" d="M 336.203125 135.3125 L 334.601562 135.3125 L 335.558594 130.339844 L 333.375 135.3125 L 331.929688 135.3125 L 331.679688 130.363281 L 330.726562 135.3125 L 329.28125 135.3125 L 330.511719 128.847656 L 333.003906 128.847656 L 333.125 132.84375 L 334.878906 128.847656 L 337.453125 128.847656 Z M 336.203125 135.3125 " fill-opacity="1" fill-rule="evenodd"/><path fill="#ffffff" d="M 353.9375 135.242188 C 353.484375 135.359375 353.164062 135.417969 352.792969 135.417969 C 351.996094 135.417969 351.542969 135.015625 351.542969 134.273438 C 351.542969 134.121094 351.566406 133.976562 351.589844 133.796875 L 351.683594 133.273438 L 351.753906 132.867188 L 352.484375 128.847656 L 354.058594 128.847656 L 353.832031 130.039062 L 354.652344 130.039062 L 354.425781 131.316406 L 353.605469 131.316406 L 353.199219 133.511719 C 353.175781 133.605469 353.152344 133.691406 353.152344 133.738281 C 353.152344 134.011719 353.332031 134.144531 353.699219 134.144531 C 353.878906 134.144531 354.023438 134.121094 354.128906 134.09375 Z M 353.9375 135.242188 " fill-opacity="1" fill-rule="evenodd"/><path fill="#ffffff" d="M 358.554688 130.085938 C 358.433594 130.039062 358.398438 130.039062 358.375 130.039062 C 358.304688 130.015625 358.257812 130.015625 358.257812 129.992188 C 358.207031 129.992188 358.160156 129.992188 358.078125 129.992188 C 357.554688 129.992188 357.183594 130.21875 356.707031 130.839844 L 356.859375 130.039062 L 355.417969 130.039062 L 354.441406 135.3125 L 356.039062 135.3125 C 356.609375 132.089844 356.835938 131.519531 357.613281 131.519531 C 357.660156 131.519531 357.742188 131.542969 357.816406 131.542969 L 357.992188 131.589844 Z M 358.554688 130.085938 " fill-opacity="1" fill-rule="evenodd"/><path fill="#ffffff" d="M 347.640625 131.710938 C 347.640625 132.355469 348.011719 132.832031 348.867188 133.164062 C 349.511719 133.4375 349.621094 133.511719 349.621094 133.761719 C 349.621094 134.082031 349.324219 134.238281 348.691406 134.238281 C 348.214844 134.238281 347.761719 134.167969 347.246094 134.011719 L 347.042969 135.242188 L 347.117188 135.242188 L 347.390625 135.3125 C 347.484375 135.3125 347.640625 135.335938 347.820312 135.335938 C 348.1875 135.382812 348.5 135.382812 348.714844 135.382812 C 350.382812 135.382812 351.183594 134.835938 351.183594 133.628906 C 351.183594 132.902344 350.859375 132.484375 350.039062 132.152344 C 349.359375 131.902344 349.285156 131.828125 349.285156 131.578125 C 349.285156 131.304688 349.5625 131.148438 350.085938 131.148438 C 350.382812 131.148438 350.835938 131.171875 351.230469 131.21875 L 351.457031 130.027344 C 351.027344 129.957031 350.40625 129.933594 350.0625 129.933594 C 348.273438 129.945312 347.640625 130.742188 347.640625 131.710938 " fill-opacity="1" fill-rule="evenodd"/><path fill="#ffffff" d="M 341.34375 135.3125 L 340.042969 135.3125 L 340.066406 134.761719 C 339.660156 135.191406 339.113281 135.382812 338.394531 135.382812 C 337.550781 135.382812 336.953125 134.8125 336.953125 133.964844 C 336.953125 132.6875 337.980469 131.9375 339.757812 131.9375 C 339.933594 131.9375 340.148438 131.9375 340.398438 131.960938 C 340.449219 131.78125 340.449219 131.710938 340.449219 131.636719 C 340.449219 131.292969 340.171875 131.160156 339.421875 131.160156 C 338.96875 131.160156 338.480469 131.207031 338.121094 131.28125 L 337.894531 131.351562 L 337.738281 131.375 L 337.96875 130.207031 C 338.765625 130.003906 339.265625 129.933594 339.863281 129.933594 C 341.234375 129.933594 341.9375 130.457031 341.9375 131.460938 C 341.9375 131.734375 341.914062 131.9375 341.820312 132.507812 L 341.496094 134.382812 L 341.449219 134.703125 L 341.402344 134.976562 L 341.378906 135.15625 Z M 340.199219 132.960938 C 340.019531 132.9375 339.945312 132.9375 339.851562 132.9375 C 338.957031 132.9375 338.503906 133.210938 338.503906 133.738281 C 338.503906 134.058594 338.707031 134.285156 339.050781 134.285156 C 339.695312 134.285156 340.171875 133.738281 340.199219 132.960938 " fill-opacity="1" fill-rule="evenodd"/><path fill="#ffffff" d="M 346.566406 135.191406 C 346.019531 135.347656 345.492188 135.417969 344.945312 135.417969 C 343.179688 135.417969 342.25 134.597656 342.25 133.046875 C 342.25 131.246094 343.417969 129.921875 345.015625 129.921875 C 346.316406 129.921875 347.140625 130.671875 347.140625 131.816406 C 347.140625 132.210938 347.09375 132.59375 346.960938 133.117188 L 343.789062 133.117188 L 343.789062 133.296875 C 343.789062 133.890625 344.242188 134.214844 345.160156 134.214844 C 345.730469 134.214844 346.257812 134.121094 346.804688 133.890625 Z M 345.71875 132.066406 C 345.71875 131.972656 345.71875 131.863281 345.71875 131.792969 C 345.71875 131.363281 345.445312 131.113281 344.96875 131.113281 C 344.46875 131.113281 344.121094 131.460938 343.964844 132.066406 Z M 345.71875 132.066406 " fill-opacity="1" fill-rule="evenodd"/><path fill="#ffffff" d="M 363.503906 132.914062 C 363.253906 134.667969 362.027344 135.429688 360.402344 135.429688 C 358.625 135.429688 357.910156 134.359375 357.910156 133.011719 C 357.910156 131.160156 359.140625 129.882812 361.035156 129.882812 C 362.683594 129.882812 363.566406 130.933594 363.566406 132.257812 C 363.550781 132.59375 363.550781 132.617188 363.503906 132.914062 M 361.859375 132.234375 C 361.859375 131.6875 361.632812 131.183594 360.988281 131.183594 C 360.1875 131.183594 359.6875 132.128906 359.6875 132.984375 C 359.6875 133.691406 360.035156 134.15625 360.582031 134.15625 C 360.929688 134.15625 361.679688 133.679688 361.8125 132.878906 C 361.859375 132.6875 361.859375 132.460938 361.859375 132.234375 " fill-opacity="1" fill-rule="evenodd"/></svg>