<svg xmlns="http://www.w3.org/2000/svg" xmlns:xlink="http://www.w3.org/1999/xlink" width="944" zoomAndPan="magnify" viewBox="0 0 708 566.999966" height="755" preserveAspectRatio="xMidYMid meet" version="1.0"><defs><clipPath id="id1"><path d="M 0 0 L 708 0 L 708 566.398438 L 0 566.398438 Z M 0 0 " clip-rule="nonzero"/></clipPath><clipPath id="id2"><path d="M 285.332031 184.707031 L 372.363281 184.707031 L 372.363281 261.875 L 285.332031 261.875 Z M 285.332031 184.707031 " clip-rule="nonzero"/></clipPath><clipPath id="id3"><path d="M 367.441406 198.257812 L 393.996094 198.257812 L 393.996094 239.675781 L 367.441406 239.675781 Z M 367.441406 198.257812 " clip-rule="nonzero"/></clipPath><clipPath id="id4"><path d="M 263.636719 198 L 291 198 L 291 240 L 263.636719 240 Z M 263.636719 198 " clip-rule="nonzero"/></clipPath></defs><rect x="-70.8" width="849.6" fill="#ffffff" y="-56.699997" height="680.399959" fill-opacity="1"/><path fill="#ffffff" d="M 0 0 L 708 0 L 708 566.398438 L 0 566.398438 Z M 0 0 " fill-opacity="1" fill-rule="nonzero"/><g clip-path="url(#id1)"><path fill="#ffffff" d="M 0 0 L 708 0 L 708 566.398438 L 0 566.398438 Z M 0 0 " fill-opacity="1" fill-rule="nonzero"/></g><g clip-path="url(#id2)"><path fill="#256b4e" d="M 363.484375 196.101562 C 356.476562 194.269531 349.425781 192.6875 342.882812 189.835938 C 338.570312 187.957031 334.519531 185.265625 329.6875 184.769531 C 329.402344 184.742188 329.113281 184.722656 328.828125 184.707031 C 328.539062 184.722656 328.253906 184.742188 327.96875 184.769531 C 323.136719 185.265625 319.085938 187.957031 314.769531 189.835938 C 308.230469 192.6875 301.179688 194.269531 294.171875 196.097656 C 289.992188 196.914062 286.726562 197.710938 285.417969 198.382812 L 291.253906 236.292969 C 291.390625 237.199219 291.613281 238.078125 291.921875 238.917969 C 292.40625 240.253906 293.089844 241.488281 293.964844 242.578125 C 299.457031 249.429688 314.449219 261.875 328.828125 261.875 C 343.207031 261.875 358.199219 249.429688 363.691406 242.578125 C 364.414062 241.671875 365.015625 240.65625 365.476562 239.566406 C 365.914062 238.53125 366.226562 237.429688 366.402344 236.292969 L 372.238281 198.382812 C 370.929688 197.710938 367.664062 196.917969 363.484375 196.101562 " fill-opacity="1" fill-rule="nonzero"/></g><path fill="#329947" d="M 298.945312 221.515625 C 298.945312 221.515625 299.175781 221.5625 299.609375 221.652344 C 300.042969 221.742188 300.683594 221.863281 301.488281 222.042969 C 302.296875 222.222656 303.285156 222.378906 304.410156 222.59375 C 304.96875 222.703125 305.574219 222.789062 306.210938 222.882812 C 306.84375 222.980469 307.511719 223.085938 308.210938 223.195312 C 308.90625 223.28125 309.636719 223.367188 310.390625 223.460938 C 311.144531 223.550781 311.921875 223.660156 312.726562 223.71875 C 313.53125 223.792969 314.355469 223.867188 315.199219 223.941406 C 316.042969 224.007812 316.910156 224.050781 317.789062 224.109375 C 319.542969 224.246094 321.367188 224.253906 323.214844 224.335938 C 325.0625 224.398438 326.945312 224.382812 328.828125 224.410156 C 330.691406 224.382812 332.605469 224.394531 334.449219 224.335938 C 336.292969 224.253906 338.109375 224.246094 339.867188 224.109375 C 340.746094 224.050781 341.609375 224.007812 342.457031 223.941406 C 343.300781 223.867188 344.125 223.792969 344.929688 223.71875 C 345.734375 223.660156 346.511719 223.550781 347.265625 223.460938 C 348.019531 223.367188 348.746094 223.28125 349.445312 223.195312 C 350.140625 223.085938 350.808594 222.980469 351.445312 222.882812 C 352.082031 222.789062 352.683594 222.703125 353.246094 222.59375 C 354.375 222.378906 355.363281 222.21875 356.167969 222.039062 C 356.972656 221.863281 357.609375 221.742188 358.042969 221.652344 C 358.476562 221.5625 358.710938 221.515625 358.710938 221.515625 L 358.714844 221.515625 C 358.820312 221.492188 358.925781 221.5625 358.945312 221.667969 C 358.964844 221.769531 358.90625 221.867188 358.8125 221.894531 C 358.8125 221.894531 358.582031 221.964844 358.160156 222.09375 C 357.734375 222.222656 357.113281 222.417969 356.316406 222.648438 C 355.519531 222.882812 354.539062 223.113281 353.417969 223.410156 C 352.300781 223.707031 351.015625 223.953125 349.621094 224.253906 C 348.917969 224.375 348.1875 224.5 347.429688 224.632812 C 346.671875 224.765625 345.886719 224.894531 345.078125 224.988281 C 344.265625 225.089844 343.433594 225.195312 342.582031 225.304688 C 341.730469 225.40625 340.855469 225.457031 339.96875 225.539062 C 338.195312 225.710938 336.351562 225.789062 334.480469 225.871094 C 332.605469 225.945312 330.738281 225.945312 328.828125 225.988281 C 326.929688 225.945312 325.035156 225.945312 323.167969 225.871094 C 321.296875 225.789062 319.460938 225.710938 317.6875 225.539062 C 316.796875 225.457031 315.925781 225.40625 315.074219 225.304688 C 314.222656 225.195312 313.386719 225.089844 312.578125 224.988281 C 311.765625 224.894531 310.980469 224.765625 310.222656 224.632812 C 309.46875 224.5 308.734375 224.375 308.03125 224.253906 C 306.636719 223.953125 305.355469 223.707031 304.234375 223.40625 C 303.113281 223.113281 302.128906 222.882812 301.335938 222.644531 C 300.542969 222.417969 299.921875 222.222656 299.496094 222.09375 C 299.074219 221.964844 298.847656 221.898438 298.847656 221.898438 C 298.742188 221.867188 298.683594 221.753906 298.714844 221.652344 C 298.746094 221.554688 298.84375 221.496094 298.945312 221.515625 " fill-opacity="1" fill-rule="nonzero"/><path fill="#329947" d="M 299.347656 235.976562 C 299.347656 235.976562 299.574219 236.035156 300.003906 236.148438 C 300.433594 236.261719 301.066406 236.417969 301.863281 236.640625 C 303.457031 237.082031 305.742188 237.691406 308.480469 238.382812 C 309.851562 238.71875 311.335938 239.070312 312.914062 239.40625 C 314.492188 239.75 316.167969 240.046875 317.898438 240.332031 C 318.765625 240.464844 319.652344 240.589844 320.546875 240.703125 C 321.441406 240.796875 322.347656 240.917969 323.265625 240.984375 C 325.097656 241.164062 326.964844 241.214844 328.828125 241.234375 C 329.738281 241.210938 330.722656 241.226562 331.632812 241.167969 C 332.09375 241.144531 332.550781 241.121094 333.011719 241.097656 C 333.46875 241.070312 333.929688 241.019531 334.390625 240.984375 C 335.304688 240.917969 336.210938 240.796875 337.109375 240.703125 C 338.003906 240.589844 338.886719 240.464844 339.753906 240.332031 C 341.488281 240.046875 343.160156 239.75 344.738281 239.40625 C 346.316406 239.070312 347.804688 238.71875 349.175781 238.382812 C 351.914062 237.691406 354.195312 237.082031 355.792969 236.640625 C 356.585938 236.417969 357.21875 236.261719 357.648438 236.148438 C 358.078125 236.035156 358.308594 235.976562 358.308594 235.976562 C 358.414062 235.949219 358.519531 236.011719 358.550781 236.117188 C 358.574219 236.21875 358.519531 236.320312 358.421875 236.355469 C 358.421875 236.355469 358.199219 236.433594 357.785156 236.585938 C 357.367188 236.734375 356.757812 236.964844 355.976562 237.234375 C 354.414062 237.773438 352.1875 238.589844 349.460938 239.414062 C 348.777344 239.617188 348.066406 239.824219 347.328125 240.042969 C 346.585938 240.242188 345.824219 240.457031 345.027344 240.648438 C 343.441406 241.054688 341.753906 241.425781 339.996094 241.746094 C 338.234375 242.054688 336.40625 242.351562 334.53125 242.515625 C 334.0625 242.554688 333.59375 242.609375 333.117188 242.640625 C 332.640625 242.667969 332.164062 242.695312 331.683594 242.726562 C 330.714844 242.792969 329.804688 242.78125 328.828125 242.8125 C 326.914062 242.777344 324.996094 242.710938 323.125 242.515625 C 321.25 242.351562 319.421875 242.054688 317.660156 241.746094 C 315.902344 241.425781 314.214844 241.054688 312.628906 240.648438 C 311.832031 240.457031 311.070312 240.242188 310.328125 240.042969 C 309.589844 239.824219 308.878906 239.617188 308.195312 239.414062 C 305.46875 238.589844 303.242188 237.773438 301.679688 237.234375 C 300.898438 236.964844 300.289062 236.734375 299.871094 236.585938 C 299.453125 236.433594 299.230469 236.351562 299.230469 236.351562 C 299.128906 236.316406 299.074219 236.203125 299.113281 236.101562 C 299.148438 236.003906 299.25 235.953125 299.347656 235.976562 " fill-opacity="1" fill-rule="nonzero"/><path fill="#9af0ec" d="M 371.792969 201.277344 C 370.261719 200.699219 367.585938 200.042969 363.660156 199.273438 C 362.554688 198.984375 361.453125 198.703125 360.351562 198.421875 C 354.597656 196.953125 348.644531 195.433594 343.199219 193.058594 C 342.058594 192.5625 340.914062 191.996094 339.800781 191.445312 C 336.675781 189.902344 333.445312 188.304688 329.765625 187.929688 C 329.464844 187.898438 329.167969 187.878906 328.867188 187.863281 L 328.828125 187.859375 L 328.789062 187.863281 C 328.488281 187.878906 328.1875 187.898438 327.886719 187.929688 C 324.210938 188.304688 320.976562 189.902344 317.851562 191.445312 C 316.742188 191.996094 315.59375 192.5625 314.457031 193.058594 C 309.007812 195.433594 303.058594 196.953125 297.300781 198.421875 C 296.199219 198.703125 295.097656 198.984375 294 199.273438 C 290.070312 200.042969 287.390625 200.699219 285.863281 201.277344 L 286.109375 202.875 C 287.097656 202.457031 289.328125 201.792969 294.324219 200.816406 L 294.371094 200.804688 C 295.476562 200.515625 296.585938 200.234375 297.691406 199.953125 C 303.507812 198.464844 309.519531 196.929688 315.082031 194.503906 C 316.257812 193.992188 317.421875 193.417969 318.550781 192.859375 C 321.6875 191.308594 324.652344 189.847656 328.046875 189.5 C 328.304688 189.472656 328.566406 189.453125 328.828125 189.441406 C 329.089844 189.453125 329.347656 189.472656 329.609375 189.5 C 333.003906 189.847656 335.96875 191.308594 339.105469 192.859375 C 340.230469 193.417969 341.398438 193.992188 342.570312 194.503906 C 348.132812 196.929688 354.148438 198.464844 359.960938 199.953125 C 361.070312 200.234375 362.175781 200.515625 363.285156 200.804688 L 363.332031 200.816406 C 368.328125 201.792969 370.558594 202.457031 371.546875 202.875 L 371.792969 201.277344 " fill-opacity="1" fill-rule="nonzero"/><g clip-path="url(#id3)"><path fill="#b1c4c5" d="M 388.4375 201.691406 C 384.15625 199.660156 378.054688 198.777344 374.226562 198.40625 L 373.925781 200.363281 C 377.613281 200.722656 383.574219 201.5625 387.59375 203.472656 C 391.285156 205.222656 392.042969 209.386719 392.03125 212.566406 C 391.996094 222.808594 390.289062 228.84375 381.058594 233.414062 C 376.070312 235.882812 371.40625 237.003906 368.179688 237.511719 C 368.023438 238.226562 367.820312 238.929688 367.570312 239.609375 C 370.945312 239.15625 376.195312 238.023438 381.929688 235.179688 C 392.027344 230.183594 393.960938 223.378906 394 212.574219 C 394.019531 207.191406 392.097656 203.425781 388.4375 201.691406 " fill-opacity="1" fill-rule="nonzero"/></g><g clip-path="url(#id4)"><path fill="#b1c4c5" d="M 290.070312 239.589844 C 289.828125 238.921875 289.632812 238.230469 289.480469 237.519531 C 286.25 237.007812 281.589844 235.886719 276.59375 233.414062 C 267.367188 228.84375 265.660156 222.808594 265.621094 212.570312 C 265.609375 209.386719 266.371094 205.222656 270.058594 203.472656 C 274.082031 201.5625 280.042969 200.722656 283.730469 200.363281 L 283.429688 198.40625 C 279.601562 198.777344 273.496094 199.660156 269.214844 201.691406 C 265.554688 203.425781 263.632812 207.191406 263.652344 212.574219 C 263.691406 223.378906 265.625 230.183594 275.722656 235.179688 C 281.457031 238.019531 286.703125 239.15625 290.078125 239.609375 C 290.074219 239.601562 290.070312 239.597656 290.070312 239.589844 " fill-opacity="1" fill-rule="nonzero"/></g><path fill="#329947" d="M 300.019531 209.324219 L 301.851562 209.394531 C 302.460938 209.402344 303.066406 209.425781 303.671875 209.417969 C 304.28125 209.402344 304.886719 209.421875 305.492188 209.390625 C 306.097656 209.363281 306.707031 209.355469 307.308594 209.296875 C 307.910156 209.257812 308.515625 209.21875 309.113281 209.144531 L 310.015625 209.046875 L 310.90625 208.914062 C 311.503906 208.832031 312.09375 208.714844 312.6875 208.605469 L 313.128906 208.523438 L 313.558594 208.421875 L 314.449219 208.207031 C 315.054688 208.078125 315.613281 207.894531 316.191406 207.730469 C 316.761719 207.574219 317.34375 207.390625 317.921875 207.207031 C 319.085938 206.851562 320.242188 206.457031 321.429688 206.105469 C 322.015625 205.917969 322.613281 205.757812 323.21875 205.601562 L 324.121094 205.367188 L 325.042969 205.175781 L 325.964844 204.988281 L 326.90625 204.867188 L 327.847656 204.742188 L 328.777344 204.679688 L 328.828125 204.675781 L 328.863281 204.675781 L 329.839844 204.746094 L 330.75 204.867188 L 331.65625 204.984375 L 333.53125 205.367188 L 334.4375 205.601562 C 335.039062 205.757812 335.640625 205.917969 336.226562 206.105469 C 337.410156 206.457031 338.570312 206.851562 339.730469 207.207031 C 340.308594 207.390625 340.890625 207.574219 341.472656 207.734375 C 342.050781 207.898438 342.628906 208.082031 343.214844 208.210938 L 344.085938 208.421875 L 344.511719 208.523438 L 344.964844 208.605469 C 345.566406 208.71875 346.167969 208.835938 346.753906 208.914062 L 347.640625 209.046875 L 348.539062 209.144531 C 349.140625 209.21875 349.742188 209.257812 350.347656 209.296875 C 350.949219 209.355469 351.554688 209.363281 352.160156 209.390625 C 352.765625 209.421875 353.375 209.402344 353.980469 209.421875 C 355.195312 209.417969 356.414062 209.378906 357.632812 209.324219 L 357.636719 209.324219 C 357.746094 209.316406 357.839844 209.402344 357.84375 209.511719 C 357.847656 209.613281 357.773438 209.703125 357.671875 209.714844 L 355.847656 209.964844 C 355.234375 210.023438 354.621094 210.097656 354.007812 210.140625 C 353.394531 210.179688 352.78125 210.234375 352.164062 210.242188 C 351.546875 210.253906 350.929688 210.289062 350.3125 210.273438 C 349.691406 210.265625 349.074219 210.253906 348.457031 210.210938 L 347.527344 210.160156 L 346.59375 210.070312 C 345.964844 210.023438 345.363281 209.925781 344.757812 209.835938 L 344.304688 209.769531 L 342.917969 209.492188 C 342.300781 209.382812 341.710938 209.214844 341.105469 209.070312 C 340.5 208.925781 339.914062 208.746094 339.320312 208.578125 C 338.136719 208.246094 336.972656 207.878906 335.804688 207.558594 C 335.222656 207.386719 334.640625 207.234375 334.058594 207.089844 L 333.1875 206.871094 L 332.324219 206.699219 L 331.464844 206.527344 L 330.554688 206.417969 L 329.644531 206.304688 L 328.789062 206.253906 L 328.878906 206.253906 L 327.980469 206.308594 L 327.101562 206.417969 L 326.222656 206.523438 L 325.347656 206.695312 L 324.46875 206.871094 L 323.597656 207.089844 C 323.015625 207.234375 322.433594 207.386719 321.851562 207.558594 C 320.683594 207.878906 319.515625 208.242188 318.332031 208.578125 C 317.742188 208.746094 317.15625 208.925781 316.542969 209.070312 C 315.9375 209.21875 315.324219 209.390625 314.730469 209.496094 L 313.828125 209.675781 L 313.363281 209.765625 L 312.902344 209.835938 C 312.285156 209.925781 311.671875 210.023438 311.054688 210.070312 L 310.125 210.160156 L 309.199219 210.210938 C 308.582031 210.253906 307.960938 210.265625 307.34375 210.269531 C 306.726562 210.289062 306.109375 210.253906 305.492188 210.242188 C 304.875 210.234375 304.261719 210.179688 303.644531 210.140625 C 303.03125 210.097656 302.417969 210.023438 301.804688 209.964844 L 299.984375 209.714844 C 299.875 209.699219 299.800781 209.601562 299.816406 209.492188 C 299.828125 209.390625 299.917969 209.320312 300.019531 209.324219 " fill-opacity="1" fill-rule="nonzero"/></svg>