<svg xmlns="http://www.w3.org/2000/svg" xmlns:xlink="http://www.w3.org/1999/xlink" width="944" zoomAndPan="magnify" viewBox="0 0 708 566.999966" height="755" preserveAspectRatio="xMidYMid meet" version="1.0"><defs><clipPath id="id1"><path d="M 0 0 L 708 0 L 708 566.398438 L 0 566.398438 Z M 0 0 " clip-rule="nonzero"/></clipPath><clipPath id="id2"><path d="M 263.632812 212 L 267 212 L 267 216 L 263.632812 216 Z M 263.632812 212 " clip-rule="nonzero"/></clipPath><clipPath id="id3"><path d="M 263.632812 217 L 266 217 L 266 221 L 263.632812 221 Z M 263.632812 217 " clip-rule="nonzero"/></clipPath><clipPath id="id4"><path d="M 284 248 L 294 248 L 294 256.480469 L 284 256.480469 Z M 284 248 " clip-rule="nonzero"/></clipPath><clipPath id="id5"><path d="M 299 180.8125 L 339.046875 180.8125 L 339.046875 256.480469 L 299 256.480469 Z M 299 180.8125 " clip-rule="nonzero"/></clipPath><clipPath id="id6"><path d="M 332.933594 210 L 397.363281 210 L 397.363281 257.097656 L 332.933594 257.097656 Z M 332.933594 210 " clip-rule="nonzero"/></clipPath><clipPath id="id7"><path d="M 346 199.410156 L 384 199.410156 L 384 209 L 346 209 Z M 346 199.410156 " clip-rule="nonzero"/></clipPath></defs><rect x="-70.8" width="849.6" fill="#ffffff" y="-56.699997" height="680.399959" fill-opacity="1"/><path fill="#ffffff" d="M 0 0 L 708 0 L 708 566.398438 L 0 566.398438 Z M 0 0 " fill-opacity="1" fill-rule="nonzero"/><g clip-path="url(#id1)"><path fill="#ffffff" d="M 0 0 L 708 0 L 708 566.398438 L 0 566.398438 Z M 0 0 " fill-opacity="1" fill-rule="nonzero"/></g><path fill="#256b4e" d="M 274.214844 195.945312 C 273.976562 196.242188 273.625 196.359375 273.328125 196.359375 C 273.03125 196.359375 272.796875 196.242188 272.558594 196.0625 C 272.085938 195.652344 271.96875 194.882812 272.382812 194.410156 C 272.5 194.230469 272.617188 194.113281 272.796875 193.9375 C 273.210938 193.464844 273.976562 193.402344 274.453125 193.816406 C 274.925781 194.230469 274.984375 195 274.570312 195.472656 C 274.453125 195.652344 274.332031 195.828125 274.214844 195.945312 Z M 274.214844 195.945312 " fill-opacity="1" fill-rule="nonzero"/><g clip-path="url(#id2)"><path fill="#256b4e" d="M 265.289062 212.675781 C 265.9375 212.734375 266.410156 213.328125 266.292969 213.976562 C 266.292969 214.152344 266.234375 214.332031 266.234375 214.566406 C 266.175781 215.160156 265.644531 215.632812 265.050781 215.632812 C 264.992188 215.632812 264.933594 215.632812 264.933594 215.632812 C 264.28125 215.574219 263.808594 214.980469 263.871094 214.332031 C 263.871094 214.152344 263.929688 213.917969 263.929688 213.742188 C 264.046875 213.03125 264.636719 212.617188 265.289062 212.675781 Z M 265.289062 212.675781 " fill-opacity="1" fill-rule="nonzero"/></g><path fill="#256b4e" d="M 291.59375 184.535156 C 291.417969 184.59375 291.242188 184.65625 291.0625 184.714844 C 290.945312 184.773438 290.828125 184.773438 290.707031 184.773438 C 290.175781 184.773438 289.761719 184.417969 289.585938 183.945312 C 289.40625 183.296875 289.761719 182.644531 290.355469 182.46875 C 290.53125 182.410156 290.765625 182.347656 290.945312 182.289062 C 291.59375 182.113281 292.246094 182.46875 292.421875 183.117188 C 292.601562 183.707031 292.246094 184.359375 291.59375 184.535156 Z M 291.59375 184.535156 " fill-opacity="1" fill-rule="nonzero"/><path fill="#256b4e" d="M 295.675781 181.226562 C 295.851562 181.167969 296.089844 181.167969 296.265625 181.167969 C 296.914062 181.109375 297.507812 181.523438 297.625 182.171875 C 297.683594 182.820312 297.269531 183.414062 296.621094 183.53125 C 296.441406 183.53125 296.265625 183.589844 296.027344 183.589844 C 295.96875 183.589844 295.910156 183.589844 295.851562 183.589844 C 295.261719 183.589844 294.789062 183.175781 294.667969 182.585938 C 294.609375 181.933594 295.082031 181.34375 295.675781 181.226562 Z M 295.675781 181.226562 " fill-opacity="1" fill-rule="nonzero"/><path fill="#256b4e" d="M 285.269531 184.476562 C 285.445312 184.417969 285.625 184.300781 285.800781 184.242188 C 286.394531 183.945312 287.101562 184.242188 287.339844 184.832031 C 287.632812 185.421875 287.339844 186.132812 286.746094 186.371094 C 286.570312 186.429688 286.394531 186.546875 286.214844 186.605469 C 286.097656 186.664062 285.921875 186.722656 285.742188 186.722656 C 285.328125 186.722656 284.855469 186.488281 284.679688 186.074219 C 284.441406 185.421875 284.679688 184.714844 285.269531 184.476562 Z M 285.269531 184.476562 " fill-opacity="1" fill-rule="nonzero"/><path fill="#256b4e" d="M 271.199219 200.144531 C 270.964844 200.5 270.609375 200.734375 270.195312 200.734375 C 269.957031 200.734375 269.78125 200.675781 269.605469 200.558594 C 269.070312 200.203125 268.894531 199.492188 269.191406 198.902344 C 269.308594 198.726562 269.425781 198.546875 269.484375 198.371094 C 269.839844 197.835938 270.550781 197.660156 271.140625 198.015625 C 271.671875 198.371094 271.851562 199.078125 271.496094 199.671875 C 271.4375 199.789062 271.316406 199.964844 271.199219 200.144531 Z M 271.199219 200.144531 " fill-opacity="1" fill-rule="nonzero"/><path fill="#256b4e" d="M 267.355469 208.953125 C 267.296875 209.128906 267.238281 209.304688 267.179688 209.484375 C 267.0625 210.015625 266.589844 210.371094 266.058594 210.371094 C 265.9375 210.371094 265.878906 210.371094 265.761719 210.3125 C 265.109375 210.132812 264.757812 209.484375 264.933594 208.894531 C 264.992188 208.714844 265.050781 208.480469 265.109375 208.300781 C 265.289062 207.652344 265.9375 207.296875 266.589844 207.472656 C 267.121094 207.710938 267.535156 208.359375 267.355469 208.953125 Z M 267.355469 208.953125 " fill-opacity="1" fill-rule="nonzero"/><path fill="#256b4e" d="M 269.070312 204.164062 C 269.011719 204.339844 268.894531 204.519531 268.835938 204.695312 C 268.65625 205.167969 268.183594 205.40625 267.769531 205.40625 C 267.59375 205.40625 267.476562 205.347656 267.296875 205.285156 C 266.707031 205.050781 266.410156 204.339844 266.707031 203.75 C 266.765625 203.570312 266.882812 203.394531 266.945312 203.21875 C 267.238281 202.625 267.890625 202.332031 268.480469 202.625 C 269.070312 202.863281 269.367188 203.570312 269.070312 204.164062 Z M 269.070312 204.164062 " fill-opacity="1" fill-rule="nonzero"/><path fill="#256b4e" d="M 265.050781 223.257812 C 265.703125 223.140625 266.292969 223.613281 266.410156 224.261719 C 266.410156 224.441406 266.46875 224.617188 266.53125 224.796875 C 266.648438 225.445312 266.234375 226.035156 265.582031 226.15625 C 265.523438 226.15625 265.464844 226.15625 265.40625 226.15625 C 264.816406 226.15625 264.34375 225.742188 264.222656 225.148438 C 264.164062 224.972656 264.164062 224.734375 264.105469 224.558594 C 263.988281 223.96875 264.460938 223.375 265.050781 223.257812 Z M 265.050781 223.257812 " fill-opacity="1" fill-rule="nonzero"/><path fill="#256b4e" d="M 267.890625 233.425781 C 268.480469 233.128906 269.191406 233.367188 269.484375 233.957031 C 269.542969 234.136719 269.664062 234.3125 269.722656 234.492188 C 270.015625 235.082031 269.78125 235.792969 269.191406 236.085938 C 269.011719 236.144531 268.835938 236.203125 268.65625 236.203125 C 268.242188 236.203125 267.832031 235.96875 267.59375 235.554688 C 267.476562 235.378906 267.417969 235.199219 267.296875 235.023438 C 267.0625 234.429688 267.296875 233.722656 267.890625 233.425781 Z M 267.890625 233.425781 " fill-opacity="1" fill-rule="nonzero"/><path fill="#256b4e" d="M 270.371094 238.15625 C 270.902344 237.800781 271.671875 237.917969 272.027344 238.453125 C 272.144531 238.628906 272.265625 238.746094 272.324219 238.925781 C 272.679688 239.457031 272.558594 240.226562 272.027344 240.578125 C 271.851562 240.699219 271.613281 240.816406 271.378906 240.816406 C 271.023438 240.816406 270.609375 240.636719 270.429688 240.285156 C 270.3125 240.105469 270.195312 239.929688 270.078125 239.8125 C 269.722656 239.21875 269.839844 238.511719 270.371094 238.15625 Z M 270.371094 238.15625 " fill-opacity="1" fill-rule="nonzero"/><path fill="#256b4e" d="M 275.21875 242.472656 C 275.339844 242.589844 275.457031 242.765625 275.632812 242.886719 C 276.105469 243.359375 276.046875 244.125 275.574219 244.539062 C 275.339844 244.777344 275.042969 244.835938 274.746094 244.835938 C 274.453125 244.835938 274.097656 244.71875 273.859375 244.480469 C 273.742188 244.304688 273.566406 244.1875 273.445312 244.007812 C 273.03125 243.535156 273.03125 242.765625 273.503906 242.351562 C 274.039062 242 274.746094 242 275.21875 242.472656 Z M 275.21875 242.472656 " fill-opacity="1" fill-rule="nonzero"/><path fill="#256b4e" d="M 283.082031 248.972656 C 283.257812 249.09375 283.378906 249.152344 283.554688 249.269531 C 284.144531 249.625 284.324219 250.332031 283.96875 250.867188 C 283.734375 251.21875 283.378906 251.457031 282.964844 251.457031 C 282.785156 251.457031 282.550781 251.398438 282.371094 251.28125 C 282.195312 251.160156 282.019531 251.101562 281.839844 250.984375 C 281.308594 250.628906 281.132812 249.921875 281.425781 249.386719 C 281.839844 248.855469 282.550781 248.679688 283.082031 248.972656 Z M 283.082031 248.972656 " fill-opacity="1" fill-rule="nonzero"/><g clip-path="url(#id3)"><path fill="#256b4e" d="M 264.816406 217.9375 C 265.464844 217.9375 265.996094 218.46875 265.996094 219.121094 C 265.996094 219.296875 265.996094 219.476562 265.996094 219.710938 C 265.996094 220.363281 265.523438 220.894531 264.875 220.953125 C 264.875 220.953125 264.875 220.953125 264.816406 220.953125 C 264.164062 220.953125 263.632812 220.421875 263.632812 219.828125 C 263.632812 219.652344 263.632812 219.414062 263.632812 219.238281 C 263.632812 218.46875 264.164062 217.9375 264.816406 217.9375 Z M 264.816406 217.9375 " fill-opacity="1" fill-rule="nonzero"/></g><path fill="#256b4e" d="M 266.117188 228.460938 C 266.765625 228.28125 267.417969 228.636719 267.59375 229.230469 C 267.652344 229.40625 267.710938 229.582031 267.769531 229.761719 C 267.949219 230.351562 267.652344 231.0625 267.003906 231.238281 C 266.882812 231.296875 266.765625 231.296875 266.648438 231.296875 C 266.175781 231.296875 265.703125 231.003906 265.523438 230.46875 C 265.464844 230.292969 265.40625 230.058594 265.347656 229.878906 C 265.167969 229.289062 265.464844 228.636719 266.117188 228.460938 Z M 266.117188 228.460938 " fill-opacity="1" fill-rule="nonzero"/><path fill="#256b4e" d="M 276.164062 190.507812 C 276.34375 190.390625 276.460938 190.210938 276.636719 190.09375 C 277.113281 189.679688 277.878906 189.738281 278.292969 190.210938 C 278.707031 190.683594 278.648438 191.453125 278.175781 191.867188 C 278.058594 191.984375 277.878906 192.105469 277.761719 192.222656 C 277.523438 192.398438 277.230469 192.515625 276.992188 192.515625 C 276.699219 192.515625 276.34375 192.398438 276.105469 192.105469 C 275.632812 191.691406 275.691406 190.921875 276.164062 190.507812 Z M 276.164062 190.507812 " fill-opacity="1" fill-rule="nonzero"/><path fill="#256b4e" d="M 278.945312 246.019531 C 279.0625 246.136719 279.238281 246.253906 279.417969 246.371094 C 279.949219 246.785156 280.007812 247.496094 279.59375 248.027344 C 279.359375 248.324219 279.003906 248.5 278.648438 248.5 C 278.414062 248.5 278.117188 248.441406 277.9375 248.265625 C 277.761719 248.148438 277.644531 248.027344 277.464844 247.910156 C 276.933594 247.496094 276.875 246.726562 277.289062 246.253906 C 277.644531 245.664062 278.414062 245.605469 278.945312 246.019531 Z M 278.945312 246.019531 " fill-opacity="1" fill-rule="nonzero"/><path fill="#256b4e" d="M 280.480469 187.136719 C 280.660156 187.019531 280.835938 186.902344 281.011719 186.78125 C 281.546875 186.429688 282.3125 186.605469 282.667969 187.136719 C 283.023438 187.667969 282.847656 188.4375 282.3125 188.792969 C 282.136719 188.910156 282.019531 189.03125 281.839844 189.089844 C 281.664062 189.207031 281.425781 189.265625 281.191406 189.265625 C 280.835938 189.265625 280.421875 189.089844 280.1875 188.734375 C 279.832031 188.261719 279.949219 187.492188 280.480469 187.136719 Z M 280.480469 187.136719 " fill-opacity="1" fill-rule="nonzero"/><path fill="#256b4e" d="M 288.582031 252.992188 C 288.402344 253.46875 287.929688 253.703125 287.457031 253.703125 C 287.28125 253.703125 287.160156 253.703125 286.984375 253.585938 L 286.6875 253.46875 C 286.097656 253.230469 285.800781 252.519531 286.039062 251.929688 C 286.273438 251.339844 286.984375 251.042969 287.574219 251.28125 L 287.8125 251.398438 C 288.582031 251.695312 288.875 252.402344 288.582031 252.992188 Z M 288.582031 252.992188 " fill-opacity="1" fill-rule="nonzero"/><g clip-path="url(#id4)"><path fill="#256b4e" d="M 285.980469 254.117188 L 290.117188 253.644531 L 288.046875 249.921875 C 287.753906 249.328125 287.929688 248.621094 288.519531 248.324219 C 289.113281 248.027344 289.820312 248.207031 290.117188 248.796875 L 293.015625 254.058594 C 293.191406 254.414062 293.191406 254.828125 293.015625 255.179688 C 292.835938 255.535156 292.480469 255.773438 292.066406 255.832031 L 286.15625 256.480469 C 286.097656 256.480469 286.039062 256.480469 286.039062 256.480469 C 285.445312 256.480469 284.914062 256.007812 284.855469 255.417969 C 284.855469 254.769531 285.328125 254.175781 285.980469 254.117188 Z M 285.980469 254.117188 " fill-opacity="1" fill-rule="nonzero"/></g><g clip-path="url(#id5)"><path fill="#256b4e" d="M 300.875 250.570312 C 301.527344 250.570312 302.058594 251.101562 302.058594 251.753906 L 302.058594 254.117188 C 311.164062 253.941406 319.5 250.332031 325.707031 244.539062 L 324.050781 242.886719 C 323.578125 242.414062 323.578125 241.703125 324.050781 241.230469 C 324.523438 240.757812 325.234375 240.757812 325.707031 241.230469 L 327.359375 242.886719 C 333.035156 236.796875 336.640625 228.695312 336.878906 219.828125 L 334.574219 219.828125 C 333.921875 219.828125 333.390625 219.296875 333.390625 218.648438 C 333.390625 217.996094 333.921875 217.464844 334.574219 217.464844 L 336.878906 217.464844 C 336.582031 208.597656 333.035156 200.5 327.300781 194.410156 C 327.300781 194.410156 325.648438 196.0625 325.648438 196.0625 C 325.171875 196.539062 324.40625 196.539062 323.992188 196.0625 C 323.519531 195.589844 323.519531 194.882812 323.992188 194.410156 L 325.707031 192.753906 C 319.5 186.960938 311.164062 183.355469 302.058594 183.175781 L 302.058594 185.542969 C 302.058594 186.191406 301.527344 186.722656 300.875 186.722656 C 300.226562 186.722656 299.695312 186.191406 299.695312 185.542969 L 299.695312 181.996094 C 299.695312 181.34375 300.226562 180.8125 300.875 180.8125 C 300.9375 180.8125 301.46875 180.8125 301.46875 180.8125 C 322.335938 180.8125 339.300781 197.777344 339.300781 218.648438 C 339.300781 239.515625 322.335938 256.480469 301.46875 256.480469 C 301.347656 256.480469 300.996094 256.480469 300.875 256.480469 C 300.226562 256.480469 299.695312 255.949219 299.695312 255.300781 L 299.695312 251.753906 C 299.695312 251.101562 300.226562 250.570312 300.875 250.570312 Z M 300.875 250.570312 " fill-opacity="1" fill-rule="nonzero"/></g><path fill="#256b4e" d="M 306.609375 213.742188 L 321.507812 203.511719 C 322.039062 203.160156 322.808594 203.277344 323.164062 203.808594 C 323.519531 204.339844 323.398438 205.109375 322.867188 205.464844 L 307.910156 215.691406 C 307.617188 214.980469 307.144531 214.332031 306.609375 213.742188 Z M 306.609375 213.742188 " fill-opacity="1" fill-rule="nonzero"/><path fill="#256b4e" d="M 314.945312 233.425781 C 314.652344 233.425781 314.355469 233.308594 314.117188 233.128906 L 305.488281 224.5 C 306.136719 224.027344 306.730469 223.496094 307.203125 222.84375 L 315.773438 231.417969 C 316.246094 231.890625 316.246094 232.597656 315.773438 233.070312 C 315.597656 233.308594 315.300781 233.425781 314.945312 233.425781 Z M 314.945312 233.425781 " fill-opacity="1" fill-rule="nonzero"/><path fill="#256b4e" d="M 301.46875 213.917969 C 304.070312 213.917969 306.195312 216.046875 306.195312 218.648438 C 306.195312 221.25 304.070312 223.375 301.46875 223.375 C 298.867188 223.375 296.738281 221.25 296.738281 218.648438 C 296.738281 216.046875 298.867188 213.917969 301.46875 213.917969 Z M 301.46875 221.011719 C 302.769531 221.011719 303.832031 219.949219 303.832031 218.648438 C 303.832031 217.347656 302.769531 216.28125 301.46875 216.28125 C 300.167969 216.28125 299.101562 217.347656 299.101562 218.648438 C 299.101562 219.949219 300.167969 221.011719 301.46875 221.011719 Z M 301.46875 221.011719 " fill-opacity="1" fill-rule="nonzero"/><g clip-path="url(#id6)"><path fill="#256b4e" d="M 341.101562 257.097656 L 389.195312 257.097656 C 389.734375 257.097656 390.261719 257.046875 390.789062 256.941406 C 391.3125 256.839844 391.824219 256.683594 392.320312 256.480469 C 392.8125 256.273438 393.285156 256.023438 393.730469 255.722656 C 394.175781 255.425781 394.585938 255.085938 394.964844 254.707031 C 395.34375 254.324219 395.683594 253.914062 395.980469 253.464844 C 396.277344 253.019531 396.527344 252.546875 396.734375 252.050781 C 396.9375 251.554688 397.09375 251.042969 397.195312 250.515625 C 397.300781 249.988281 397.351562 249.457031 397.351562 248.917969 L 397.351562 219.128906 C 397.351562 218.589844 397.300781 218.058594 397.195312 217.53125 C 397.09375 217.003906 396.9375 216.492188 396.734375 215.996094 C 396.527344 215.5 396.277344 215.027344 395.980469 214.578125 C 395.683594 214.132812 395.34375 213.71875 394.964844 213.339844 C 394.585938 212.960938 394.175781 212.621094 393.730469 212.324219 C 393.285156 212.023438 392.8125 211.773438 392.320312 211.566406 C 391.824219 211.363281 391.3125 211.207031 390.789062 211.101562 C 390.261719 211 389.734375 210.945312 389.195312 210.945312 L 385.851562 210.945312 C 385.546875 210.945312 385.25 211.003906 384.96875 211.121094 C 384.6875 211.238281 384.441406 211.40625 384.222656 211.625 C 384.007812 211.839844 383.84375 212.089844 383.726562 212.371094 C 383.609375 212.65625 383.550781 212.949219 383.550781 213.253906 L 383.550781 217.871094 C 383.550781 218.175781 383.492188 218.46875 383.375 218.753906 C 383.257812 219.035156 383.09375 219.285156 382.875 219.5 C 382.660156 219.71875 382.410156 219.882812 382.128906 220 C 381.847656 220.117188 381.554688 220.175781 381.25 220.175781 C 380.945312 220.175781 380.652344 220.117188 380.371094 220 C 380.089844 219.882812 379.839844 219.71875 379.625 219.5 C 379.40625 219.285156 379.242188 219.035156 379.125 218.753906 C 379.007812 218.46875 378.949219 218.175781 378.949219 217.871094 L 378.949219 213.253906 C 378.949219 212.949219 378.890625 212.65625 378.773438 212.371094 C 378.65625 212.089844 378.492188 211.839844 378.277344 211.625 C 378.058594 211.40625 377.8125 211.238281 377.53125 211.121094 C 377.25 211.003906 376.953125 210.945312 376.648438 210.945312 L 353.648438 210.945312 C 353.34375 210.945312 353.050781 211.003906 352.769531 211.121094 C 352.484375 211.238281 352.238281 211.40625 352.023438 211.625 C 351.804688 211.839844 351.640625 212.089844 351.523438 212.371094 C 351.40625 212.65625 351.347656 212.949219 351.347656 213.253906 L 351.347656 217.871094 C 351.347656 218.175781 351.289062 218.46875 351.171875 218.753906 C 351.054688 219.035156 350.890625 219.285156 350.675781 219.5 C 350.457031 219.71875 350.210938 219.882812 349.929688 220 C 349.644531 220.117188 349.351562 220.175781 349.046875 220.175781 C 348.742188 220.175781 348.449219 220.117188 348.167969 220 C 347.886719 219.882812 347.636719 219.71875 347.421875 219.5 C 347.207031 219.285156 347.039062 219.035156 346.921875 218.753906 C 346.804688 218.46875 346.746094 218.175781 346.746094 217.871094 L 346.746094 213.253906 C 346.746094 212.949219 346.691406 212.65625 346.574219 212.371094 C 346.457031 212.089844 346.289062 211.839844 346.074219 211.625 C 345.859375 211.40625 345.609375 211.238281 345.328125 211.121094 C 345.046875 211.003906 344.753906 210.945312 344.449219 210.945312 L 341.101562 210.945312 C 340.566406 210.945312 340.035156 211 339.507812 211.101562 C 338.984375 211.207031 338.472656 211.363281 337.980469 211.566406 C 337.484375 211.773438 337.011719 212.023438 336.566406 212.324219 C 336.121094 212.621094 335.710938 212.960938 335.332031 213.339844 C 334.953125 213.71875 334.613281 214.132812 334.316406 214.578125 C 334.019531 215.027344 333.769531 215.5 333.566406 215.996094 C 333.359375 216.492188 333.207031 217.003906 333.101562 217.53125 C 332.996094 218.058594 332.945312 218.589844 332.945312 219.128906 L 332.945312 248.917969 C 332.945312 249.457031 332.996094 249.988281 333.101562 250.515625 C 333.207031 251.042969 333.359375 251.554688 333.566406 252.050781 C 333.769531 252.546875 334.019531 253.019531 334.316406 253.464844 C 334.613281 253.914062 334.953125 254.324219 335.332031 254.707031 C 335.710938 255.085938 336.121094 255.425781 336.566406 255.722656 C 337.011719 256.023438 337.484375 256.273438 337.980469 256.480469 C 338.472656 256.683594 338.984375 256.839844 339.507812 256.941406 C 340.035156 257.046875 340.566406 257.097656 341.101562 257.097656 Z M 354.902344 227.355469 C 355.09375 227.160156 355.320312 227.105469 355.582031 227.191406 L 366.105469 230.722656 C 366.4375 230.832031 366.773438 230.847656 367.117188 230.765625 C 367.457031 230.6875 367.753906 230.519531 368 230.273438 L 370.613281 227.652344 C 371.492188 226.796875 372.527344 226.230469 373.71875 225.945312 C 373.84375 225.914062 373.972656 225.898438 374.105469 225.902344 C 374.234375 225.902344 374.363281 225.921875 374.488281 225.957031 C 374.617188 225.992188 374.734375 226.042969 374.847656 226.109375 C 374.960938 226.175781 375.066406 226.253906 375.15625 226.347656 C 375.25 226.441406 375.328125 226.542969 375.394531 226.65625 C 375.460938 226.769531 375.511719 226.890625 375.546875 227.015625 C 375.582031 227.144531 375.601562 227.273438 375.601562 227.402344 C 375.605469 227.535156 375.589844 227.664062 375.558594 227.792969 C 375.261719 229 374.675781 230.042969 373.796875 230.917969 L 371.1875 233.539062 C 370.9375 233.789062 370.773438 234.082031 370.695312 234.425781 C 370.613281 234.769531 370.628906 235.109375 370.738281 235.441406 L 374.257812 246 C 374.308594 246.152344 374.304688 246.304688 374.246094 246.453125 C 374.1875 246.605469 374.085938 246.71875 373.945312 246.796875 C 373.804688 246.875 373.65625 246.898438 373.496094 246.867188 C 373.339844 246.835938 373.210938 246.757812 373.109375 246.632812 L 366.4375 238.441406 C 366.390625 238.390625 366.34375 238.390625 366.300781 238.441406 C 365.699219 239.234375 364.980469 239.902344 364.148438 240.449219 L 361.355469 241.707031 C 361.210938 241.777344 361.101562 241.886719 361.027344 242.027344 C 360.953125 242.171875 360.925781 242.320312 360.953125 242.480469 L 361.527344 245.941406 C 361.550781 246.097656 361.519531 246.246094 361.441406 246.382812 C 361.363281 246.519531 361.25 246.617188 361.101562 246.675781 C 360.957031 246.730469 360.808594 246.738281 360.65625 246.691406 C 360.503906 246.644531 360.386719 246.554688 360.296875 246.425781 L 358.15625 243.300781 L 355.039062 241.152344 C 354.910156 241.0625 354.820312 240.941406 354.773438 240.792969 C 354.730469 240.640625 354.734375 240.492188 354.792969 240.34375 C 354.851562 240.195312 354.949219 240.082031 355.082031 240.003906 C 355.21875 239.921875 355.367188 239.894531 355.523438 239.917969 L 358.972656 240.496094 C 359.132812 240.519531 359.28125 240.496094 359.425781 240.417969 C 359.566406 240.34375 359.671875 240.234375 359.742188 240.089844 L 359.949219 239.664062 C 360.757812 237.992188 361.8125 236.496094 363.113281 235.175781 L 363.113281 235.039062 L 354.949219 228.347656 C 354.792969 228.222656 354.710938 228.0625 354.699219 227.863281 C 354.6875 227.664062 354.75 227.496094 354.890625 227.355469 Z M 354.902344 227.355469 " fill-opacity="1" fill-rule="nonzero"/></g><g clip-path="url(#id7)"><path fill="#256b4e" d="M 353.648438 199.410156 C 353.195312 199.410156 352.746094 199.453125 352.300781 199.542969 C 351.859375 199.632812 351.425781 199.761719 351.007812 199.9375 C 350.589844 200.109375 350.191406 200.324219 349.816406 200.574219 C 349.4375 200.828125 349.089844 201.117188 348.769531 201.4375 C 348.449219 201.757812 348.164062 202.109375 347.910156 202.484375 C 347.660156 202.863281 347.445312 203.261719 347.273438 203.683594 C 347.101562 204.101562 346.96875 204.535156 346.878906 204.980469 C 346.792969 205.425781 346.746094 205.878906 346.746094 206.332031 C 346.746094 206.636719 346.804688 206.933594 346.921875 207.214844 C 347.039062 207.496094 347.207031 207.746094 347.421875 207.964844 C 347.636719 208.179688 347.886719 208.347656 348.167969 208.464844 C 348.449219 208.582031 348.742188 208.640625 349.046875 208.640625 C 349.351562 208.640625 349.644531 208.582031 349.929688 208.464844 C 350.210938 208.347656 350.457031 208.179688 350.675781 207.964844 C 350.890625 207.746094 351.054688 207.496094 351.171875 207.214844 C 351.289062 206.933594 351.347656 206.636719 351.347656 206.332031 C 351.347656 206.027344 351.40625 205.730469 351.523438 205.449219 C 351.640625 205.167969 351.804688 204.917969 352.023438 204.699219 C 352.238281 204.484375 352.484375 204.316406 352.769531 204.199219 C 353.050781 204.082031 353.34375 204.023438 353.648438 204.023438 L 376.648438 204.023438 C 376.953125 204.023438 377.25 204.082031 377.53125 204.199219 C 377.8125 204.316406 378.058594 204.484375 378.277344 204.699219 C 378.492188 204.917969 378.65625 205.167969 378.773438 205.449219 C 378.890625 205.730469 378.949219 206.027344 378.949219 206.332031 C 378.949219 206.636719 379.007812 206.933594 379.125 207.214844 C 379.242188 207.496094 379.40625 207.746094 379.625 207.964844 C 379.839844 208.179688 380.089844 208.347656 380.371094 208.464844 C 380.652344 208.582031 380.945312 208.640625 381.25 208.640625 C 381.554688 208.640625 381.847656 208.582031 382.128906 208.464844 C 382.410156 208.347656 382.660156 208.179688 382.875 207.964844 C 383.09375 207.746094 383.257812 207.496094 383.375 207.214844 C 383.492188 206.933594 383.550781 206.636719 383.550781 206.332031 C 383.550781 205.878906 383.507812 205.425781 383.417969 204.980469 C 383.328125 204.535156 383.199219 204.101562 383.023438 203.683594 C 382.851562 203.261719 382.640625 202.863281 382.386719 202.484375 C 382.136719 202.109375 381.847656 201.757812 381.527344 201.4375 C 381.207031 201.117188 380.859375 200.828125 380.484375 200.574219 C 380.105469 200.324219 379.710938 200.109375 379.289062 199.9375 C 378.871094 199.761719 378.441406 199.632812 377.996094 199.542969 C 377.550781 199.453125 377.101562 199.410156 376.648438 199.410156 Z M 353.648438 199.410156 " fill-opacity="1" fill-rule="nonzero"/></g></svg>