<svg xmlns="http://www.w3.org/2000/svg" xmlns:xlink="http://www.w3.org/1999/xlink" width="944" zoomAndPan="magnify" viewBox="0 0 708 566.999966" height="755" preserveAspectRatio="xMidYMid meet" version="1.0"><defs><clipPath id="id1"><path d="M 0 0 L 708 0 L 708 566.398438 L 0 566.398438 Z M 0 0 " clip-rule="nonzero"/></clipPath><clipPath id="id2"><path d="M 317.488281 240 L 383.417969 240 L 383.417969 266.679688 L 317.488281 266.679688 Z M 317.488281 240 " clip-rule="nonzero"/></clipPath><clipPath id="id3"><path d="M 362 242 L 383.417969 242 L 383.417969 266.679688 L 362 266.679688 Z M 362 242 " clip-rule="nonzero"/></clipPath><clipPath id="id4"><path d="M 332 240 L 354 240 L 354 266.679688 L 332 266.679688 Z M 332 240 " clip-rule="nonzero"/></clipPath><clipPath id="id5"><path d="M 339 205.992188 L 368 205.992188 L 368 253 L 339 253 Z M 339 205.992188 " clip-rule="nonzero"/></clipPath></defs><rect x="-70.8" width="849.6" fill="#ffffff" y="-56.699997" height="680.399959" fill-opacity="1"/><path fill="#ffffff" d="M 0 0 L 708 0 L 708 566.398438 L 0 566.398438 Z M 0 0 " fill-opacity="1" fill-rule="nonzero"/><g clip-path="url(#id1)"><path fill="#ffffff" d="M 0 0 L 708 0 L 708 566.398438 L 0 566.398438 Z M 0 0 " fill-opacity="1" fill-rule="nonzero"/></g><g clip-path="url(#id2)"><path fill="#329947" d="M 328.925781 246.039062 C 328.15625 246.375 327.191406 247.597656 326.539062 248.644531 L 318.164062 262.03125 C 317.511719 263.078125 317.8125 263.773438 318.582031 263.445312 L 332.726562 257.441406 C 332.984375 257.800781 343.769531 266.679688 344.136719 266.542969 L 362.953125 259.6875 C 363.351562 259.785156 380.339844 265.660156 381.367188 265.96875 C 382.664062 266.363281 383.394531 265.808594 383.375 264.414062 L 383.175781 250.632812 C 383.15625 249.238281 383.375 247.96875 382.101562 247.511719 C 380.191406 246.828125 369.257812 242.203125 368.789062 242.371094 C 365.929688 243.402344 353.019531 248.054688 353.019531 248.054688 C 351 246.550781 342.324219 240.742188 341.945312 240.476562 C 341.804688 240.375 341.34375 240.417969 340.691406 240.640625 C 339.207031 241.140625 330.425781 245.390625 328.925781 246.039062 Z M 328.925781 246.039062 " fill-opacity="1" fill-rule="evenodd"/></g><g clip-path="url(#id3)"><path fill="#256b4e" d="M 362.96875 259.691406 C 363.609375 259.875 380.351562 265.664062 381.367188 265.96875 L 381.429688 265.988281 L 381.484375 266.003906 L 381.546875 266.019531 L 381.601562 266.035156 L 381.660156 266.042969 L 381.714844 266.058594 L 381.773438 266.066406 L 381.828125 266.074219 L 381.878906 266.082031 L 381.933594 266.085938 L 382.035156 266.09375 L 382.183594 266.09375 L 382.324219 266.082031 L 382.367188 266.074219 L 382.410156 266.0625 L 382.453125 266.054688 L 382.539062 266.03125 L 382.578125 266.019531 L 382.65625 265.988281 L 382.691406 265.96875 L 382.726562 265.953125 L 382.730469 265.953125 L 382.765625 265.933594 L 382.796875 265.910156 L 382.800781 265.910156 L 382.863281 265.863281 L 382.898438 265.839844 L 382.929688 265.8125 L 382.957031 265.78125 L 383.015625 265.722656 L 383.042969 265.691406 L 383.066406 265.660156 L 383.09375 265.625 L 383.117188 265.589844 L 383.136719 265.550781 L 383.160156 265.511719 L 383.179688 265.472656 L 383.199219 265.429688 L 383.21875 265.390625 L 383.234375 265.347656 L 383.253906 265.300781 L 383.269531 265.257812 L 383.28125 265.210938 L 383.296875 265.160156 L 383.332031 265.007812 L 383.355469 264.84375 L 383.363281 264.785156 L 383.371094 264.667969 L 383.375 264.605469 L 383.375 264.414062 L 383.175781 250.632812 C 383.15625 249.238281 383.375 247.96875 382.101562 247.511719 C 380.191406 246.828125 369.257812 242.203125 368.789062 242.371094 Z M 362.96875 259.691406 " fill-opacity="1" fill-rule="evenodd"/></g><g clip-path="url(#id4)"><path fill="#256b4e" d="M 332.726562 257.441406 C 332.980469 257.792969 343.320312 266.304688 344.097656 266.539062 L 344.136719 266.542969 L 353.019531 248.054688 C 351 246.550781 342.324219 240.742188 341.945312 240.476562 Z M 332.726562 257.441406 " fill-opacity="1" fill-rule="evenodd"/></g><g clip-path="url(#id5)"><path fill="#256b4e" d="M 353.042969 252.113281 L 353.648438 252.113281 C 353.835938 251.304688 354.671875 249.855469 355.054688 249.09375 L 359.613281 239.761719 C 361.691406 235.589844 363.648438 231.46875 365.710938 227.34375 C 368.085938 222.578125 368.511719 217.90625 365.703125 213.046875 C 363.484375 209.203125 358.859375 205.992188 354.25 205.992188 C 350.808594 205.992188 348.441406 206.320312 345.601562 208.203125 C 343.679688 209.480469 342.296875 210.871094 341.0625 212.921875 C 338.148438 217.761719 338.550781 222.46875 340.980469 227.34375 C 341.335938 228.054688 352.820312 251.15625 353.042969 252.113281 Z M 353.042969 252.113281 " fill-opacity="1" fill-rule="evenodd"/></g><path fill="#fa7876" d="M 355.253906 214.703125 C 358.496094 214.703125 361.121094 217.335938 361.121094 220.582031 C 361.121094 223.828125 358.496094 226.460938 355.253906 226.460938 C 352.011719 226.460938 349.386719 223.828125 349.386719 220.582031 C 349.386719 217.335938 352.011719 214.703125 355.253906 214.703125 Z M 355.253906 214.703125 " fill-opacity="1" fill-rule="evenodd"/><path fill="#fad55c" d="M 353.335938 213.566406 C 356.574219 213.566406 359.203125 216.195312 359.203125 219.445312 C 359.203125 222.691406 356.574219 225.324219 353.335938 225.324219 C 350.09375 225.324219 347.464844 222.691406 347.464844 219.445312 C 347.464844 216.195312 350.09375 213.566406 353.335938 213.566406 Z M 353.335938 213.566406 " fill-opacity="1" fill-rule="evenodd"/><path fill="#256b4e" d="M 307.273438 196.355469 C 309.460938 195.390625 312.269531 196.648438 313.046875 198.898438 C 315.078125 203.917969 317.070312 208.960938 319.125 213.976562 C 320.734375 213.976562 322.601562 213.8125 323.835938 215.070312 C 326.300781 217.207031 324.917969 220.753906 325.464844 223.554688 L 325.464844 249.199219 C 324.902344 251.972656 326.34375 255.644531 323.835938 257.726562 C 322.484375 259.078125 320.460938 258.800781 318.726562 258.820312 C 300.410156 258.792969 282.089844 258.820312 263.773438 258.808594 C 261.757812 258.917969 259.929688 257.40625 259.375 255.519531 C 259.328125 253.449219 259.230469 249.304688 259.179688 247.230469 L 259.179688 223.722656 C 259.660156 220.589844 258.214844 216.257812 261.683594 214.402344 C 276.863281 208.351562 292.078125 202.371094 307.273438 196.355469 Z M 262.230469 217.039062 C 262 218.742188 262.074219 220.464844 262.078125 222.183594 C 282.246094 222.195312 302.410156 222.191406 322.574219 222.1875 C 322.558594 220.800781 322.609375 219.417969 322.542969 218.035156 C 322.65625 217.308594 322.082031 216.703125 321.359375 216.753906 C 303.210938 216.71875 285.066406 216.75 266.921875 216.738281 C 265.351562 216.707031 263.765625 216.675781 262.230469 217.039062 Z M 262.078125 233.324219 C 262.089844 240.46875 262.046875 247.613281 262.09375 254.757812 C 261.9375 255.792969 263.015625 256.179688 263.855469 256.0625 C 282.84375 256.054688 301.832031 256.0625 320.824219 256.0625 C 321.640625 256.167969 322.703125 255.785156 322.542969 254.765625 C 322.601562 247.617188 322.550781 240.464844 322.5625 233.320312 C 302.402344 233.324219 282.238281 233.324219 262.078125 233.324219 Z M 262.078125 233.324219 " fill-opacity="1" fill-rule="nonzero"/><path fill="#256b4e" d="M 302.359375 247.894531 C 300.878906 244.863281 303.21875 241.136719 306.367188 240.460938 C 307.921875 240.050781 309.515625 240.621094 310.804688 241.472656 C 311.894531 240.972656 312.96875 240.316406 314.207031 240.324219 C 317.179688 240.292969 319.898438 242.988281 319.851562 245.953125 C 319.753906 248.839844 317.101562 251.410156 314.191406 251.371094 C 312.972656 251.367188 311.894531 250.726562 310.835938 250.195312 C 308.085938 252.507812 303.660156 251.113281 302.359375 247.894531 Z M 304.667969 245.972656 C 304.507812 248.265625 307.570312 249.449219 309.207031 248.03125 C 308.621094 246.566406 308.710938 245 309.191406 243.523438 C 307.316406 242.34375 304.347656 243.546875 304.667969 245.972656 Z M 312.773438 243.417969 C 310.820312 244.675781 311.265625 248.160156 313.644531 248.554688 C 315.550781 249.097656 317.5 247.386719 317.066406 245.421875 C 316.996094 243.34375 314.410156 242.519531 312.773438 243.417969 Z M 312.773438 243.417969 " fill-opacity="1" fill-rule="nonzero"/><path fill="#256b4e" d="M 267.855469 244.558594 C 274.898438 244.375 281.957031 244.503906 289.011719 244.5 C 290.777344 244.363281 290.796875 247.386719 288.988281 247.207031 C 282.085938 247.230469 275.179688 247.261719 268.277344 247.195312 C 266.832031 247.265625 266.519531 245 267.855469 244.558594 Z M 267.855469 244.558594 " fill-opacity="1" fill-rule="nonzero"/><path fill="#256b4e" d="M 267.855469 248.746094 C 274.898438 248.558594 281.957031 248.6875 289.011719 248.683594 C 290.777344 248.550781 290.796875 251.570312 288.988281 251.390625 C 282.085938 251.414062 275.179688 251.445312 268.277344 251.378906 C 266.832031 251.453125 266.519531 249.183594 267.855469 248.746094 Z M 267.855469 248.746094 " fill-opacity="1" fill-rule="nonzero"/><path fill="#256b4e" d="M 267.855469 239.597656 C 274.898438 239.410156 281.957031 239.539062 289.011719 239.535156 C 290.777344 239.402344 290.796875 242.421875 288.988281 242.242188 C 282.085938 242.269531 275.179688 242.296875 268.277344 242.230469 C 266.832031 242.304688 266.519531 240.035156 267.855469 239.597656 Z M 267.855469 239.597656 " fill-opacity="1" fill-rule="nonzero"/></svg>