<svg xmlns="http://www.w3.org/2000/svg" xmlns:xlink="http://www.w3.org/1999/xlink" width="944" zoomAndPan="magnify" viewBox="0 0 708 566.999966" height="755" preserveAspectRatio="xMidYMid meet" version="1.0"><defs><clipPath id="id1"><path d="M 0 0 L 708 0 L 708 566.398438 L 0 566.398438 Z M 0 0 " clip-rule="nonzero"/></clipPath><clipPath id="id2"><path d="M 392 177 L 397 177 L 397 182.46875 L 392 182.46875 Z M 392 177 " clip-rule="nonzero"/></clipPath><clipPath id="id3"><path d="M 397 90.316406 L 426 90.316406 L 426 95 L 397 95 Z M 397 90.316406 " clip-rule="nonzero"/></clipPath><clipPath id="id4"><path d="M 425 142 L 434 142 L 434 182.46875 L 425 182.46875 Z M 425 142 " clip-rule="nonzero"/></clipPath><clipPath id="id5"><path d="M 386.398438 105 L 436 105 L 436 177 L 386.398438 177 Z M 386.398438 105 " clip-rule="nonzero"/></clipPath><clipPath id="id6"><path d="M 435 142 L 466 142 L 466 182.46875 L 435 182.46875 Z M 435 142 " clip-rule="nonzero"/></clipPath><clipPath id="id7"><path d="M 466 142 L 475.554688 142 L 475.554688 182.46875 L 466 182.46875 Z M 466 142 " clip-rule="nonzero"/></clipPath><clipPath id="id8"><path d="M 475.277344 84.164062 L 531 84.164062 L 531 189.800781 L 475.277344 189.800781 Z M 475.277344 84.164062 " clip-rule="nonzero"/></clipPath><clipPath id="id9"><path d="M 475.277344 84.164062 L 531 84.164062 L 531 189.800781 L 475.277344 189.800781 Z M 475.277344 84.164062 " clip-rule="nonzero"/></clipPath></defs><rect x="-70.8" width="849.6" fill="#ffffff" y="-56.699997" height="680.399959" fill-opacity="1"/><path fill="#ffffff" d="M 0 0 L 708 0 L 708 566.398438 L 0 566.398438 Z M 0 0 " fill-opacity="1" fill-rule="nonzero"/><g clip-path="url(#id1)"><path fill="#ffffff" d="M 0 0 L 708 0 L 708 566.398438 L 0 566.398438 Z M 0 0 " fill-opacity="1" fill-rule="nonzero"/></g><g clip-path="url(#id2)"><path fill="#256b4e" d="M 392.855469 177.394531 L 392.855469 180.597656 C 392.855469 181.585938 393.660156 182.390625 394.648438 182.390625 C 395.636719 182.390625 396.441406 181.585938 396.441406 180.597656 L 396.441406 177.699219 L 395.308594 177.699219 C 394.460938 177.699219 393.644531 177.585938 392.855469 177.394531 Z M 392.855469 177.394531 " fill-opacity="1" fill-rule="nonzero"/></g><path fill="#256b4e" d="M 399.761719 95.523438 L 401.753906 95.523438 L 401.753906 104.285156 L 399.761719 104.285156 Z M 399.761719 95.523438 " fill-opacity="1" fill-rule="nonzero"/><path fill="#256b4e" d="M 420.449219 95.523438 L 422.441406 95.523438 L 422.441406 104.285156 L 420.449219 104.285156 Z M 420.449219 95.523438 " fill-opacity="1" fill-rule="nonzero"/><g clip-path="url(#id3)"><path fill="#256b4e" d="M 398.722656 94.011719 L 423.480469 94.011719 C 424.324219 94.011719 425.007812 93.328125 425.007812 92.488281 L 425.007812 91.917969 C 425.007812 91.074219 424.324219 90.390625 423.480469 90.390625 L 398.722656 90.390625 C 397.882812 90.390625 397.195312 91.074219 397.195312 91.917969 L 397.195312 92.488281 C 397.195312 93.328125 397.882812 94.011719 398.722656 94.011719 Z M 398.722656 94.011719 " fill-opacity="1" fill-rule="nonzero"/></g><path fill="#256b4e" d="M 443.433594 139.695312 C 443.433594 137.964844 444.84375 136.554688 446.578125 136.554688 L 454.171875 136.554688 C 455.90625 136.554688 457.316406 137.964844 457.316406 139.695312 L 457.316406 140.636719 L 459.230469 140.636719 L 459.230469 138.34375 C 459.230469 136.523438 457.75 135.042969 455.933594 135.042969 L 444.820312 135.042969 C 443 135.042969 441.519531 136.523438 441.519531 138.34375 L 441.519531 140.636719 L 443.433594 140.636719 Z M 443.433594 139.695312 " fill-opacity="1" fill-rule="nonzero"/><path fill="#256b4e" d="M 414.867188 102.683594 L 407.339844 102.683594 C 406.804688 102.683594 406.296875 102.953125 405.945312 103.421875 L 405.296875 104.285156 L 416.910156 104.285156 L 416.261719 103.421875 C 415.910156 102.953125 415.402344 102.683594 414.867188 102.683594 Z M 414.867188 102.683594 " fill-opacity="1" fill-rule="nonzero"/><g clip-path="url(#id4)"><path fill="#256b4e" d="M 425.175781 147.472656 L 425.175781 176.738281 C 425.195312 176.804688 425.21875 176.871094 425.21875 176.945312 C 425.21875 177.007812 425.195312 177.058594 425.183594 177.117188 C 425.265625 179.980469 427.617188 182.289062 430.503906 182.289062 L 433.910156 182.289062 L 433.910156 142.144531 L 430.503906 142.144531 C 427.566406 142.144531 425.175781 144.535156 425.175781 147.472656 Z M 425.175781 147.472656 " fill-opacity="1" fill-rule="nonzero"/></g><g clip-path="url(#id5)"><path fill="#256b4e" d="M 426.074219 142.277344 L 426.074219 113.648438 C 426.074219 112.449219 427.046875 111.476562 428.246094 111.476562 C 429.445312 111.476562 430.417969 112.449219 430.417969 113.648438 L 430.417969 140.640625 C 430.449219 140.640625 430.476562 140.636719 430.503906 140.636719 L 435.804688 140.636719 L 435.804688 114.699219 C 435.804688 109.785156 431.808594 105.792969 426.894531 105.792969 L 395.308594 105.792969 C 390.398438 105.792969 386.398438 109.789062 386.398438 114.699219 L 386.398438 167.285156 C 386.398438 172.195312 390.398438 176.191406 395.308594 176.191406 L 423.667969 176.191406 L 423.667969 147.472656 C 423.667969 145.394531 424.601562 143.53125 426.074219 142.277344 Z M 395.671875 167.648438 C 395.671875 168.714844 394.808594 169.578125 393.742188 169.578125 L 393.257812 169.578125 C 392.191406 169.578125 391.328125 168.714844 391.328125 167.648438 L 391.328125 113.410156 C 391.328125 112.34375 392.191406 111.476562 393.257812 111.476562 L 393.742188 111.476562 C 394.808594 111.476562 395.671875 112.34375 395.671875 113.410156 Z M 404.472656 167.648438 C 404.472656 168.714844 403.609375 169.578125 402.542969 169.578125 L 402.058594 169.578125 C 400.992188 169.578125 400.128906 168.714844 400.128906 167.648438 L 400.128906 113.410156 C 400.128906 112.34375 400.992188 111.476562 402.058594 111.476562 L 402.542969 111.476562 C 403.609375 111.476562 404.472656 112.34375 404.472656 113.410156 Z M 413.277344 167.648438 C 413.277344 168.714844 412.410156 169.578125 411.34375 169.578125 L 410.863281 169.578125 C 409.792969 169.578125 408.929688 168.714844 408.929688 167.648438 L 408.929688 113.410156 C 408.929688 112.34375 409.792969 111.476562 410.863281 111.476562 L 411.34375 111.476562 C 412.410156 111.476562 413.277344 112.34375 413.277344 113.410156 Z M 421.617188 167.648438 C 421.617188 168.714844 420.753906 169.578125 419.6875 169.578125 L 419.203125 169.578125 C 418.136719 169.578125 417.269531 168.714844 417.269531 167.648438 L 417.269531 113.410156 C 417.269531 112.34375 418.136719 111.476562 419.203125 111.476562 L 419.6875 111.476562 C 420.753906 111.476562 421.617188 112.34375 421.617188 113.410156 Z M 421.617188 167.648438 " fill-opacity="1" fill-rule="nonzero"/></g><g clip-path="url(#id6)"><path fill="#256b4e" d="M 435.417969 142.144531 L 465.328125 142.144531 L 465.328125 182.289062 L 435.417969 182.289062 Z M 435.417969 142.144531 " fill-opacity="1" fill-rule="nonzero"/></g><g clip-path="url(#id7)"><path fill="#256b4e" d="M 470.246094 142.144531 L 466.839844 142.144531 L 466.839844 182.289062 L 470.246094 182.289062 C 473.183594 182.289062 475.574219 179.898438 475.574219 176.960938 L 475.574219 147.472656 C 475.574219 144.535156 473.183594 142.144531 470.246094 142.144531 Z M 470.246094 142.144531 " fill-opacity="1" fill-rule="nonzero"/></g><g clip-path="url(#id8)"><path fill="#000000" d="M 501.316406 90.660156 C 501.332031 90.929688 501.449219 91.171875 501.632812 91.335938 C 501.625 91.382812 501.621094 91.421875 501.621094 91.46875 C 501.621094 91.46875 501.621094 102.421875 501.621094 107.289062 C 501.621094 107.335938 501.625 107.375 501.632812 107.414062 C 499.007812 107.5625 496.445312 107.976562 495.058594 109.953125 C 494.734375 109.957031 494.410156 109.957031 494.082031 109.964844 L 494.023438 109.964844 C 494.089844 103.816406 494.671875 97.675781 494.726562 91.519531 C 494.789062 91.40625 494.824219 91.265625 494.839844 91.117188 C 494.871094 90.550781 494.855469 89.992188 494.84375 89.425781 C 495.972656 89.253906 497.097656 89.300781 498.25 89.332031 C 499.234375 89.359375 500.25 89.175781 501.234375 89.269531 C 501.253906 89.730469 501.285156 90.191406 501.316406 90.660156 Z M 529.894531 116.078125 C 529.933594 115.886719 529.925781 115.671875 529.808594 115.449219 C 528.609375 113.195312 528.214844 112.75 525.699219 111.910156 C 522.546875 110.851562 519.488281 109.769531 516.175781 109.339844 C 515.101562 109.191406 514.015625 109.207031 512.910156 109.277344 C 511.761719 107.390625 509.703125 107.058594 507.386719 107.105469 C 507.421875 103.25 507.269531 99.375 507.132812 95.515625 C 507.046875 93.203125 507.398438 88.804688 505.871094 86.847656 C 504.445312 85.027344 501.457031 84.703125 499.3125 84.484375 C 496.140625 84.164062 492.933594 85.191406 490.191406 86.675781 C 489.976562 86.792969 489.847656 86.949219 489.789062 87.125 C 489.652344 87.265625 489.5625 87.441406 489.53125 87.664062 C 488.558594 95.113281 489.207031 102.597656 489.179688 110.082031 C 485.074219 110.269531 480.667969 110.925781 478.113281 113.71875 C 475.285156 116.8125 476.132812 122.046875 476.316406 125.8125 C 476.953125 139.058594 475.316406 152.351562 475.625 165.601562 C 475.71875 169.59375 476.054688 174.101562 478.3125 177.535156 C 478.703125 178.128906 479.199219 178.648438 479.753906 179.109375 C 479.671875 179.261719 479.617188 179.425781 479.585938 179.601562 C 479.339844 179.5625 479.09375 179.5625 478.863281 179.609375 C 478.59375 179.59375 478.320312 179.679688 478.109375 179.925781 C 477.609375 180.238281 477.210938 180.738281 477.019531 181.289062 C 476.554688 182.617188 477.59375 184.117188 478.84375 184.519531 C 480.589844 185.085938 482.519531 183.066406 482.433594 181.441406 C 482.464844 181.425781 482.492188 181.421875 482.523438 181.410156 C 482.742188 181.3125 482.914062 181.152344 483.046875 180.972656 C 484.511719 181.539062 486.121094 181.925781 487.707031 182.21875 C 487.726562 182.804688 487.832031 183.378906 488.039062 183.894531 C 487.886719 183.933594 487.738281 183.988281 487.601562 184.054688 C 487.5625 184.078125 487.53125 184.105469 487.492188 184.128906 C 487.167969 184.261719 486.855469 184.4375 486.59375 184.664062 C 485.941406 185.21875 485.703125 185.992188 485.894531 186.703125 C 485.878906 186.902344 485.878906 187.097656 485.902344 187.292969 C 486.085938 188.6875 487.199219 189.816406 488.660156 189.597656 C 489.574219 189.464844 490.351562 188.855469 490.851562 188.085938 C 491.15625 187.695312 491.324219 187.230469 491.378906 186.753906 C 491.449219 186.324219 491.425781 185.898438 491.300781 185.507812 C 492.5 185.304688 493.492188 184.507812 493.773438 183.292969 C 494.515625 183.480469 495.296875 183.59375 496.09375 183.660156 C 499.660156 183.953125 503.753906 183.605469 507.273438 183.003906 C 511.492188 182.289062 515.675781 181.136719 519.859375 180.253906 C 520.53125 180.109375 521.21875 179.980469 521.902344 179.84375 C 521.414062 180.84375 521.546875 182.234375 522.101562 183.34375 C 522.277344 184.175781 522.769531 184.835938 523.652344 184.953125 C 523.707031 184.980469 523.777344 185.007812 523.84375 185.023438 C 524.296875 185.164062 524.792969 185.15625 525.320312 184.945312 C 526.554688 184.4375 527.386719 183.074219 527.347656 181.757812 C 528.710938 180.820312 529.183594 179.125 528.613281 177.597656 C 528.875 177.429688 529.132812 177.25 529.382812 177.046875 C 531.382812 175.464844 530.28125 171.535156 530.289062 169.433594 C 530.296875 164.3125 530.398438 159.1875 530.351562 154.074219 C 530.246094 144.1875 530.398438 134.441406 530.792969 124.5625 C 530.917969 121.347656 531.042969 118.261719 529.894531 116.078125 " fill-opacity="1" fill-rule="nonzero"/></g><path fill="#4d4d4d" d="M 526.972656 178.457031 C 527.125 179.03125 526.972656 179.570312 526.585938 179.984375 C 526.304688 179.578125 525.929688 179.242188 525.503906 179 C 526.007812 178.84375 526.496094 178.664062 526.972656 178.457031 " fill-opacity="1" fill-rule="nonzero"/><path fill="#4d4d4d" d="M 525.269531 181.457031 C 525.433594 181.925781 524.875 182.925781 524.320312 183.167969 C 524.308594 183.160156 524.296875 183.160156 524.285156 183.15625 C 524.125 183.066406 523.984375 182.886719 523.863281 182.6875 C 523.855469 182.65625 523.851562 182.632812 523.851562 182.601562 C 523.820312 182.164062 523.898438 181.621094 524.195312 181.277344 C 524.445312 180.988281 524.859375 181.0625 525.171875 181.25 C 525.214844 181.324219 525.246094 181.390625 525.269531 181.457031 " fill-opacity="1" fill-rule="nonzero"/><path fill="#4d4d4d" d="M 502.980469 109.183594 C 505.4375 109.125 508.597656 108.28125 510.46875 109.515625 C 508.867188 109.703125 507.269531 109.917969 505.707031 109.921875 C 503.097656 109.933594 500.488281 109.910156 497.878906 109.917969 C 499.292969 109.199219 501.222656 109.234375 502.980469 109.183594 " fill-opacity="1" fill-rule="nonzero"/><path fill="#cccccc" d="M 505.058594 91.78125 C 505.613281 96.851562 505.617188 102.109375 505.550781 107.203125 C 504.851562 107.25 504.148438 107.304688 503.453125 107.34375 C 503.453125 107.324219 503.453125 107.304688 503.453125 107.289062 C 503.453125 102.507812 503.453125 97.148438 503.453125 91.769531 C 503.988281 91.800781 504.527344 91.808594 505.058594 91.78125 " fill-opacity="1" fill-rule="nonzero"/><path fill="#4d4d4d" d="M 495.292969 113.347656 C 495.316406 113.398438 495.335938 113.445312 495.359375 113.492188 C 491.394531 114.503906 486.636719 114.101562 484.75 118.539062 C 482.425781 124.019531 483.921875 130.53125 483.953125 136.285156 C 484 143.871094 483.519531 151.46875 483.480469 159.054688 C 483.457031 162.71875 483.867188 166.292969 484.207031 169.929688 C 484.519531 173.289062 484.574219 176.570312 485.441406 179.828125 C 485.289062 179.785156 485.136719 179.742188 484.984375 179.695312 C 484.945312 179.609375 484.898438 179.53125 484.824219 179.453125 C 483.410156 177.894531 483.570312 174.957031 483.484375 173 C 483.386719 170.789062 483.433594 168.570312 483.277344 166.355469 C 482.730469 158.941406 482.847656 151.488281 482.90625 144.058594 C 482.976562 136.945312 482.757812 129.816406 483.230469 122.71875 C 483.484375 118.933594 483.96875 115.835938 487.921875 114.484375 C 490.242188 113.6875 492.773438 113.726562 495.1875 113.359375 C 495.222656 113.359375 495.253906 113.351562 495.292969 113.347656 " fill-opacity="1" fill-rule="nonzero"/><path fill="#cccccc" d="M 490.96875 92.027344 C 491.601562 92.019531 492.25 91.925781 492.886719 91.933594 C 492.804688 97.960938 492.253906 103.972656 492.1875 110 C 491.804688 110.007812 491.410156 110.015625 491.015625 110.019531 C 491.039062 104.019531 490.628906 98.019531 490.96875 92.027344 " fill-opacity="1" fill-rule="nonzero"/><path fill="#4d4d4d" d="M 491.992188 182.886719 C 491.851562 183.699219 490.804688 183.855469 490.101562 183.660156 C 489.683594 183.542969 489.566406 183.007812 489.539062 182.535156 C 490.402344 182.664062 491.226562 182.777344 491.992188 182.886719 " fill-opacity="1" fill-rule="nonzero"/><path fill="#4d4d4d" d="M 489.582031 186.34375 C 489.589844 186.738281 489.335938 187.273438 488.925781 187.203125 C 487.832031 187.007812 488.171875 186.222656 488.769531 185.695312 C 488.769531 185.6875 488.785156 185.675781 488.792969 185.667969 C 489.03125 185.675781 489.257812 185.765625 489.429688 185.929688 C 489.511719 186.050781 489.574219 186.191406 489.582031 186.34375 " fill-opacity="1" fill-rule="nonzero"/><path fill="#4d4d4d" d="M 479.664062 182.101562 C 479.671875 182.171875 479.664062 182.234375 479.664062 182.304688 C 479.660156 182.265625 479.628906 182.339844 479.621094 182.390625 C 479.609375 182.398438 479.597656 182.40625 479.609375 182.414062 C 479.605469 182.414062 479.605469 182.414062 479.597656 182.414062 C 479.554688 182.421875 479.511719 182.421875 479.46875 182.421875 C 479.351562 182.421875 479.125 182.382812 479.058594 182.265625 C 478.964844 182.117188 479.136719 181.738281 479.320312 181.417969 C 479.335938 181.417969 479.335938 181.417969 479.339844 181.421875 C 479.34375 181.425781 479.359375 181.441406 479.375 181.457031 C 479.425781 181.5 479.445312 181.519531 479.457031 181.539062 C 479.457031 181.542969 479.460938 181.554688 479.480469 181.585938 C 479.632812 181.816406 479.574219 181.707031 479.644531 181.976562 C 479.644531 181.992188 479.660156 182.054688 479.664062 182.101562 " fill-opacity="1" fill-rule="nonzero"/><path fill="#4d4d4d" d="M 479.652344 182.382812 C 479.644531 182.390625 479.644531 182.398438 479.644531 182.398438 C 479.640625 182.398438 479.640625 182.398438 479.640625 182.398438 C 479.640625 182.398438 479.644531 182.390625 479.644531 182.382812 L 479.652344 182.382812 " fill-opacity="1" fill-rule="nonzero"/><path fill="#4d4d4d" d="M 479.640625 182.40625 L 479.640625 182.414062 C 479.632812 182.414062 479.632812 182.414062 479.628906 182.414062 C 479.632812 182.414062 479.632812 182.414062 479.640625 182.40625 " fill-opacity="1" fill-rule="nonzero"/><path fill="#4d4d4d" d="M 479.640625 182.414062 C 479.632812 182.414062 479.632812 182.421875 479.632812 182.421875 C 479.632812 182.421875 479.628906 182.421875 479.621094 182.425781 L 479.621094 182.421875 L 479.628906 182.414062 C 479.632812 182.414062 479.632812 182.414062 479.640625 182.414062 " fill-opacity="1" fill-rule="nonzero"/><path fill="#4d4d4d" d="M 504.882812 89.992188 C 504.296875 90.046875 503.695312 89.984375 503.101562 89.9375 C 503.074219 89.488281 503.050781 89.035156 503.046875 88.578125 C 503.046875 88.410156 503.003906 88.269531 502.941406 88.148438 C 502.863281 87.898438 502.664062 87.679688 502.324219 87.601562 C 500.96875 87.285156 499.613281 87.523438 498.25 87.507812 C 496.691406 87.492188 495.191406 87.425781 493.675781 87.800781 C 493.214844 87.914062 493.027344 88.257812 493.019531 88.617188 C 493.007812 88.683594 493 88.753906 493 88.835938 C 493 89.269531 493.015625 89.707031 493.015625 90.136719 C 492.378906 90.132812 491.746094 90.179688 491.101562 90.199219 C 491.160156 89.519531 491.226562 88.835938 491.3125 88.15625 C 493.851562 86.816406 496.421875 86.21875 499.3125 86.308594 C 500.597656 86.355469 501.804688 86.722656 503.011719 87.125 C 504.554688 87.648438 504.746094 88.664062 504.882812 89.992188 " fill-opacity="1" fill-rule="nonzero"/><path fill="#256b4e" d="M 523.460938 112.933594 C 520.554688 112.777344 517.527344 113.0625 514.636719 113.078125 C 510.019531 113.117188 505.445312 113.511719 500.84375 113.742188 C 499.464844 113.8125 497.996094 113.851562 496.570312 114.046875 C 496.570312 114.011719 496.570312 113.976562 496.554688 113.9375 C 496.390625 113.515625 496.203125 113.109375 495.988281 112.722656 C 496.003906 112.628906 496.003906 112.539062 495.988281 112.449219 C 496.042969 112.207031 496.113281 111.980469 496.195312 111.773438 C 501.203125 111.777344 506.25 112.105469 511.199219 111.539062 C 511.40625 111.515625 511.609375 111.492188 511.8125 111.472656 C 511.867188 111.667969 511.921875 111.871094 511.957031 112.097656 C 512.152344 113.25 513.925781 112.757812 513.726562 111.609375 C 513.707031 111.511719 513.691406 111.417969 513.671875 111.320312 C 515.820312 111.210938 517.78125 111.351562 520.121094 111.984375 C 521.1875 112.277344 522.34375 112.558594 523.460938 112.933594 " fill-opacity="1" fill-rule="nonzero"/><path fill="#256b4e" d="M 480.351562 173.601562 C 480.421875 173.546875 480.070312 173.183594 479.746094 172.480469 C 479.40625 171.746094 479.109375 170.609375 479.015625 169.152344 C 478.902344 167.6875 478.984375 165.9375 479.058594 163.960938 C 479.09375 161.96875 479.101562 159.816406 479.109375 157.535156 C 479.109375 152.984375 479.046875 148.867188 478.957031 145.878906 C 478.863281 142.898438 478.734375 141.054688 478.59375 141.054688 C 478.445312 141.054688 478.320312 142.898438 478.226562 145.878906 C 478.136719 148.867188 478.074219 152.984375 478.074219 157.535156 C 478.085938 159.8125 478.097656 161.976562 478.109375 163.941406 C 478.089844 165.902344 478.074219 167.714844 478.289062 169.222656 C 478.476562 170.738281 478.910156 171.941406 479.390625 172.671875 C 479.894531 173.421875 480.3125 173.625 480.351562 173.601562 Z M 480.441406 117.371094 C 481.125 115.855469 482.054688 115.261719 481.960938 115.121094 C 481.921875 115.066406 481.648438 115.144531 481.226562 115.433594 C 480.808594 115.714844 480.257812 116.242188 479.792969 117.03125 C 478.832031 118.59375 478.3125 121.074219 478.246094 123.738281 C 478.171875 126.421875 478.4375 128.8125 478.632812 130.53125 C 478.851562 132.246094 478.984375 133.289062 479.125 133.296875 C 479.273438 133.304688 479.390625 132.214844 479.359375 130.480469 C 479.34375 128.746094 479.203125 126.371094 479.28125 123.777344 C 479.34375 121.175781 479.726562 118.859375 480.441406 117.371094 Z M 491.277344 112.152344 C 487.609375 112.597656 483.734375 113.335938 482.332031 117.035156 C 481.148438 120.167969 481.289062 123.847656 481.179688 127.152344 C 481.03125 131.617188 481.125 136.085938 481.101562 140.554688 C 481.054688 149.550781 480.871094 158.546875 481.527344 167.523438 C 481.757812 170.703125 481.023438 175.203125 482.234375 178.527344 C 481.15625 177.917969 480.246094 177.144531 479.597656 176.160156 C 477.417969 172.847656 477.484375 168.015625 477.4375 164.214844 C 477.296875 153.351562 478.066406 142.453125 478.191406 131.582031 C 478.238281 127.351562 477.707031 123.179688 478.054688 118.964844 C 478.605469 112.34375 486.027344 112.160156 491.277344 112.152344 " fill-opacity="1" fill-rule="nonzero"/><path fill="#256b4e" d="M 493.773438 114.707031 C 492.824219 115.050781 491.9375 115.539062 491.160156 116.234375 C 487.804688 119.234375 489.496094 126.058594 489.582031 129.847656 C 489.691406 139.179688 488.390625 148.347656 489.445312 157.683594 C 489.921875 161.890625 489.683594 166.214844 489.699219 170.445312 C 489.703125 172.613281 489.675781 174.769531 489.582031 176.929688 C 489.527344 178.113281 489.414062 179.71875 490.085938 180.792969 C 488.902344 180.613281 487.671875 180.398438 486.46875 180.101562 C 485.589844 177.121094 485.398438 174.078125 485.207031 170.988281 C 484.996094 167.738281 484.511719 164.53125 484.421875 161.269531 C 484.230469 154.941406 484.574219 148.550781 484.75 142.222656 C 484.921875 136.289062 484.359375 130.390625 484.488281 124.476562 C 484.566406 120.871094 485.5 117.03125 489.226562 115.597656 C 490.660156 115.050781 492.230469 114.925781 493.773438 114.707031 " fill-opacity="1" fill-rule="nonzero"/><path fill="#256b4e" d="M 505.414062 117.492188 C 507.386719 117.394531 508.609375 117.265625 508.609375 117.125 C 508.609375 116.980469 507.386719 116.859375 505.398438 116.765625 C 504.902344 116.75 504.355469 116.726562 503.769531 116.707031 C 503.1875 116.710938 502.570312 116.726562 501.914062 116.730469 C 501.261719 116.75 500.574219 116.765625 499.863281 116.785156 C 499.503906 116.796875 499.140625 116.8125 498.769531 116.816406 C 498.4375 116.835938 498.082031 116.820312 497.707031 116.804688 C 496.96875 116.761719 496.203125 116.703125 495.421875 116.804688 C 495.238281 116.8125 495.015625 116.871094 494.808594 116.925781 C 494.703125 116.957031 494.59375 116.980469 494.5 117.011719 L 494.269531 117.121094 L 494.042969 117.230469 L 494.023438 117.234375 L 493.972656 117.261719 L 493.96875 117.265625 L 493.9375 117.289062 L 493.882812 117.328125 L 493.765625 117.40625 C 493.609375 117.511719 493.460938 117.621094 493.324219 117.753906 C 492.769531 118.238281 492.410156 118.878906 492.21875 119.480469 C 492.023438 120.082031 491.96875 120.652344 491.949219 121.167969 C 491.929688 122.1875 492.039062 122.980469 492.121094 123.527344 C 492.199219 124.0625 492.261719 124.371094 492.332031 124.371094 C 492.410156 124.371094 492.476562 124.074219 492.519531 123.511719 C 492.566406 122.960938 492.566406 122.164062 492.679688 121.222656 C 492.789062 120.292969 493.0625 119.179688 493.949219 118.464844 C 494.054688 118.367188 494.175781 118.289062 494.300781 118.207031 L 494.398438 118.148438 L 494.4375 118.117188 L 494.453125 118.113281 L 494.6875 118.011719 L 494.917969 117.910156 C 494.988281 117.886719 495.050781 117.886719 495.121094 117.871094 C 495.25 117.84375 495.371094 117.808594 495.542969 117.800781 C 496.179688 117.730469 496.894531 117.785156 497.652344 117.824219 C 498.039062 117.847656 498.429688 117.855469 498.828125 117.839844 C 499.195312 117.820312 499.550781 117.808594 499.90625 117.789062 C 500.617188 117.746094 501.300781 117.710938 501.957031 117.675781 C 502.605469 117.628906 503.230469 117.59375 503.804688 117.558594 C 504.386719 117.535156 504.925781 117.511719 505.414062 117.492188 Z M 529.074219 119.839844 C 529.199219 124.546875 528.734375 129.316406 528.507812 134.015625 C 528.042969 143.464844 528.585938 152.886719 528.507812 162.34375 C 528.476562 166.15625 528.492188 169.949219 528.640625 173.757812 C 528.765625 176.773438 524.140625 177.839844 520.515625 178.421875 C 520.144531 168.285156 520.074219 159.835938 519.941406 152.894531 C 519.835938 145.78125 519.761719 140.238281 519.703125 136.003906 C 519.648438 131.777344 519.609375 128.855469 519.546875 126.996094 C 519.492188 125.125 519.433594 124.324219 519.371094 124.324219 C 519.308594 124.324219 519.246094 125.125 519.191406 126.988281 C 519.136719 128.847656 519.074219 131.777344 519.050781 136.011719 C 519.046875 140.246094 519.039062 145.789062 519.089844 152.898438 C 519.183594 159.871094 519.214844 168.335938 519.601562 178.5625 C 518.625 178.714844 517.765625 178.828125 517.171875 178.957031 C 516.769531 179.042969 516.363281 179.132812 515.953125 179.226562 C 515.953125 178.277344 515.960938 177.261719 515.960938 176.359375 C 515.953125 175.734375 515.953125 175.066406 515.953125 174.457031 C 515.9375 173.84375 515.917969 173.207031 515.898438 172.605469 C 515.886719 171.40625 515.757812 170.214844 515.679688 169.070312 C 515.59375 167.9375 515.507812 166.824219 515.425781 165.75 C 515.332031 164.671875 515.3125 163.613281 515.28125 162.578125 C 515.25 161.550781 515.21875 160.542969 515.1875 159.5625 C 515.171875 157.597656 515.15625 155.730469 515.132812 153.964844 C 515.132812 146.894531 515.203125 141.378906 515.242188 137.167969 C 515.269531 132.957031 515.289062 130.046875 515.242188 128.195312 C 515.203125 126.34375 515.148438 125.539062 515.085938 125.539062 C 515.023438 125.539062 514.957031 126.34375 514.882812 128.195312 C 514.824219 130.042969 514.722656 132.949219 514.589844 137.15625 C 514.46875 141.363281 514.332031 146.882812 514.28125 153.964844 C 514.296875 155.734375 514.304688 157.605469 514.308594 159.574219 C 514.332031 160.558594 514.363281 161.570312 514.386719 162.609375 C 514.417969 163.644531 514.429688 164.710938 514.527344 165.796875 C 514.605469 166.886719 514.6875 168.007812 514.773438 169.152344 C 514.847656 170.277344 514.976562 171.425781 514.980469 172.613281 C 515 173.207031 515.019531 173.804688 515.039062 174.414062 C 515.039062 175.019531 515.039062 175.738281 515.042969 176.367188 C 515.039062 177.332031 515.039062 178.429688 515.039062 179.4375 C 512.300781 180.082031 509.539062 180.800781 506.769531 181.246094 C 506.457031 138.167969 506.15625 124.925781 505.902344 124.925781 C 505.652344 124.929688 505.542969 138.207031 505.84375 181.390625 C 505.257812 181.46875 504.664062 181.539062 504.074219 181.585938 C 503.375 181.640625 502.632812 181.714844 501.871094 181.78125 C 501.558594 138.277344 501.261719 124.925781 501.007812 124.925781 C 500.757812 124.929688 500.648438 138.304688 500.953125 181.859375 C 498.597656 182.046875 496.082031 182.117188 493.972656 181.457031 C 493.871094 181.371094 493.734375 181.308594 493.566406 181.28125 C 493.515625 181.269531 493.46875 181.261719 493.425781 181.257812 C 493.179688 181.167969 492.933594 181.058594 492.710938 180.941406 C 490.882812 179.992188 491.394531 177.4375 491.457031 175.832031 C 491.550781 173.679688 491.539062 171.523438 491.527344 169.375 C 491.511719 165.125 491.644531 160.855469 491.164062 156.625 C 490.15625 147.679688 491.519531 138.804688 491.417969 129.847656 C 491.332031 126.179688 490.609375 122.640625 491.65625 119.03125 C 492.6875 115.472656 497.890625 115.707031 500.84375 115.566406 C 508.265625 115.214844 515.667969 114.820312 523.109375 114.777344 C 525.277344 114.765625 526.953125 115.199219 527.96875 116.390625 L 527.882812 116.359375 C 527.679688 116.28125 527.46875 116.1875 527.242188 116.152344 C 527.027344 116.109375 526.789062 116.050781 526.582031 116.023438 C 526.378906 116.007812 526.167969 115.984375 525.96875 115.964844 C 522.605469 115.804688 519.632812 115.8125 517.417969 116.019531 C 516.867188 116.042969 516.390625 116.132812 515.96875 116.210938 C 515.535156 116.289062 515.171875 116.351562 514.878906 116.421875 C 514.28125 116.539062 513.953125 116.648438 513.964844 116.71875 C 513.972656 116.789062 514.3125 116.820312 514.921875 116.816406 C 515.226562 116.8125 515.597656 116.804688 516.03125 116.78125 C 516.464844 116.761719 516.953125 116.71875 517.488281 116.742188 C 519.609375 116.726562 522.621094 116.835938 525.871094 116.984375 C 526.074219 117.003906 526.277344 117.023438 526.480469 117.039062 C 526.679688 117.070312 526.835938 117.113281 527.007812 117.148438 C 527.1875 117.167969 527.347656 117.25 527.511719 117.300781 L 527.757812 117.386719 C 527.828125 117.429688 527.894531 117.472656 527.96875 117.515625 C 528.375 117.746094 528.695312 118.058594 528.917969 118.433594 C 529.003906 118.859375 529.058594 119.320312 529.074219 119.839844 " fill-opacity="1" fill-rule="nonzero"/><g clip-path="url(#id9)"><path fill="#000000" d="M 482.332031 117.035156 C 483.734375 113.335938 487.609375 112.597656 491.277344 112.152344 C 486.027344 112.160156 478.605469 112.34375 478.054688 118.964844 C 477.707031 123.179688 478.238281 127.351562 478.191406 131.582031 C 478.066406 142.453125 477.296875 153.351562 477.4375 164.214844 C 477.484375 168.015625 477.417969 172.847656 479.597656 176.160156 C 480.246094 177.144531 481.15625 177.917969 482.234375 178.527344 C 481.023438 175.203125 481.757812 170.703125 481.527344 167.523438 C 480.871094 158.546875 481.054688 149.550781 481.101562 140.554688 C 481.125 136.085938 481.03125 131.617188 481.179688 127.152344 C 481.289062 123.847656 481.148438 120.167969 482.332031 117.035156 Z M 488.925781 187.203125 C 489.335938 187.273438 489.589844 186.738281 489.582031 186.34375 C 489.574219 186.191406 489.511719 186.050781 489.429688 185.929688 C 489.257812 185.765625 489.03125 185.675781 488.792969 185.667969 C 488.785156 185.675781 488.769531 185.6875 488.769531 185.695312 C 488.171875 186.222656 487.832031 187.007812 488.925781 187.203125 Z M 490.101562 183.660156 C 490.804688 183.855469 491.851562 183.699219 491.992188 182.886719 C 491.226562 182.777344 490.402344 182.664062 489.539062 182.535156 C 489.566406 183.007812 489.683594 183.542969 490.101562 183.660156 Z M 491.160156 116.234375 C 491.9375 115.539062 492.824219 115.050781 493.773438 114.707031 C 492.230469 114.925781 490.660156 115.050781 489.226562 115.597656 C 485.5 117.03125 484.566406 120.871094 484.488281 124.476562 C 484.359375 130.390625 484.921875 136.289062 484.75 142.222656 C 484.574219 148.550781 484.230469 154.941406 484.421875 161.269531 C 484.511719 164.53125 484.996094 167.738281 485.207031 170.988281 C 485.398438 174.078125 485.589844 177.121094 486.46875 180.101562 C 487.671875 180.398438 488.902344 180.613281 490.085938 180.792969 C 489.414062 179.71875 489.527344 178.113281 489.582031 176.929688 C 489.675781 174.769531 489.703125 172.613281 489.699219 170.445312 C 489.683594 166.214844 489.921875 161.890625 489.445312 157.683594 C 488.390625 148.347656 489.691406 139.179688 489.582031 129.847656 C 489.496094 126.058594 487.804688 119.234375 491.160156 116.234375 Z M 492.886719 91.933594 C 492.25 91.925781 491.601562 92.019531 490.96875 92.027344 C 490.628906 98.019531 491.039062 104.019531 491.015625 110.019531 C 491.410156 110.015625 491.804688 110.007812 492.1875 110 C 492.253906 103.972656 492.804688 97.960938 492.886719 91.933594 Z M 495.359375 113.492188 C 495.335938 113.445312 495.316406 113.398438 495.292969 113.347656 C 495.253906 113.351562 495.222656 113.359375 495.1875 113.359375 C 492.773438 113.726562 490.242188 113.6875 487.921875 114.484375 C 483.96875 115.835938 483.484375 118.933594 483.230469 122.71875 C 482.757812 129.816406 482.976562 136.945312 482.90625 144.058594 C 482.847656 151.488281 482.730469 158.941406 483.277344 166.355469 C 483.433594 168.570312 483.386719 170.789062 483.484375 173 C 483.570312 174.957031 483.410156 177.894531 484.824219 179.453125 C 484.898438 179.53125 484.945312 179.609375 484.984375 179.695312 C 485.136719 179.742188 485.289062 179.785156 485.441406 179.828125 C 484.574219 176.570312 484.519531 173.289062 484.207031 169.929688 C 483.867188 166.292969 483.457031 162.71875 483.480469 159.054688 C 483.519531 151.46875 484 143.871094 483.953125 136.285156 C 483.921875 130.53125 482.425781 124.019531 484.75 118.539062 C 486.636719 114.101562 491.394531 114.503906 495.359375 113.492188 Z M 501.621094 91.46875 C 501.621094 91.421875 501.625 91.382812 501.632812 91.335938 C 501.449219 91.171875 501.332031 90.929688 501.316406 90.660156 C 501.285156 90.191406 501.253906 89.730469 501.234375 89.269531 C 500.25 89.175781 499.234375 89.359375 498.25 89.332031 C 497.097656 89.300781 495.972656 89.253906 494.84375 89.425781 C 494.855469 89.992188 494.871094 90.550781 494.839844 91.117188 C 494.824219 91.265625 494.789062 91.40625 494.726562 91.519531 C 494.671875 97.675781 494.089844 103.816406 494.023438 109.964844 C 494.050781 109.964844 494.066406 109.964844 494.082031 109.964844 C 494.410156 109.957031 494.734375 109.957031 495.058594 109.953125 C 496.445312 107.976562 499.007812 107.5625 501.632812 107.414062 C 501.625 107.375 501.621094 107.335938 501.621094 107.289062 C 501.621094 102.421875 501.621094 91.46875 501.621094 91.46875 Z M 503.101562 89.9375 C 503.695312 89.984375 504.296875 90.046875 504.882812 89.992188 C 504.746094 88.664062 504.554688 87.648438 503.011719 87.125 C 501.804688 86.722656 500.597656 86.355469 499.3125 86.308594 C 496.421875 86.21875 493.851562 86.816406 491.3125 88.15625 C 491.226562 88.835938 491.160156 89.519531 491.101562 90.199219 C 491.746094 90.179688 492.378906 90.132812 493.015625 90.136719 C 493.015625 89.707031 493 89.269531 493 88.835938 C 493 88.753906 493.007812 88.683594 493.019531 88.617188 C 493.027344 88.257812 493.214844 87.914062 493.675781 87.800781 C 495.191406 87.425781 496.691406 87.492188 498.25 87.507812 C 499.613281 87.523438 500.96875 87.285156 502.324219 87.601562 C 502.664062 87.679688 502.863281 87.898438 502.941406 88.148438 C 503.003906 88.269531 503.046875 88.410156 503.046875 88.578125 C 503.050781 89.035156 503.074219 89.488281 503.101562 89.9375 Z M 505.550781 107.203125 C 505.617188 102.109375 505.613281 96.851562 505.058594 91.78125 C 504.527344 91.808594 503.988281 91.800781 503.453125 91.769531 C 503.453125 97.148438 503.453125 102.507812 503.453125 107.289062 C 503.453125 107.304688 503.453125 107.324219 503.453125 107.34375 C 504.148438 107.304688 504.851562 107.25 505.550781 107.203125 Z M 510.46875 109.515625 C 508.597656 108.28125 505.4375 109.125 502.980469 109.183594 C 501.222656 109.234375 499.292969 109.199219 497.878906 109.917969 C 500.488281 109.910156 503.097656 109.933594 505.707031 109.921875 C 507.269531 109.917969 508.867188 109.703125 510.46875 109.515625 Z M 514.636719 113.078125 C 517.527344 113.0625 520.554688 112.777344 523.460938 112.933594 C 522.34375 112.558594 521.1875 112.277344 520.121094 111.984375 C 517.78125 111.351562 515.820312 111.210938 513.671875 111.320312 C 513.691406 111.417969 513.707031 111.511719 513.726562 111.609375 C 513.925781 112.757812 512.152344 113.25 511.957031 112.097656 C 511.921875 111.871094 511.867188 111.667969 511.8125 111.472656 C 511.609375 111.492188 511.40625 111.515625 511.199219 111.539062 C 506.25 112.105469 501.203125 111.777344 496.195312 111.773438 C 496.113281 111.980469 496.042969 112.207031 495.988281 112.449219 C 496.003906 112.539062 496.003906 112.628906 495.988281 112.722656 C 496.203125 113.109375 496.390625 113.515625 496.554688 113.9375 C 496.570312 113.976562 496.570312 114.011719 496.570312 114.046875 C 497.996094 113.851562 499.464844 113.8125 500.84375 113.742188 C 505.445312 113.511719 510.019531 113.117188 514.636719 113.078125 Z M 524.320312 183.167969 C 524.875 182.925781 525.433594 181.925781 525.269531 181.457031 C 525.246094 181.390625 525.214844 181.324219 525.171875 181.25 C 524.859375 181.0625 524.445312 180.988281 524.195312 181.277344 C 523.898438 181.621094 523.820312 182.164062 523.851562 182.601562 C 523.851562 182.632812 523.855469 182.65625 523.863281 182.6875 C 523.984375 182.886719 524.125 183.066406 524.285156 183.15625 C 524.296875 183.160156 524.308594 183.160156 524.320312 183.167969 Z M 526.585938 179.984375 C 526.972656 179.570312 527.125 179.03125 526.972656 178.457031 C 526.496094 178.664062 526.007812 178.84375 525.503906 179 C 525.929688 179.242188 526.304688 179.578125 526.585938 179.984375 Z M 528.507812 134.015625 C 528.734375 129.316406 529.199219 124.546875 529.074219 119.839844 C 529.058594 119.320312 529.003906 118.859375 528.917969 118.433594 C 528.695312 118.058594 528.375 117.746094 527.96875 117.515625 C 527.894531 117.472656 527.828125 117.429688 527.757812 117.386719 L 527.511719 117.300781 C 527.347656 117.25 527.1875 117.167969 527.007812 117.148438 C 526.835938 117.113281 526.679688 117.070312 526.480469 117.039062 C 526.277344 117.023438 526.074219 117.003906 525.871094 116.984375 C 522.621094 116.835938 519.609375 116.726562 517.488281 116.742188 C 516.953125 116.71875 516.464844 116.761719 516.03125 116.78125 C 515.597656 116.804688 515.226562 116.8125 514.921875 116.816406 C 514.3125 116.820312 513.972656 116.789062 513.964844 116.71875 C 513.953125 116.648438 514.28125 116.539062 514.878906 116.421875 C 515.171875 116.351562 515.535156 116.289062 515.96875 116.210938 C 516.390625 116.132812 516.867188 116.042969 517.417969 116.019531 C 519.632812 115.8125 522.605469 115.804688 525.96875 115.964844 C 526.167969 115.984375 526.378906 116.007812 526.582031 116.023438 C 526.789062 116.050781 527.027344 116.109375 527.242188 116.152344 C 527.46875 116.1875 527.679688 116.28125 527.882812 116.359375 L 527.96875 116.390625 C 526.953125 115.199219 525.277344 114.765625 523.109375 114.777344 C 515.667969 114.820312 508.265625 115.214844 500.84375 115.566406 C 497.890625 115.707031 492.6875 115.472656 491.65625 119.03125 C 490.609375 122.640625 491.332031 126.179688 491.417969 129.847656 C 491.519531 138.804688 490.15625 147.679688 491.164062 156.625 C 491.644531 160.855469 491.511719 165.125 491.527344 169.375 C 491.539062 171.523438 491.550781 173.679688 491.457031 175.832031 C 491.394531 177.4375 490.882812 179.992188 492.710938 180.941406 C 492.933594 181.058594 493.179688 181.167969 493.425781 181.257812 C 493.46875 181.261719 493.515625 181.269531 493.566406 181.28125 C 493.734375 181.308594 493.871094 181.371094 493.972656 181.457031 C 496.082031 182.117188 498.597656 182.046875 500.953125 181.859375 C 500.648438 138.304688 500.757812 124.929688 501.007812 124.925781 C 501.261719 124.925781 501.558594 138.277344 501.871094 181.78125 C 502.632812 181.714844 503.375 181.640625 504.074219 181.585938 C 504.664062 181.539062 505.257812 181.46875 505.84375 181.390625 C 505.542969 138.207031 505.652344 124.929688 505.902344 124.925781 C 506.15625 124.925781 506.457031 138.167969 506.769531 181.246094 C 509.539062 180.800781 512.300781 180.082031 515.039062 179.4375 C 515.039062 178.429688 515.039062 177.332031 515.042969 176.367188 C 515.039062 175.738281 515.039062 175.019531 515.039062 174.414062 C 515.019531 173.804688 515 173.207031 514.980469 172.613281 C 514.976562 171.425781 514.847656 170.277344 514.773438 169.152344 C 514.6875 168.007812 514.605469 166.886719 514.527344 165.796875 C 514.429688 164.710938 514.417969 163.644531 514.386719 162.609375 C 514.363281 161.570312 514.332031 160.558594 514.308594 159.574219 C 514.304688 157.605469 514.296875 155.734375 514.28125 153.964844 C 514.332031 146.882812 514.46875 141.363281 514.589844 137.15625 C 514.722656 132.949219 514.824219 130.042969 514.882812 128.195312 C 514.957031 126.34375 515.023438 125.539062 515.085938 125.539062 C 515.148438 125.539062 515.203125 126.34375 515.242188 128.195312 C 515.289062 130.046875 515.269531 132.957031 515.242188 137.167969 C 515.203125 141.378906 515.132812 146.894531 515.132812 153.964844 C 515.15625 155.730469 515.171875 157.597656 515.1875 159.5625 C 515.21875 160.542969 515.25 161.550781 515.28125 162.578125 C 515.3125 163.613281 515.332031 164.671875 515.425781 165.75 C 515.507812 166.824219 515.59375 167.9375 515.679688 169.070312 C 515.757812 170.214844 515.886719 171.40625 515.898438 172.605469 C 515.917969 173.207031 515.9375 173.84375 515.953125 174.457031 C 515.953125 175.066406 515.953125 175.734375 515.960938 176.359375 C 515.960938 177.261719 515.953125 178.277344 515.953125 179.226562 C 516.363281 179.132812 516.769531 179.042969 517.171875 178.957031 C 517.765625 178.828125 518.625 178.714844 519.601562 178.5625 C 519.214844 168.335938 519.183594 159.871094 519.089844 152.898438 C 519.039062 145.789062 519.046875 140.246094 519.050781 136.011719 C 519.074219 131.777344 519.136719 128.847656 519.191406 126.988281 C 519.246094 125.125 519.308594 124.324219 519.371094 124.324219 C 519.433594 124.324219 519.492188 125.125 519.546875 126.996094 C 519.609375 128.855469 519.648438 131.777344 519.703125 136.003906 C 519.761719 140.238281 519.835938 145.78125 519.941406 152.894531 C 520.074219 159.835938 520.144531 168.285156 520.515625 178.421875 C 524.140625 177.839844 528.765625 176.773438 528.640625 173.757812 C 528.492188 169.949219 528.476562 166.15625 528.507812 162.34375 C 528.585938 152.886719 528.042969 143.464844 528.507812 134.015625 Z M 529.894531 116.078125 C 531.042969 118.261719 530.917969 121.347656 530.792969 124.5625 C 530.398438 134.441406 530.246094 144.1875 530.351562 154.074219 C 530.398438 159.1875 530.296875 164.3125 530.289062 169.433594 C 530.28125 171.535156 531.382812 175.464844 529.382812 177.046875 C 529.132812 177.25 528.875 177.429688 528.613281 177.597656 C 529.183594 179.125 528.710938 180.820312 527.347656 181.757812 C 527.386719 183.074219 526.554688 184.4375 525.320312 184.945312 C 524.792969 185.15625 524.296875 185.164062 523.84375 185.023438 C 523.777344 185.007812 523.707031 184.980469 523.652344 184.953125 C 522.769531 184.835938 522.277344 184.175781 522.101562 183.34375 C 521.546875 182.234375 521.414062 180.84375 521.902344 179.84375 C 521.21875 179.980469 520.53125 180.109375 519.859375 180.253906 C 515.675781 181.136719 511.492188 182.289062 507.273438 183.003906 C 503.753906 183.605469 499.660156 183.953125 496.09375 183.660156 C 495.296875 183.59375 494.515625 183.480469 493.773438 183.292969 C 493.492188 184.507812 492.5 185.304688 491.300781 185.507812 C 491.425781 185.898438 491.449219 186.324219 491.378906 186.753906 C 491.324219 187.230469 491.15625 187.695312 490.851562 188.085938 C 490.351562 188.855469 489.574219 189.464844 488.660156 189.597656 C 487.199219 189.816406 486.082031 188.6875 485.902344 187.292969 C 485.878906 187.097656 485.878906 186.902344 485.894531 186.703125 C 485.703125 185.992188 485.945312 185.21875 486.59375 184.664062 C 486.855469 184.4375 487.167969 184.261719 487.492188 184.128906 C 487.53125 184.105469 487.5625 184.078125 487.601562 184.054688 C 487.738281 183.988281 487.886719 183.933594 488.039062 183.894531 C 487.832031 183.378906 487.726562 182.804688 487.707031 182.21875 C 486.121094 181.925781 484.511719 181.539062 483.046875 180.972656 C 482.914062 181.152344 482.742188 181.3125 482.523438 181.410156 C 482.492188 181.421875 482.464844 181.425781 482.433594 181.441406 C 482.519531 183.066406 480.589844 185.085938 478.84375 184.519531 C 477.59375 184.117188 476.554688 182.617188 477.019531 181.289062 C 477.210938 180.738281 477.609375 180.238281 478.109375 179.925781 C 478.320312 179.679688 478.59375 179.59375 478.863281 179.609375 C 479.09375 179.5625 479.339844 179.5625 479.585938 179.601562 C 479.617188 179.425781 479.671875 179.261719 479.753906 179.109375 C 479.199219 178.648438 478.703125 178.128906 478.3125 177.535156 C 476.054688 174.101562 475.71875 169.59375 475.625 165.601562 C 475.316406 152.351562 476.953125 139.058594 476.316406 125.8125 C 476.132812 122.046875 475.285156 116.8125 478.113281 113.71875 C 480.667969 110.925781 485.074219 110.269531 489.179688 110.082031 C 489.207031 102.597656 488.558594 95.113281 489.53125 87.664062 C 489.5625 87.441406 489.652344 87.265625 489.789062 87.125 C 489.847656 86.949219 489.976562 86.792969 490.191406 86.675781 C 492.933594 85.191406 496.140625 84.164062 499.3125 84.484375 C 501.457031 84.703125 504.445312 85.027344 505.871094 86.847656 C 507.398438 88.804688 507.046875 93.203125 507.132812 95.515625 C 507.269531 99.375 507.421875 103.246094 507.386719 107.105469 C 509.703125 107.058594 511.761719 107.390625 512.910156 109.277344 C 514.015625 109.207031 515.101562 109.191406 516.175781 109.339844 C 519.488281 109.769531 522.546875 110.851562 525.699219 111.910156 C 528.214844 112.75 528.609375 113.195312 529.808594 115.449219 C 529.925781 115.671875 529.933594 115.886719 529.894531 116.078125 Z M 479.457031 181.539062 C 479.445312 181.519531 479.425781 181.5 479.375 181.457031 C 479.359375 181.441406 479.34375 181.425781 479.339844 181.421875 C 479.335938 181.417969 479.335938 181.417969 479.320312 181.417969 C 479.136719 181.738281 478.964844 182.117188 479.058594 182.265625 C 479.125 182.382812 479.351562 182.421875 479.46875 182.421875 C 479.511719 182.421875 479.554688 182.421875 479.597656 182.414062 C 479.605469 182.414062 479.605469 182.414062 479.609375 182.414062 C 479.597656 182.40625 479.609375 182.398438 479.621094 182.390625 C 479.628906 182.339844 479.660156 182.265625 479.664062 182.304688 C 479.664062 182.234375 479.671875 182.171875 479.664062 182.101562 C 479.660156 182.054688 479.644531 181.992188 479.644531 181.976562 C 479.574219 181.707031 479.632812 181.816406 479.480469 181.585938 C 479.460938 181.554688 479.457031 181.542969 479.457031 181.539062 Z M 479.652344 182.382812 L 479.644531 182.382812 C 479.644531 182.390625 479.640625 182.398438 479.640625 182.398438 C 479.640625 182.398438 479.640625 182.398438 479.644531 182.398438 C 479.644531 182.398438 479.644531 182.390625 479.652344 182.382812 Z M 479.632812 182.421875 C 479.632812 182.421875 479.632812 182.414062 479.640625 182.414062 L 479.640625 182.40625 C 479.632812 182.414062 479.632812 182.414062 479.628906 182.414062 L 479.621094 182.421875 L 479.621094 182.425781 C 479.628906 182.421875 479.632812 182.421875 479.632812 182.421875 " fill-opacity="1" fill-rule="nonzero"/></g><path fill="#000000" d="M 508.609375 117.125 C 508.609375 117.265625 507.386719 117.394531 505.414062 117.492188 C 504.925781 117.511719 504.386719 117.535156 503.804688 117.558594 C 503.230469 117.59375 502.605469 117.628906 501.957031 117.675781 C 501.300781 117.710938 500.617188 117.746094 499.90625 117.789062 C 499.550781 117.808594 499.195312 117.820312 498.828125 117.839844 C 498.429688 117.855469 498.039062 117.847656 497.652344 117.824219 C 496.894531 117.785156 496.179688 117.730469 495.542969 117.800781 C 495.371094 117.808594 495.25 117.84375 495.121094 117.871094 C 495.050781 117.886719 494.988281 117.886719 494.917969 117.910156 L 494.6875 118.011719 L 494.453125 118.113281 L 494.4375 118.117188 L 494.398438 118.148438 L 494.300781 118.207031 C 494.175781 118.289062 494.054688 118.367188 493.949219 118.464844 C 493.0625 119.179688 492.789062 120.292969 492.679688 121.222656 C 492.566406 122.164062 492.566406 122.960938 492.519531 123.511719 C 492.476562 124.074219 492.410156 124.371094 492.332031 124.371094 C 492.261719 124.371094 492.199219 124.0625 492.121094 123.527344 C 492.039062 122.980469 491.929688 122.1875 491.949219 121.167969 C 491.96875 120.652344 492.023438 120.082031 492.21875 119.480469 C 492.410156 118.878906 492.769531 118.238281 493.324219 117.753906 C 493.460938 117.621094 493.609375 117.511719 493.765625 117.40625 L 493.882812 117.328125 L 493.9375 117.289062 L 493.96875 117.265625 L 493.972656 117.261719 L 494.023438 117.234375 L 494.042969 117.230469 L 494.269531 117.121094 L 494.5 117.011719 C 494.59375 116.980469 494.703125 116.957031 494.808594 116.925781 C 495.015625 116.871094 495.238281 116.8125 495.421875 116.804688 C 496.203125 116.703125 496.96875 116.761719 497.707031 116.804688 C 498.082031 116.820312 498.4375 116.835938 498.769531 116.816406 C 499.140625 116.8125 499.503906 116.796875 499.863281 116.785156 C 500.574219 116.765625 501.261719 116.75 501.914062 116.730469 C 502.570312 116.726562 503.1875 116.710938 503.769531 116.707031 C 504.355469 116.726562 504.902344 116.75 505.398438 116.765625 C 507.386719 116.859375 508.609375 116.980469 508.609375 117.125 " fill-opacity="1" fill-rule="nonzero"/><path fill="#000000" d="M 481.960938 115.121094 C 482.054688 115.261719 481.125 115.855469 480.441406 117.371094 C 479.726562 118.859375 479.34375 121.175781 479.28125 123.777344 C 479.203125 126.371094 479.34375 128.746094 479.359375 130.480469 C 479.390625 132.214844 479.273438 133.304688 479.125 133.296875 C 478.984375 133.289062 478.851562 132.246094 478.632812 130.53125 C 478.4375 128.8125 478.171875 126.421875 478.246094 123.738281 C 478.3125 121.074219 478.832031 118.59375 479.792969 117.03125 C 480.257812 116.242188 480.808594 115.714844 481.226562 115.433594 C 481.648438 115.144531 481.921875 115.066406 481.960938 115.121094 " fill-opacity="1" fill-rule="nonzero"/><path fill="#000000" d="M 479.746094 172.480469 C 480.070312 173.183594 480.421875 173.546875 480.351562 173.601562 C 480.3125 173.625 479.894531 173.421875 479.390625 172.671875 C 478.910156 171.941406 478.476562 170.738281 478.289062 169.222656 C 478.074219 167.714844 478.089844 165.902344 478.109375 163.941406 C 478.097656 161.976562 478.085938 159.8125 478.074219 157.535156 C 478.074219 152.984375 478.136719 148.867188 478.226562 145.878906 C 478.320312 142.898438 478.445312 141.054688 478.59375 141.054688 C 478.734375 141.054688 478.863281 142.898438 478.957031 145.878906 C 479.046875 148.867188 479.109375 152.984375 479.109375 157.535156 C 479.101562 159.816406 479.09375 161.96875 479.058594 163.960938 C 478.984375 165.9375 478.902344 167.6875 479.015625 169.152344 C 479.109375 170.609375 479.40625 171.746094 479.746094 172.480469 " fill-opacity="1" fill-rule="nonzero"/></svg>