<svg xmlns="http://www.w3.org/2000/svg" xmlns:xlink="http://www.w3.org/1999/xlink" width="944" zoomAndPan="magnify" viewBox="0 0 708 566.999966" height="755" preserveAspectRatio="xMidYMid meet" version="1.0"><defs><clipPath id="id1"><path d="M 0 0 L 708 0 L 708 566.398438 L 0 566.398438 Z M 0 0 " clip-rule="nonzero"/></clipPath><clipPath id="id2"><path d="M 157 91 L 260 91 L 260 193 L 157 193 Z M 157 91 " clip-rule="nonzero"/></clipPath><clipPath id="id3"><path d="M 144.792969 109.238281 L 241.75 77.910156 L 273.078125 174.863281 L 176.125 206.195312 Z M 144.792969 109.238281 " clip-rule="nonzero"/></clipPath><clipPath id="id4"><path d="M 144.792969 109.238281 L 241.75 77.910156 L 273.078125 174.863281 L 176.125 206.195312 Z M 144.792969 109.238281 " clip-rule="nonzero"/></clipPath><clipPath id="id5"><path d="M 165 94 L 253 94 L 253 185 L 165 185 Z M 165 94 " clip-rule="nonzero"/></clipPath><clipPath id="id6"><path d="M 144.792969 109.238281 L 241.75 77.910156 L 273.078125 174.863281 L 176.125 206.195312 Z M 144.792969 109.238281 " clip-rule="nonzero"/></clipPath><clipPath id="id7"><path d="M 144.792969 109.238281 L 241.75 77.910156 L 273.078125 174.863281 L 176.125 206.195312 Z M 144.792969 109.238281 " clip-rule="nonzero"/></clipPath><clipPath id="id8"><path d="M 163 92 L 255 92 L 255 187 L 163 187 Z M 163 92 " clip-rule="nonzero"/></clipPath><clipPath id="id9"><path d="M 144.792969 109.238281 L 241.75 77.910156 L 273.078125 174.863281 L 176.125 206.195312 Z M 144.792969 109.238281 " clip-rule="nonzero"/></clipPath><clipPath id="id10"><path d="M 144.792969 109.238281 L 241.75 77.910156 L 273.078125 174.863281 L 176.125 206.195312 Z M 144.792969 109.238281 " clip-rule="nonzero"/></clipPath><clipPath id="id11"><path d="M 163 110 L 257 110 L 257 193 L 163 193 Z M 163 110 " clip-rule="nonzero"/></clipPath><clipPath id="id12"><path d="M 144.792969 109.238281 L 241.75 77.910156 L 273.078125 174.863281 L 176.125 206.195312 Z M 144.792969 109.238281 " clip-rule="nonzero"/></clipPath><clipPath id="id13"><path d="M 144.792969 109.238281 L 241.75 77.910156 L 273.078125 174.863281 L 176.125 206.195312 Z M 144.792969 109.238281 " clip-rule="nonzero"/></clipPath><clipPath id="id14"><path d="M 161 108 L 258 108 L 258 195 L 161 195 Z M 161 108 " clip-rule="nonzero"/></clipPath><clipPath id="id15"><path d="M 144.792969 109.238281 L 241.75 77.910156 L 273.078125 174.863281 L 176.125 206.195312 Z M 144.792969 109.238281 " clip-rule="nonzero"/></clipPath><clipPath id="id16"><path d="M 144.792969 109.238281 L 241.75 77.910156 L 273.078125 174.863281 L 176.125 206.195312 Z M 144.792969 109.238281 " clip-rule="nonzero"/></clipPath><clipPath id="id17"><path d="M 165 135 L 255 135 L 255 191 L 165 191 Z M 165 135 " clip-rule="nonzero"/></clipPath><clipPath id="id18"><path d="M 144.792969 109.238281 L 241.75 77.910156 L 273.078125 174.863281 L 176.125 206.195312 Z M 144.792969 109.238281 " clip-rule="nonzero"/></clipPath><clipPath id="id19"><path d="M 144.792969 109.238281 L 241.75 77.910156 L 273.078125 174.863281 L 176.125 206.195312 Z M 144.792969 109.238281 " clip-rule="nonzero"/></clipPath><clipPath id="id20"><path d="M 170 141 L 255 141 L 255 191 L 170 191 Z M 170 141 " clip-rule="nonzero"/></clipPath><clipPath id="id21"><path d="M 144.792969 109.238281 L 241.75 77.910156 L 273.078125 174.863281 L 176.125 206.195312 Z M 144.792969 109.238281 " clip-rule="nonzero"/></clipPath><clipPath id="id22"><path d="M 144.792969 109.238281 L 241.75 77.910156 L 273.078125 174.863281 L 176.125 206.195312 Z M 144.792969 109.238281 " clip-rule="nonzero"/></clipPath><clipPath id="id23"><path d="M 177 144 L 184 144 L 184 151 L 177 151 Z M 177 144 " clip-rule="nonzero"/></clipPath><clipPath id="id24"><path d="M 144.792969 109.238281 L 241.75 77.910156 L 273.078125 174.863281 L 176.125 206.195312 Z M 144.792969 109.238281 " clip-rule="nonzero"/></clipPath><clipPath id="id25"><path d="M 144.792969 109.238281 L 241.75 77.910156 L 273.078125 174.863281 L 176.125 206.195312 Z M 144.792969 109.238281 " clip-rule="nonzero"/></clipPath><clipPath id="id26"><path d="M 183 153 L 199 153 L 199 174 L 183 174 Z M 183 153 " clip-rule="nonzero"/></clipPath><clipPath id="id27"><path d="M 144.792969 109.238281 L 241.75 77.910156 L 273.078125 174.863281 L 176.125 206.195312 Z M 144.792969 109.238281 " clip-rule="nonzero"/></clipPath><clipPath id="id28"><path d="M 144.792969 109.238281 L 241.75 77.910156 L 273.078125 174.863281 L 176.125 206.195312 Z M 144.792969 109.238281 " clip-rule="nonzero"/></clipPath><clipPath id="id29"><path d="M 199 176 L 205 176 L 205 183 L 199 183 Z M 199 176 " clip-rule="nonzero"/></clipPath><clipPath id="id30"><path d="M 144.792969 109.238281 L 241.75 77.910156 L 273.078125 174.863281 L 176.125 206.195312 Z M 144.792969 109.238281 " clip-rule="nonzero"/></clipPath><clipPath id="id31"><path d="M 144.792969 109.238281 L 241.75 77.910156 L 273.078125 174.863281 L 176.125 206.195312 Z M 144.792969 109.238281 " clip-rule="nonzero"/></clipPath><clipPath id="id32"><path d="M 203 125 L 237 125 L 237 160 L 203 160 Z M 203 125 " clip-rule="nonzero"/></clipPath><clipPath id="id33"><path d="M 144.792969 109.238281 L 241.75 77.910156 L 273.078125 174.863281 L 176.125 206.195312 Z M 144.792969 109.238281 " clip-rule="nonzero"/></clipPath><clipPath id="id34"><path d="M 144.792969 109.238281 L 241.75 77.910156 L 273.078125 174.863281 L 176.125 206.195312 Z M 144.792969 109.238281 " clip-rule="nonzero"/></clipPath><clipPath id="id35"><path d="M 186 176 L 233 176 L 233 195 L 186 195 Z M 186 176 " clip-rule="nonzero"/></clipPath><clipPath id="id36"><path d="M 144.792969 109.238281 L 241.75 77.910156 L 273.078125 174.863281 L 176.125 206.195312 Z M 144.792969 109.238281 " clip-rule="nonzero"/></clipPath><clipPath id="id37"><path d="M 144.792969 109.238281 L 241.75 77.910156 L 273.078125 174.863281 L 176.125 206.195312 Z M 144.792969 109.238281 " clip-rule="nonzero"/></clipPath><clipPath id="id38"><path d="M 138.792969 103.957031 L 195.734375 103.957031 L 195.734375 180.375 L 138.792969 180.375 Z M 138.792969 103.957031 " clip-rule="nonzero"/></clipPath></defs><rect x="-70.8" width="849.6" fill="#ffffff" y="-56.699997" height="680.399959" fill-opacity="1"/><path fill="#ffffff" d="M 0 0 L 708 0 L 708 566.398438 L 0 566.398438 Z M 0 0 " fill-opacity="1" fill-rule="nonzero"/><g clip-path="url(#id1)"><path fill="#ffffff" d="M 0 0 L 708 0 L 708 566.398438 L 0 566.398438 Z M 0 0 " fill-opacity="1" fill-rule="nonzero"/></g><g clip-path="url(#id2)"><g clip-path="url(#id3)"><g clip-path="url(#id4)"><path fill="#ffffff" d="M 257.410156 126.386719 C 257.925781 127.976562 258.359375 129.585938 258.714844 131.214844 C 259.070312 132.84375 259.34375 134.488281 259.535156 136.144531 C 259.730469 137.804688 259.839844 139.464844 259.871094 141.132812 C 259.902344 142.800781 259.851562 144.46875 259.714844 146.132812 C 259.582031 147.792969 259.367188 149.445312 259.070312 151.089844 C 258.777344 152.730469 258.398438 154.355469 257.945312 155.960938 C 257.488281 157.5625 256.957031 159.144531 256.347656 160.695312 C 255.734375 162.25 255.050781 163.769531 254.289062 165.253906 C 253.53125 166.738281 252.699219 168.183594 251.796875 169.585938 C 250.894531 170.992188 249.925781 172.347656 248.894531 173.65625 C 247.859375 174.964844 246.761719 176.21875 245.601562 177.417969 C 244.445312 178.621094 243.230469 179.761719 241.960938 180.84375 C 240.6875 181.925781 239.367188 182.941406 238 183.894531 C 236.628906 184.84375 235.214844 185.726562 233.757812 186.539062 C 232.300781 187.351562 230.808594 188.09375 229.277344 188.757812 C 227.746094 189.425781 226.1875 190.015625 224.601562 190.527344 C 223.015625 191.039062 221.40625 191.476562 219.773438 191.828125 C 218.144531 192.183594 216.5 192.460938 214.84375 192.652344 C 213.1875 192.847656 211.523438 192.957031 209.855469 192.988281 C 208.1875 193.019531 206.519531 192.964844 204.859375 192.832031 C 203.195312 192.699219 201.542969 192.484375 199.902344 192.1875 C 198.257812 191.890625 196.636719 191.515625 195.03125 191.0625 C 193.425781 190.605469 191.847656 190.074219 190.292969 189.460938 C 188.742188 188.851562 187.222656 188.167969 185.734375 187.40625 C 184.25 186.648438 182.804688 185.816406 181.402344 184.914062 C 180 184.011719 178.640625 183.042969 177.332031 182.007812 C 176.023438 180.972656 174.769531 179.878906 173.570312 178.71875 C 172.367188 177.5625 171.226562 176.347656 170.144531 175.074219 C 169.066406 173.804688 168.046875 172.484375 167.097656 171.113281 C 166.144531 169.746094 165.261719 168.332031 164.449219 166.875 C 163.636719 165.417969 162.894531 163.921875 162.230469 162.394531 C 161.5625 160.863281 160.972656 159.304688 160.460938 157.71875 C 159.949219 156.128906 159.515625 154.519531 159.160156 152.890625 C 158.804688 151.261719 158.53125 149.617188 158.335938 147.960938 C 158.144531 146.300781 158.03125 144.640625 158 142.972656 C 157.972656 141.304688 158.023438 139.636719 158.15625 137.976562 C 158.289062 136.3125 158.503906 134.660156 158.800781 133.015625 C 159.097656 131.375 159.472656 129.75 159.929688 128.144531 C 160.382812 126.542969 160.917969 124.960938 161.527344 123.410156 C 162.136719 121.855469 162.824219 120.339844 163.582031 118.851562 C 164.34375 117.367188 165.171875 115.921875 166.074219 114.519531 C 166.976562 113.113281 167.945312 111.757812 168.980469 110.449219 C 170.015625 109.140625 171.113281 107.886719 172.269531 106.6875 C 173.429688 105.484375 174.644531 104.34375 175.914062 103.261719 C 177.183594 102.179688 178.503906 101.164062 179.875 100.210938 C 181.246094 99.261719 182.660156 98.378906 184.117188 97.566406 C 185.574219 96.753906 187.066406 96.011719 188.59375 95.347656 C 190.125 94.679688 191.683594 94.089844 193.273438 93.578125 C 194.859375 93.066406 196.46875 92.628906 198.097656 92.277344 C 199.730469 91.921875 201.371094 91.648438 203.03125 91.453125 C 204.6875 91.257812 206.347656 91.148438 208.019531 91.117188 C 209.6875 91.085938 211.351562 91.140625 213.015625 91.273438 C 214.675781 91.40625 216.332031 91.621094 217.972656 91.917969 C 219.613281 92.214844 221.238281 92.589844 222.84375 93.042969 C 224.449219 93.5 226.027344 94.03125 227.578125 94.644531 C 229.132812 95.253906 230.652344 95.9375 232.136719 96.699219 C 233.621094 97.457031 235.066406 98.289062 236.46875 99.191406 C 237.875 100.09375 239.230469 101.0625 240.539062 102.097656 C 241.847656 103.132812 243.101562 104.226562 244.304688 105.386719 C 245.503906 106.546875 246.644531 107.757812 247.726562 109.03125 C 248.808594 110.300781 249.824219 111.621094 250.777344 112.992188 C 251.730469 114.359375 252.609375 115.773438 253.425781 117.230469 C 254.238281 118.6875 254.976562 120.183594 255.644531 121.710938 C 256.308594 123.242188 256.898438 124.800781 257.410156 126.386719 Z M 257.410156 126.386719 " fill-opacity="1" fill-rule="nonzero"/></g></g></g><g clip-path="url(#id5)"><g clip-path="url(#id6)"><g clip-path="url(#id7)"><path fill="#ffffff" d="M 198.707031 184.464844 C 197.414062 184.882812 195.984375 184.574219 194.976562 183.664062 L 166.742188 158.175781 C 165.984375 157.492188 165.539062 156.558594 165.488281 155.539062 C 165.4375 154.523438 165.785156 153.546875 166.464844 152.792969 L 218.113281 95.578125 C 218.5625 95.082031 219.132812 94.710938 219.769531 94.503906 C 221.058594 94.089844 222.488281 94.394531 223.496094 95.300781 L 251.734375 120.792969 C 253.292969 122.203125 253.417969 124.617188 252.007812 126.175781 L 200.359375 183.390625 C 199.914062 183.886719 199.339844 184.257812 198.707031 184.464844 Z M 198.707031 184.464844 " fill-opacity="1" fill-rule="nonzero"/></g></g></g><g clip-path="url(#id8)"><g clip-path="url(#id9)"><g clip-path="url(#id10)"><path fill="#256b4e" d="M 220.332031 96.242188 C 220.984375 96.03125 221.726562 96.164062 222.273438 96.660156 L 250.511719 122.148438 C 251.324219 122.882812 251.386719 124.140625 250.652344 124.953125 L 199.003906 182.167969 C 198.761719 182.433594 198.464844 182.621094 198.144531 182.726562 C 197.492188 182.9375 196.746094 182.804688 196.203125 182.308594 L 167.964844 156.820312 C 167.148438 156.085938 167.085938 154.828125 167.820312 154.015625 L 219.46875 96.800781 C 219.710938 96.535156 220.007812 96.347656 220.332031 96.242188 M 219.207031 92.769531 C 218.265625 93.070312 217.421875 93.621094 216.757812 94.355469 L 165.109375 151.566406 C 164.101562 152.683594 163.585938 154.128906 163.664062 155.632812 C 163.742188 157.136719 164.398438 158.519531 165.519531 159.53125 L 193.753906 185.019531 C 195.242188 186.367188 197.355469 186.816406 199.265625 186.199219 C 200.207031 185.898438 201.054688 185.347656 201.71875 184.609375 L 253.363281 127.398438 C 255.445312 125.09375 255.265625 121.523438 252.957031 119.441406 L 224.71875 93.949219 C 223.230469 92.601562 221.117188 92.152344 219.207031 92.769531 Z M 219.207031 92.769531 " fill-opacity="1" fill-rule="nonzero"/></g></g></g><g clip-path="url(#id11)"><g clip-path="url(#id12)"><g clip-path="url(#id13)"><path fill="#ffffff" d="M 189.265625 192.136719 C 187.652344 192.660156 185.867188 192.039062 184.921875 190.625 L 163.828125 158.96875 C 162.664062 157.21875 163.136719 154.847656 164.886719 153.683594 L 229.027344 110.941406 C 229.320312 110.746094 229.636719 110.59375 229.972656 110.484375 C 231.585938 109.964844 233.371094 110.585938 234.3125 112 L 255.410156 143.65625 C 255.972656 144.503906 256.171875 145.519531 255.972656 146.519531 C 255.773438 147.515625 255.199219 148.378906 254.351562 148.941406 L 190.207031 191.683594 C 189.914062 191.878906 189.597656 192.03125 189.265625 192.136719 Z M 189.265625 192.136719 " fill-opacity="1" fill-rule="nonzero"/></g></g></g><g clip-path="url(#id14)"><g clip-path="url(#id15)"><g clip-path="url(#id16)"><path fill="#256b4e" d="M 230.53125 112.222656 C 231.355469 111.957031 232.289062 112.253906 232.792969 113.011719 L 253.890625 144.667969 C 254.496094 145.582031 254.25 146.8125 253.339844 147.421875 L 189.195312 190.164062 C 189.039062 190.265625 188.875 190.347656 188.707031 190.402344 C 187.882812 190.667969 186.949219 190.367188 186.445312 189.613281 L 165.347656 157.953125 C 164.738281 157.042969 164.988281 155.808594 165.898438 155.203125 L 230.042969 112.460938 C 230.199219 112.355469 230.363281 112.277344 230.53125 112.222656 M 229.410156 108.746094 C 228.917969 108.90625 228.445312 109.132812 228.015625 109.421875 L 163.875 152.160156 C 161.289062 153.886719 160.585938 157.394531 162.308594 159.980469 L 183.402344 191.636719 C 184.796875 193.726562 187.4375 194.648438 189.828125 193.875 C 190.320312 193.714844 190.789062 193.492188 191.21875 193.203125 L 255.363281 150.460938 C 256.617188 149.625 257.46875 148.351562 257.765625 146.875 C 258.058594 145.398438 257.761719 143.894531 256.925781 142.644531 L 235.832031 110.984375 C 234.441406 108.894531 231.796875 107.976562 229.410156 108.746094 Z M 229.410156 108.746094 " fill-opacity="1" fill-rule="nonzero"/></g></g></g><g clip-path="url(#id17)"><g clip-path="url(#id18)"><g clip-path="url(#id19)"><path fill="#ffffff" d="M 166.773438 154.621094 L 165.898438 155.199219 C 164.988281 155.808594 164.738281 157.042969 165.347656 157.953125 L 186.441406 189.613281 C 187.050781 190.523438 188.285156 190.769531 189.195312 190.164062 L 253.335938 147.421875 C 254.25 146.8125 254.496094 145.582031 253.890625 144.667969 L 247.636719 135.285156 C 220.636719 145.570312 186.289062 151.710938 166.773438 154.621094 Z M 166.773438 154.621094 " fill-opacity="1" fill-rule="nonzero"/></g></g></g><g clip-path="url(#id20)"><g clip-path="url(#id21)"><g clip-path="url(#id22)"><path fill="#ffffff" d="M 170.511719 165.703125 L 186.445312 189.613281 C 187.050781 190.523438 188.285156 190.769531 189.195312 190.164062 L 253.339844 147.421875 C 254.25 146.8125 254.496094 145.582031 253.890625 144.667969 L 252.070312 141.941406 C 230.085938 156.070312 191.894531 162.863281 170.511719 165.703125 Z M 170.511719 165.703125 " fill-opacity="1" fill-rule="nonzero"/></g></g></g><g clip-path="url(#id23)"><g clip-path="url(#id24)"><g clip-path="url(#id25)"><path fill="#256b4e" d="M 181.875 150.246094 C 181.117188 150.492188 180.257812 150.214844 179.796875 149.519531 L 178.144531 147.042969 C 177.585938 146.203125 177.8125 145.070312 178.652344 144.511719 C 179.488281 143.949219 180.625 144.179688 181.183594 145.015625 L 182.835938 147.496094 C 183.394531 148.335938 183.167969 149.46875 182.328125 150.027344 C 182.183594 150.121094 182.03125 150.195312 181.875 150.246094 Z M 181.875 150.246094 " fill-opacity="1" fill-rule="nonzero"/></g></g></g><g clip-path="url(#id26)"><g clip-path="url(#id27)"><g clip-path="url(#id28)"><path fill="#256b4e" d="M 197.425781 173.582031 C 196.667969 173.828125 195.808594 173.554688 195.347656 172.859375 L 192.015625 167.855469 C 191.453125 167.015625 191.683594 165.882812 192.519531 165.324219 C 193.359375 164.765625 194.492188 164.992188 195.054688 165.832031 L 198.386719 170.832031 C 198.945312 171.671875 198.71875 172.804688 197.878906 173.363281 C 197.734375 173.460938 197.582031 173.53125 197.425781 173.582031 Z M 189.652344 161.914062 C 188.894531 162.160156 188.035156 161.886719 187.570312 161.1875 L 184.238281 156.1875 C 183.679688 155.347656 183.90625 154.214844 184.746094 153.65625 C 185.585938 153.097656 186.71875 153.324219 187.277344 154.164062 L 190.609375 159.164062 C 191.167969 160.003906 190.941406 161.136719 190.101562 161.695312 C 189.960938 161.792969 189.808594 161.863281 189.652344 161.914062 Z M 189.652344 161.914062 " fill-opacity="1" fill-rule="nonzero"/></g></g></g><g clip-path="url(#id29)"><g clip-path="url(#id30)"><g clip-path="url(#id31)"><path fill="#256b4e" d="M 203.519531 182.730469 C 202.761719 182.976562 201.902344 182.699219 201.441406 182.003906 L 199.789062 179.523438 C 199.230469 178.6875 199.457031 177.550781 200.296875 176.992188 C 201.136719 176.433594 202.269531 176.660156 202.828125 177.5 L 204.480469 179.980469 C 205.039062 180.820312 204.8125 181.953125 203.972656 182.511719 C 203.828125 182.605469 203.675781 182.679688 203.519531 182.730469 Z M 203.519531 182.730469 " fill-opacity="1" fill-rule="nonzero"/></g></g></g><g clip-path="url(#id32)"><g clip-path="url(#id33)"><g clip-path="url(#id34)"><path fill="#256b4e" d="M 223.890625 138.28125 C 224.648438 134.746094 225.222656 131.972656 225.300781 131.480469 C 225.316406 131.382812 225.328125 131.285156 225.34375 131.191406 C 225.34375 131.171875 225.347656 131.15625 225.347656 131.136719 C 225.351562 131.109375 225.355469 131.078125 225.359375 131.050781 C 225.363281 131.003906 225.371094 130.957031 225.375 130.910156 C 225.378906 130.875 225.382812 130.839844 225.386719 130.804688 C 225.386719 130.777344 225.390625 130.75 225.394531 130.71875 C 225.394531 130.691406 225.398438 130.664062 225.398438 130.640625 C 225.402344 130.59375 225.40625 130.550781 225.410156 130.503906 C 225.410156 130.480469 225.414062 130.453125 225.414062 130.425781 C 225.414062 130.402344 225.417969 130.378906 225.417969 130.359375 C 225.417969 130.316406 225.421875 130.277344 225.421875 130.234375 C 225.421875 130.199219 225.425781 130.164062 225.425781 130.132812 C 225.425781 130.101562 225.425781 130.074219 225.425781 130.046875 C 225.425781 130.023438 225.425781 129.996094 225.425781 129.972656 C 225.425781 129.945312 225.425781 129.917969 225.425781 129.886719 C 225.425781 129.84375 225.425781 129.796875 225.425781 129.75 C 225.425781 129.734375 225.425781 129.714844 225.425781 129.699219 C 225.421875 129.617188 225.417969 129.539062 225.414062 129.460938 C 225.414062 129.429688 225.410156 129.394531 225.40625 129.363281 C 225.402344 129.300781 225.398438 129.238281 225.394531 129.179688 C 225.390625 129.144531 225.386719 129.109375 225.382812 129.074219 C 225.378906 129.015625 225.371094 128.960938 225.363281 128.902344 C 225.359375 128.871094 225.355469 128.835938 225.351562 128.804688 C 225.34375 128.742188 225.332031 128.679688 225.320312 128.617188 C 225.316406 128.59375 225.316406 128.570312 225.308594 128.546875 C 225.296875 128.464844 225.28125 128.386719 225.261719 128.304688 C 225.257812 128.28125 225.25 128.257812 225.246094 128.234375 C 225.234375 128.179688 225.21875 128.125 225.207031 128.066406 C 225.199219 128.039062 225.191406 128.007812 225.183594 127.980469 C 225.167969 127.933594 225.15625 127.886719 225.144531 127.839844 C 225.132812 127.808594 225.125 127.78125 225.113281 127.75 C 225.101562 127.707031 225.085938 127.664062 225.074219 127.621094 C 225.0625 127.589844 225.054688 127.5625 225.042969 127.53125 C 225.027344 127.484375 225.007812 127.4375 224.992188 127.394531 C 224.984375 127.371094 224.976562 127.351562 224.96875 127.328125 C 224.941406 127.265625 224.917969 127.207031 224.890625 127.144531 C 224.878906 127.117188 224.863281 127.089844 224.851562 127.0625 C 224.835938 127.027344 224.820312 126.996094 224.804688 126.964844 C 224.789062 126.933594 224.773438 126.902344 224.757812 126.875 C 224.746094 126.847656 224.730469 126.816406 224.714844 126.789062 C 224.699219 126.761719 224.683594 126.730469 224.667969 126.703125 C 224.652344 126.679688 224.636719 126.652344 224.625 126.628906 C 224.605469 126.597656 224.589844 126.570312 224.570312 126.542969 C 224.558594 126.523438 224.546875 126.503906 224.535156 126.484375 C 224.496094 126.421875 224.453125 126.359375 224.410156 126.300781 C 224.402344 126.292969 224.394531 126.277344 224.386719 126.269531 C 224.363281 126.238281 224.339844 126.207031 224.320312 126.179688 C 224.308594 126.167969 224.296875 126.152344 224.289062 126.140625 C 224.265625 126.109375 224.242188 126.082031 224.21875 126.054688 C 224.207031 126.042969 224.199219 126.03125 224.1875 126.023438 C 224.164062 125.992188 224.140625 125.964844 224.117188 125.941406 C 224.109375 125.933594 224.105469 125.925781 224.097656 125.921875 C 223.980469 125.796875 223.859375 125.6875 223.742188 125.597656 C 223.738281 125.597656 223.738281 125.59375 223.734375 125.589844 C 223.703125 125.570312 223.675781 125.550781 223.648438 125.53125 C 223.648438 125.53125 223.644531 125.527344 223.644531 125.527344 C 223.4375 125.390625 223.242188 125.308594 223.074219 125.285156 C 222.125 125.105469 219.675781 126.476562 219.039062 130.480469 C 218.960938 130.976562 218.644531 133.789062 218.269531 137.386719 L 204.019531 140.164062 L 203.089844 142.230469 L 217.726562 142.738281 C 217.320312 146.882812 216.9375 151.105469 216.78125 153.703125 C 215.972656 154.039062 213.332031 155.136719 212.566406 155.460938 C 212.296875 155.570312 212.101562 155.867188 211.96875 156.171875 C 211.964844 156.179688 211.960938 156.1875 211.957031 156.195312 C 211.941406 156.234375 211.925781 156.273438 211.910156 156.3125 C 211.90625 156.324219 211.902344 156.335938 211.898438 156.347656 C 211.859375 156.453125 211.824219 156.554688 211.800781 156.648438 C 211.800781 156.648438 211.800781 156.648438 211.800781 156.652344 C 211.785156 156.695312 211.773438 156.738281 211.765625 156.78125 C 211.761719 156.789062 211.761719 156.792969 211.757812 156.804688 C 211.75 156.835938 211.746094 156.863281 211.738281 156.894531 C 211.738281 156.902344 211.734375 156.90625 211.734375 156.914062 C 211.730469 156.941406 211.722656 156.964844 211.71875 156.984375 C 211.71875 156.988281 211.71875 156.996094 211.714844 157 C 211.714844 157.019531 211.710938 157.035156 211.707031 157.042969 C 211.707031 157.046875 211.707031 157.050781 211.707031 157.054688 C 211.703125 157.066406 211.703125 157.070312 211.703125 157.070312 L 216.917969 156.949219 C 216.984375 157.152344 217.058594 157.320312 217.132812 157.453125 L 217.136719 157.457031 C 217.160156 157.496094 217.183594 157.535156 217.207031 157.570312 C 217.214844 157.585938 217.226562 157.601562 217.238281 157.613281 C 217.253906 157.640625 217.273438 157.664062 217.292969 157.6875 C 217.300781 157.703125 217.3125 157.714844 217.320312 157.726562 C 217.347656 157.753906 217.371094 157.78125 217.394531 157.804688 C 217.40625 157.816406 217.417969 157.824219 217.425781 157.835938 C 217.445312 157.851562 217.460938 157.863281 217.476562 157.878906 C 217.488281 157.886719 217.496094 157.894531 217.507812 157.902344 C 217.53125 157.917969 217.550781 157.933594 217.574219 157.949219 C 217.582031 157.953125 217.589844 157.957031 217.601562 157.960938 C 217.613281 157.972656 217.628906 157.980469 217.640625 157.984375 C 217.652344 157.992188 217.660156 157.992188 217.667969 158 C 217.6875 158.007812 217.707031 158.015625 217.722656 158.019531 C 217.726562 158.023438 217.734375 158.023438 217.738281 158.023438 C 217.75 158.027344 217.761719 158.03125 217.773438 158.035156 C 217.777344 158.035156 217.785156 158.039062 217.789062 158.039062 C 217.800781 158.042969 217.8125 158.042969 217.824219 158.046875 C 217.828125 158.046875 217.828125 158.046875 217.832031 158.046875 C 217.839844 158.046875 217.84375 158.046875 217.847656 158.046875 C 217.851562 158.046875 217.855469 158.046875 217.855469 158.046875 C 217.859375 158.050781 217.863281 158.050781 217.863281 158.050781 C 217.863281 158.050781 217.988281 158.09375 218.191406 158.035156 C 218.230469 158.023438 218.277344 158.007812 218.324219 157.988281 C 218.324219 157.988281 218.328125 157.988281 218.332031 157.984375 C 218.351562 157.976562 218.371094 157.96875 218.390625 157.957031 C 218.394531 157.953125 218.402344 157.949219 218.40625 157.949219 C 218.425781 157.9375 218.445312 157.925781 218.46875 157.914062 C 218.472656 157.914062 218.476562 157.910156 218.480469 157.90625 C 218.507812 157.890625 218.53125 157.875 218.558594 157.855469 C 218.5625 157.851562 218.566406 157.847656 218.570312 157.847656 C 218.59375 157.832031 218.613281 157.8125 218.632812 157.796875 C 218.640625 157.792969 218.652344 157.785156 218.660156 157.777344 C 218.679688 157.761719 218.695312 157.746094 218.714844 157.730469 C 218.726562 157.722656 218.734375 157.710938 218.746094 157.703125 C 218.765625 157.683594 218.789062 157.660156 218.8125 157.636719 C 218.820312 157.632812 218.824219 157.625 218.828125 157.621094 C 218.855469 157.59375 218.882812 157.5625 218.910156 157.53125 C 218.921875 157.519531 218.929688 157.507812 218.941406 157.496094 C 218.960938 157.472656 218.980469 157.453125 219 157.425781 C 219.011719 157.414062 219.023438 157.398438 219.035156 157.382812 C 219.054688 157.359375 219.074219 157.332031 219.09375 157.300781 C 219.105469 157.289062 219.113281 157.277344 219.125 157.261719 C 219.128906 157.257812 219.128906 157.253906 219.132812 157.25 L 224.320312 159.078125 C 224.320312 159.078125 224.320312 159.074219 224.324219 159.0625 C 224.324219 159.0625 224.324219 159.058594 224.324219 159.054688 C 224.324219 159.042969 224.328125 159.03125 224.328125 159.019531 C 224.328125 159.011719 224.332031 159.003906 224.332031 158.996094 C 224.332031 158.980469 224.335938 158.964844 224.335938 158.945312 C 224.339844 158.933594 224.339844 158.921875 224.339844 158.914062 C 224.34375 158.894531 224.34375 158.875 224.347656 158.851562 C 224.347656 158.839844 224.347656 158.824219 224.351562 158.808594 C 224.351562 158.785156 224.351562 158.761719 224.355469 158.734375 C 224.355469 158.71875 224.355469 158.707031 224.355469 158.6875 C 224.359375 158.660156 224.359375 158.636719 224.359375 158.605469 C 224.363281 158.589844 224.363281 158.570312 224.363281 158.550781 C 224.363281 158.523438 224.363281 158.492188 224.363281 158.464844 C 224.363281 158.445312 224.363281 158.425781 224.363281 158.40625 C 224.363281 158.375 224.363281 158.34375 224.359375 158.3125 C 224.359375 158.304688 224.359375 158.292969 224.359375 158.285156 C 224.339844 157.910156 224.253906 157.496094 224.003906 157.28125 C 223.253906 156.632812 220.339844 154.132812 220.339844 154.132812 L 220.152344 154.574219 C 220.8125 152.097656 221.804688 147.78125 222.742188 143.535156 L 236.8125 147.597656 L 236.65625 146.121094 L 236.574219 145.34375 Z M 223.890625 138.28125 " fill-opacity="1" fill-rule="nonzero"/></g></g></g><g clip-path="url(#id35)"><g clip-path="url(#id36)"><g clip-path="url(#id37)"><path fill="#256b4e" d="M 231.644531 180.335938 L 189.160156 194.0625 C 188.203125 194.375 187.171875 193.847656 186.863281 192.886719 C 186.550781 191.929688 187.078125 190.898438 188.039062 190.589844 L 230.523438 176.859375 C 231.480469 176.550781 232.511719 177.078125 232.820312 178.035156 C 233.128906 178.996094 232.605469 180.027344 231.644531 180.335938 Z M 231.644531 180.335938 " fill-opacity="1" fill-rule="nonzero"/></g></g></g><g clip-path="url(#id38)"><path fill="#256b4e" d="M 195.734375 178.417969 C 195.734375 179.496094 194.859375 180.371094 193.78125 180.371094 L 140.75 180.371094 C 139.671875 180.371094 138.792969 179.496094 138.792969 178.417969 L 138.792969 105.910156 C 138.792969 104.832031 139.671875 103.960938 140.75 103.960938 L 193.78125 103.960938 C 194.859375 103.960938 195.734375 104.832031 195.734375 105.910156 L 195.734375 178.417969 " fill-opacity="1" fill-rule="nonzero"/></g><path fill="#ffffff" d="M 168.292969 144.226562 C 160.476562 144.226562 154.121094 137.882812 154.121094 130.089844 C 154.121094 124.9375 156.894531 120.421875 161.035156 117.953125 C 161.191406 118.066406 161.390625 118.144531 161.640625 118.144531 C 161.640625 118.144531 161.914062 118.144531 160.175781 119.5 C 158.4375 120.855469 158.601562 122.730469 159.144531 121.550781 C 159.6875 120.367188 160.175781 120.800781 159.304688 122.480469 C 158.4375 124.160156 159.765625 123.617188 160.214844 124.644531 C 160.664062 125.675781 160.828125 124.429688 161.042969 126.378906 C 161.042969 126.378906 161.585938 127.027344 162.566406 126.703125 C 163.542969 126.378906 162.402344 127.570312 161.371094 128.546875 C 160.335938 129.519531 160.664062 129.84375 161.207031 130.441406 C 161.75 131.039062 161.96875 131.523438 161.476562 132.175781 C 160.988281 132.824219 162.238281 133.042969 162.566406 133.421875 C 162.890625 133.800781 162.835938 135.046875 162.074219 135.585938 C 161.316406 136.128906 162.457031 137.320312 162.292969 139 C 162.128906 140.679688 162.167969 141.382812 162.9375 141.492188 C 163.703125 141.601562 162.835938 140.027344 163.160156 139.324219 C 163.488281 138.621094 163.867188 139.8125 164.628906 137.917969 C 164.628906 137.917969 165.984375 138.242188 166.582031 136.183594 C 166.582031 136.183594 167.777344 136.019531 167.996094 135.371094 C 168.210938 134.722656 167.941406 134.289062 169.679688 132.878906 C 171.414062 131.46875 168.484375 130.386719 166.910156 130.332031 C 166.910156 130.332031 166.332031 130.570312 167.34375 128.761719 C 167.785156 127.972656 166.472656 128.167969 166.148438 127.464844 C 165.824219 126.757812 165.0625 125.945312 163.542969 126.109375 C 162.019531 126.269531 161.585938 126.8125 161.53125 125.890625 C 161.476562 124.96875 162.183594 124.539062 161.425781 124.429688 C 160.664062 124.320312 161.042969 124.265625 161.859375 123.507812 C 161.859375 123.507812 161.371094 123.183594 160.882812 123.671875 C 160.390625 124.160156 159.523438 123.398438 160.554688 122.316406 C 161.585938 121.234375 163.214844 120.421875 163.109375 122.480469 C 163 124.539062 163.757812 121.550781 163.757812 121.550781 C 163.757812 121.550781 164.898438 120.097656 166.3125 119.988281 C 167.722656 119.878906 166.855469 119.824219 166.855469 119.335938 C 166.855469 118.851562 167.507812 120.152344 168.292969 119.824219 C 169.082031 119.5 167.453125 119.390625 167.617188 118.851562 C 167.777344 118.308594 168.703125 118.472656 169.082031 119.175781 C 169.460938 119.878906 169.894531 118.796875 168.917969 117.65625 C 167.941406 116.519531 168.101562 117.226562 167.179688 117.714844 C 166.257812 118.199219 166.636719 118.472656 166.472656 117.65625 C 166.3125 116.847656 166.257812 117.714844 165.824219 117.28125 C 165.386719 116.847656 166.597656 117.046875 167.234375 117.117188 C 167.871094 117.1875 167.667969 116.738281 167.667969 116.738281 L 168.292969 116.46875 C 168.292969 116.46875 168.703125 117.0625 169.191406 116.953125 C 169.679688 116.847656 168.863281 116.085938 169.351562 116.195312 C 169.839844 116.304688 170.492188 115.871094 170.546875 116.519531 C 170.601562 117.171875 170.167969 118.039062 171.960938 117.0625 C 172.320312 116.867188 172.566406 116.738281 172.730469 116.664062 C 172.851562 116.703125 172.972656 116.742188 173.089844 116.785156 C 173.101562 116.917969 173.144531 117.085938 173.371094 117.226562 C 174.078125 117.65625 173.859375 117.28125 174.785156 117.820312 C 175.707031 118.363281 175.109375 118.960938 175.816406 119.066406 C 176.519531 119.175781 177.171875 120.152344 176.628906 120.203125 C 176.085938 120.257812 176.03125 119.609375 175.21875 119.5 C 174.402344 119.390625 175.546875 119.769531 176.085938 120.257812 C 176.628906 120.746094 176.628906 121.324219 176.085938 121.550781 C 175.542969 121.777344 175.945312 123.019531 176.832031 122.859375 C 177.714844 122.695312 177.390625 121.777344 177.878906 121.992188 C 178.367188 122.207031 178.203125 122.75 179.019531 123.074219 C 179.835938 123.398438 178.910156 123.832031 179.890625 123.886719 C 180.867188 123.941406 181.355469 124.320312 180.488281 124.699219 C 179.617188 125.078125 180.050781 125.402344 179.292969 124.484375 C 178.53125 123.5625 178.605469 124.445312 178.53125 123.5625 C 178.457031 122.679688 177.226562 123.507812 176.574219 123.617188 C 175.925781 123.726562 176.46875 124.375 175.871094 124.484375 C 175.273438 124.59375 175 124.429688 175.164062 125.835938 C 175.328125 127.246094 174.945312 127.570312 174.292969 127.570312 C 173.644531 127.570312 174.839844 128.328125 175.164062 129.304688 C 175.488281 130.277344 175.542969 130.875 176.957031 130.496094 C 178.367188 130.117188 177.933594 130.117188 178.097656 130.875 C 178.257812 131.632812 178.855469 130.441406 178.964844 131.199219 C 179.074219 131.957031 177.609375 132.121094 178.421875 132.609375 C 179.238281 133.09375 178.640625 134.234375 178.257812 134.503906 C 177.878906 134.773438 178.152344 135.75 177.335938 136.183594 C 176.519531 136.617188 177.714844 137.375 177.226562 137.863281 C 176.738281 138.351562 175.4375 138.945312 175.925781 140.136719 C 176.414062 141.328125 176.414062 140.625 177.445312 139.757812 C 178.476562 138.890625 179.34375 137.429688 179.835938 137.484375 C 180.007812 137.503906 180.09375 137.640625 180.199219 137.753906 C 177.671875 141.644531 173.28125 144.226562 168.292969 144.226562 Z M 168.292969 115.140625 C 160.027344 115.140625 153.304688 121.847656 153.304688 130.089844 C 153.304688 138.332031 160.027344 145.039062 168.292969 145.039062 C 176.558594 145.039062 183.28125 138.332031 183.28125 130.089844 C 183.28125 121.847656 176.558594 115.140625 168.292969 115.140625 " fill-opacity="1" fill-rule="nonzero"/><path fill="#ffffff" d="M 148.890625 160.832031 C 149.042969 160.859375 149.179688 160.882812 149.300781 160.894531 C 149.421875 160.910156 149.523438 160.917969 149.605469 160.917969 C 149.910156 160.917969 150.171875 160.800781 150.390625 160.566406 C 150.613281 160.332031 150.722656 160.027344 150.722656 159.65625 C 150.722656 159.398438 150.671875 159.164062 150.566406 158.941406 C 150.460938 158.722656 150.3125 158.558594 150.117188 158.449219 C 149.925781 158.339844 149.707031 158.285156 149.464844 158.285156 C 149.3125 158.285156 149.121094 158.3125 148.890625 158.367188 Z M 148.890625 161.078125 L 148.890625 162.804688 C 148.890625 163.175781 148.929688 163.40625 149.011719 163.496094 C 149.121094 163.625 149.289062 163.6875 149.515625 163.6875 L 149.742188 163.6875 L 149.742188 163.851562 L 147.199219 163.851562 L 147.199219 163.6875 L 147.425781 163.6875 C 147.675781 163.6875 147.855469 163.609375 147.960938 163.445312 C 148.019531 163.355469 148.050781 163.140625 148.050781 162.804688 L 148.050781 158.980469 C 148.050781 158.609375 148.007812 158.375 147.929688 158.285156 C 147.816406 158.160156 147.648438 158.09375 147.425781 158.09375 L 147.199219 158.09375 L 147.199219 157.933594 L 149.375 157.933594 C 149.90625 157.933594 150.324219 157.988281 150.632812 158.097656 C 150.9375 158.207031 151.195312 158.390625 151.40625 158.648438 C 151.613281 158.90625 151.71875 159.214844 151.71875 159.570312 C 151.71875 160.050781 151.5625 160.445312 151.242188 160.746094 C 150.921875 161.050781 150.472656 161.203125 149.886719 161.203125 C 149.742188 161.203125 149.589844 161.191406 149.421875 161.171875 C 149.257812 161.148438 149.078125 161.121094 148.890625 161.078125 " fill-opacity="1" fill-rule="nonzero"/><path fill="#ffffff" d="M 155.191406 161.546875 L 154.183594 159.152344 L 153.152344 161.546875 Z M 155.3125 161.867188 L 153.015625 161.867188 L 152.613281 162.804688 C 152.515625 163.03125 152.464844 163.203125 152.464844 163.316406 C 152.464844 163.40625 152.507812 163.488281 152.59375 163.554688 C 152.679688 163.625 152.863281 163.667969 153.152344 163.6875 L 153.152344 163.851562 L 151.28125 163.851562 L 151.28125 163.6875 C 151.53125 163.644531 151.691406 163.585938 151.765625 163.519531 C 151.914062 163.378906 152.078125 163.09375 152.257812 162.667969 L 154.347656 157.796875 L 154.5 157.796875 L 156.5625 162.71875 C 156.730469 163.113281 156.882812 163.371094 157.015625 163.488281 C 157.152344 163.609375 157.339844 163.675781 157.582031 163.6875 L 157.582031 163.851562 L 155.242188 163.851562 L 155.242188 163.6875 C 155.480469 163.675781 155.640625 163.636719 155.722656 163.570312 C 155.804688 163.503906 155.847656 163.421875 155.847656 163.328125 C 155.847656 163.199219 155.789062 162.996094 155.671875 162.71875 L 155.3125 161.867188 " fill-opacity="1" fill-rule="nonzero"/><path fill="#ffffff" d="M 161.792969 157.796875 L 161.792969 159.84375 L 161.628906 159.84375 C 161.578125 159.449219 161.484375 159.136719 161.347656 158.90625 C 161.214844 158.671875 161.019531 158.488281 160.769531 158.351562 C 160.519531 158.214844 160.257812 158.144531 159.988281 158.144531 C 159.6875 158.144531 159.4375 158.238281 159.238281 158.421875 C 159.039062 158.609375 158.941406 158.820312 158.941406 159.054688 C 158.941406 159.234375 159.003906 159.398438 159.128906 159.546875 C 159.308594 159.765625 159.738281 160.058594 160.417969 160.421875 C 160.972656 160.714844 161.351562 160.945312 161.554688 161.101562 C 161.757812 161.261719 161.914062 161.449219 162.023438 161.664062 C 162.132812 161.878906 162.1875 162.105469 162.1875 162.339844 C 162.1875 162.789062 162.011719 163.175781 161.664062 163.5 C 161.316406 163.824219 160.867188 163.984375 160.316406 163.984375 C 160.144531 163.984375 159.984375 163.972656 159.832031 163.945312 C 159.742188 163.933594 159.554688 163.878906 159.269531 163.785156 C 158.988281 163.695312 158.804688 163.648438 158.730469 163.648438 C 158.65625 163.648438 158.597656 163.671875 158.558594 163.714844 C 158.515625 163.757812 158.484375 163.847656 158.464844 163.984375 L 158.300781 163.984375 L 158.300781 161.957031 L 158.464844 161.957031 C 158.539062 162.378906 158.640625 162.699219 158.769531 162.910156 C 158.898438 163.121094 159.09375 163.296875 159.359375 163.433594 C 159.621094 163.574219 159.910156 163.644531 160.226562 163.644531 C 160.589844 163.644531 160.878906 163.546875 161.089844 163.355469 C 161.300781 163.164062 161.40625 162.9375 161.40625 162.675781 C 161.40625 162.53125 161.367188 162.382812 161.289062 162.234375 C 161.207031 162.085938 161.082031 161.949219 160.914062 161.820312 C 160.800781 161.734375 160.488281 161.550781 159.980469 161.265625 C 159.472656 160.980469 159.113281 160.753906 158.898438 160.585938 C 158.683594 160.417969 158.519531 160.230469 158.410156 160.027344 C 158.300781 159.824219 158.246094 159.597656 158.246094 159.355469 C 158.246094 158.929688 158.40625 158.566406 158.734375 158.257812 C 159.058594 157.949219 159.476562 157.796875 159.980469 157.796875 C 160.296875 157.796875 160.628906 157.875 160.984375 158.027344 C 161.148438 158.101562 161.261719 158.136719 161.328125 158.136719 C 161.402344 158.136719 161.46875 158.113281 161.515625 158.070312 C 161.5625 158.023438 161.601562 157.933594 161.628906 157.796875 L 161.792969 157.796875 " fill-opacity="1" fill-rule="nonzero"/><path fill="#ffffff" d="M 166.777344 157.796875 L 166.777344 159.84375 L 166.613281 159.84375 C 166.5625 159.449219 166.46875 159.136719 166.332031 158.90625 C 166.195312 158.671875 166.003906 158.488281 165.753906 158.351562 C 165.5 158.214844 165.242188 158.144531 164.972656 158.144531 C 164.671875 158.144531 164.417969 158.238281 164.21875 158.421875 C 164.023438 158.609375 163.921875 158.820312 163.921875 159.054688 C 163.921875 159.234375 163.988281 159.398438 164.113281 159.546875 C 164.292969 159.765625 164.722656 160.058594 165.402344 160.421875 C 165.957031 160.714844 166.335938 160.945312 166.539062 161.101562 C 166.742188 161.261719 166.894531 161.449219 167.007812 161.664062 C 167.113281 161.878906 167.167969 162.105469 167.167969 162.339844 C 167.167969 162.789062 166.996094 163.175781 166.648438 163.5 C 166.300781 163.824219 165.851562 163.984375 165.300781 163.984375 C 165.128906 163.984375 164.96875 163.972656 164.816406 163.945312 C 164.726562 163.933594 164.539062 163.878906 164.253906 163.785156 C 163.96875 163.695312 163.789062 163.648438 163.714844 163.648438 C 163.640625 163.648438 163.582031 163.671875 163.539062 163.714844 C 163.5 163.757812 163.464844 163.847656 163.445312 163.984375 L 163.285156 163.984375 L 163.285156 161.957031 L 163.445312 161.957031 C 163.523438 162.378906 163.625 162.699219 163.753906 162.910156 C 163.882812 163.121094 164.078125 163.296875 164.339844 163.433594 C 164.605469 163.574219 164.894531 163.644531 165.210938 163.644531 C 165.574219 163.644531 165.863281 163.546875 166.074219 163.355469 C 166.285156 163.164062 166.390625 162.9375 166.390625 162.675781 C 166.390625 162.53125 166.351562 162.382812 166.269531 162.234375 C 166.191406 162.085938 166.066406 161.949219 165.894531 161.820312 C 165.78125 161.734375 165.472656 161.550781 164.964844 161.265625 C 164.457031 160.980469 164.097656 160.753906 163.882812 160.585938 C 163.667969 160.417969 163.503906 160.230469 163.394531 160.027344 C 163.285156 159.824219 163.226562 159.597656 163.226562 159.355469 C 163.226562 158.929688 163.390625 158.566406 163.71875 158.257812 C 164.042969 157.949219 164.460938 157.796875 164.964844 157.796875 C 165.28125 157.796875 165.613281 157.875 165.964844 158.027344 C 166.128906 158.101562 166.246094 158.136719 166.3125 158.136719 C 166.386719 158.136719 166.449219 158.113281 166.5 158.070312 C 166.546875 158.023438 166.585938 157.933594 166.613281 157.796875 L 166.777344 157.796875 " fill-opacity="1" fill-rule="nonzero"/><path fill="#ffffff" d="M 169.488281 160.832031 C 169.644531 160.859375 169.78125 160.882812 169.898438 160.894531 C 170.019531 160.910156 170.121094 160.917969 170.207031 160.917969 C 170.507812 160.917969 170.773438 160.800781 170.992188 160.566406 C 171.210938 160.332031 171.320312 160.027344 171.320312 159.65625 C 171.320312 159.398438 171.269531 159.164062 171.164062 158.941406 C 171.058594 158.722656 170.910156 158.558594 170.71875 158.449219 C 170.527344 158.339844 170.308594 158.285156 170.0625 158.285156 C 169.914062 158.285156 169.722656 158.3125 169.488281 158.367188 Z M 169.488281 161.078125 L 169.488281 162.804688 C 169.488281 163.175781 169.53125 163.40625 169.613281 163.496094 C 169.722656 163.625 169.890625 163.6875 170.117188 163.6875 L 170.339844 163.6875 L 170.339844 163.851562 L 167.800781 163.851562 L 167.800781 163.6875 L 168.023438 163.6875 C 168.273438 163.6875 168.453125 163.609375 168.5625 163.445312 C 168.621094 163.355469 168.648438 163.140625 168.648438 162.804688 L 168.648438 158.980469 C 168.648438 158.609375 168.609375 158.375 168.53125 158.285156 C 168.417969 158.160156 168.246094 158.09375 168.023438 158.09375 L 167.800781 158.09375 L 167.800781 157.933594 L 169.976562 157.933594 C 170.507812 157.933594 170.925781 157.988281 171.230469 158.097656 C 171.535156 158.207031 171.792969 158.390625 172.003906 158.648438 C 172.214844 158.90625 172.320312 159.214844 172.320312 159.570312 C 172.320312 160.050781 172.160156 160.445312 171.839844 160.746094 C 171.519531 161.050781 171.070312 161.203125 170.488281 161.203125 C 170.34375 161.203125 170.1875 161.191406 170.023438 161.171875 C 169.855469 161.148438 169.679688 161.121094 169.488281 161.078125 " fill-opacity="1" fill-rule="nonzero"/><path fill="#ffffff" d="M 175.828125 158.117188 C 175.296875 158.117188 174.871094 158.3125 174.550781 158.703125 C 174.152344 159.195312 173.953125 159.910156 173.953125 160.851562 C 173.953125 161.816406 174.160156 162.5625 174.574219 163.082031 C 174.890625 163.476562 175.3125 163.675781 175.832031 163.675781 C 176.390625 163.675781 176.851562 163.457031 177.214844 163.027344 C 177.578125 162.589844 177.757812 161.910156 177.757812 160.972656 C 177.757812 159.960938 177.558594 159.207031 177.160156 158.710938 C 176.839844 158.3125 176.394531 158.117188 175.828125 158.117188 Z M 175.910156 157.796875 C 176.683594 157.796875 177.347656 158.089844 177.914062 158.671875 C 178.476562 159.257812 178.761719 159.984375 178.761719 160.855469 C 178.761719 161.753906 178.476562 162.5 177.90625 163.09375 C 177.339844 163.6875 176.648438 163.984375 175.84375 163.984375 C 175.027344 163.984375 174.339844 163.695312 173.785156 163.117188 C 173.226562 162.539062 172.949219 161.789062 172.949219 160.871094 C 172.949219 159.929688 173.269531 159.164062 173.910156 158.570312 C 174.46875 158.054688 175.136719 157.796875 175.910156 157.796875 " fill-opacity="1" fill-rule="nonzero"/><path fill="#ffffff" d="M 180.949219 160.808594 C 181.003906 160.808594 181.050781 160.808594 181.09375 160.8125 C 181.132812 160.8125 181.167969 160.8125 181.191406 160.8125 C 181.757812 160.8125 182.1875 160.691406 182.472656 160.445312 C 182.761719 160.203125 182.902344 159.890625 182.902344 159.511719 C 182.902344 159.144531 182.789062 158.84375 182.554688 158.609375 C 182.324219 158.378906 182.015625 158.265625 181.632812 158.265625 C 181.464844 158.265625 181.238281 158.292969 180.949219 158.347656 Z M 185.160156 163.851562 L 183.578125 163.851562 L 181.570312 161.082031 C 181.421875 161.089844 181.300781 161.089844 181.207031 161.089844 C 181.167969 161.089844 181.128906 161.089844 181.082031 161.089844 C 181.039062 161.089844 180.996094 161.085938 180.949219 161.082031 L 180.949219 162.804688 C 180.949219 163.175781 180.988281 163.40625 181.070312 163.496094 C 181.179688 163.625 181.347656 163.6875 181.570312 163.6875 L 181.800781 163.6875 L 181.800781 163.851562 L 179.257812 163.851562 L 179.257812 163.6875 L 179.484375 163.6875 C 179.734375 163.6875 179.914062 163.609375 180.019531 163.445312 C 180.082031 163.355469 180.113281 163.140625 180.113281 162.804688 L 180.113281 158.980469 C 180.113281 158.609375 180.070312 158.375 179.988281 158.285156 C 179.875 158.160156 179.707031 158.09375 179.484375 158.09375 L 179.257812 158.09375 L 179.257812 157.933594 L 181.421875 157.933594 C 182.050781 157.933594 182.515625 157.976562 182.8125 158.070312 C 183.113281 158.160156 183.367188 158.332031 183.574219 158.578125 C 183.785156 158.820312 183.890625 159.117188 183.890625 159.457031 C 183.890625 159.820312 183.769531 160.136719 183.53125 160.402344 C 183.292969 160.667969 182.925781 160.859375 182.425781 160.96875 L 183.652344 162.667969 C 183.933594 163.058594 184.171875 163.316406 184.375 163.445312 C 184.574219 163.570312 184.839844 163.652344 185.160156 163.6875 L 185.160156 163.851562 " fill-opacity="1" fill-rule="nonzero"/><path fill="#ffffff" d="M 189.730469 157.933594 L 189.796875 159.320312 L 189.628906 159.320312 C 189.597656 159.074219 189.554688 158.902344 189.496094 158.796875 C 189.40625 158.628906 189.289062 158.503906 189.136719 158.421875 C 188.988281 158.34375 188.789062 158.304688 188.542969 158.304688 L 187.707031 158.304688 L 187.707031 162.824219 C 187.707031 163.1875 187.75 163.414062 187.828125 163.503906 C 187.9375 163.628906 188.109375 163.6875 188.339844 163.6875 L 188.542969 163.6875 L 188.542969 163.851562 L 186.027344 163.851562 L 186.027344 163.6875 L 186.238281 163.6875 C 186.488281 163.6875 186.667969 163.613281 186.773438 163.460938 C 186.835938 163.367188 186.867188 163.15625 186.867188 162.824219 L 186.867188 158.304688 L 186.15625 158.304688 C 185.878906 158.304688 185.679688 158.324219 185.5625 158.363281 C 185.414062 158.421875 185.28125 158.527344 185.175781 158.683594 C 185.066406 158.839844 185.003906 159.054688 184.980469 159.320312 L 184.816406 159.320312 L 184.886719 157.933594 L 189.730469 157.933594 " fill-opacity="1" fill-rule="nonzero"/></svg>