<svg xmlns="http://www.w3.org/2000/svg" xmlns:xlink="http://www.w3.org/1999/xlink" width="944" zoomAndPan="magnify" viewBox="0 0 708 566.999966" height="755" preserveAspectRatio="xMidYMid meet" version="1.0"><defs><clipPath id="id1"><path d="M 0 0 L 708 0 L 708 566.398438 L 0 566.398438 Z M 0 0 " clip-rule="nonzero"/></clipPath><clipPath id="id2"><path d="M 310.015625 103.339844 L 364.707031 103.339844 L 364.707031 158.03125 L 310.015625 158.03125 Z M 310.015625 103.339844 " clip-rule="nonzero"/></clipPath><clipPath id="id3"><path d="M 310.015625 103.339844 L 334 103.339844 L 334 154 L 310.015625 154 Z M 310.015625 103.339844 " clip-rule="nonzero"/></clipPath><clipPath id="id4"><path d="M 321 103.339844 L 347 103.339844 L 347 158 L 321 158 Z M 321 103.339844 " clip-rule="nonzero"/></clipPath><clipPath id="id5"><path d="M 334 104 L 364.707031 104 L 364.707031 158.03125 L 334 158.03125 Z M 334 104 " clip-rule="nonzero"/></clipPath></defs><rect x="-70.8" width="849.6" fill="#ffffff" y="-56.699997" height="680.399959" fill-opacity="1"/><path fill="#ffffff" d="M 0 0 L 708 0 L 708 566.398438 L 0 566.398438 Z M 0 0 " fill-opacity="1" fill-rule="nonzero"/><g clip-path="url(#id1)"><path fill="#ffffff" d="M 0 0 L 708 0 L 708 566.398438 L 0 566.398438 Z M 0 0 " fill-opacity="1" fill-rule="nonzero"/></g><g clip-path="url(#id2)"><path fill="#203d74" d="M 310.015625 130.683594 C 310.015625 115.585938 322.261719 103.339844 337.363281 103.339844 C 352.460938 103.339844 364.707031 115.585938 364.707031 130.683594 C 364.707031 145.785156 352.460938 158.03125 337.363281 158.03125 C 322.261719 158.03125 310.015625 145.785156 310.015625 130.683594 Z M 310.015625 130.683594 " fill-opacity="1" fill-rule="nonzero"/></g><g clip-path="url(#id3)"><path fill="#ea2227" d="M 333.261719 103.648438 C 320.113281 105.621094 310.015625 116.972656 310.015625 130.683594 C 310.015625 140.03125 314.710938 148.289062 321.875 153.214844 L 333.019531 104.308594 C 333.074219 104.078125 333.152344 103.855469 333.261719 103.648438 " fill-opacity="1" fill-rule="nonzero"/></g><g clip-path="url(#id4)"><path fill="#0872b9" d="M 333.261719 103.648438 C 333.152344 103.855469 333.0625 104.078125 333.019531 104.308594 L 321.875 153.214844 C 325.570312 155.761719 329.921875 157.425781 334.628906 157.886719 L 346.6875 104.96875 C 343.777344 103.921875 340.636719 103.339844 337.363281 103.339844 C 335.972656 103.339844 334.605469 103.449219 333.261719 103.648438 " fill-opacity="1" fill-rule="nonzero"/></g><g clip-path="url(#id5)"><path fill="#009da5" d="M 337.363281 158.03125 C 352.460938 158.03125 364.707031 145.785156 364.707031 130.683594 C 364.707031 118.859375 357.203125 108.785156 346.6875 104.96875 L 334.628906 157.886719 C 335.53125 157.988281 336.4375 158.03125 337.363281 158.03125 " fill-opacity="1" fill-rule="nonzero"/></g><path fill="#ffffff" d="M 334.363281 133.871094 L 334.574219 133.871094 C 334.773438 133.871094 334.90625 133.804688 334.96875 133.671875 L 335.53125 132.835938 L 337.03125 132.835938 L 336.722656 133.386719 L 338.519531 133.386719 L 338.289062 134.222656 L 336.148438 134.222656 C 335.90625 134.597656 335.597656 134.761719 335.234375 134.753906 L 334.121094 134.753906 Z M 334.121094 135.082031 L 338.046875 135.082031 L 337.792969 135.996094 L 336.214844 135.996094 L 335.972656 136.878906 L 337.515625 136.878906 L 337.261719 137.792969 L 335.730469 137.792969 L 335.378906 139.09375 C 335.289062 139.316406 335.410156 139.414062 335.730469 139.390625 L 336.988281 139.390625 L 336.757812 140.242188 L 334.351562 140.242188 C 333.902344 140.242188 333.734375 139.976562 333.878906 139.457031 L 334.332031 137.792969 L 333.351562 137.792969 L 333.605469 136.878906 L 334.585938 136.878906 L 334.828125 135.996094 L 333.890625 135.996094 Z M 340.394531 132.835938 L 340.328125 133.375 C 340.328125 133.375 341.066406 132.824219 341.738281 132.824219 L 344.230469 132.824219 L 343.28125 136.261719 C 343.203125 136.660156 342.863281 136.847656 342.265625 136.847656 L 339.445312 136.847656 L 338.785156 139.261719 C 338.75 139.390625 338.796875 139.457031 338.9375 139.457031 L 339.488281 139.457031 L 339.292969 140.207031 L 337.878906 140.207031 C 337.339844 140.207031 337.109375 140.042969 337.207031 139.722656 L 339.070312 132.835938 Z M 342.5 133.804688 L 340.285156 133.804688 L 340.019531 134.730469 C 340.019531 134.730469 340.394531 134.464844 341.011719 134.453125 C 341.628906 134.441406 342.332031 134.453125 342.332031 134.453125 Z M 341.695312 135.964844 C 341.859375 135.988281 341.949219 135.921875 341.957031 135.765625 L 342.089844 135.28125 L 339.863281 135.28125 L 339.675781 135.964844 Z M 340.195312 137.078125 L 341.472656 137.078125 L 341.453125 137.628906 L 341.792969 137.628906 C 341.96875 137.628906 342.046875 137.574219 342.046875 137.464844 L 342.144531 137.101562 L 343.214844 137.101562 L 343.070312 137.617188 C 342.949219 138.058594 342.632812 138.277344 342.113281 138.300781 L 341.429688 138.300781 L 341.429688 139.25 C 341.417969 139.402344 341.550781 139.480469 341.835938 139.480469 L 342.476562 139.480469 L 342.265625 140.230469 L 340.722656 140.230469 C 340.292969 140.253906 340.085938 140.042969 340.085938 139.613281 Z M 340.195312 137.078125 " fill-opacity="1" fill-rule="nonzero"/><path fill="#ffffff" d="M 345.640625 133.914062 L 345.9375 132.867188 L 347.4375 132.867188 L 347.371094 133.253906 C 347.371094 133.253906 348.140625 132.867188 348.691406 132.867188 L 350.554688 132.867188 L 350.257812 133.914062 L 349.960938 133.914062 L 348.5625 138.839844 L 348.859375 138.839844 L 348.582031 139.820312 L 348.285156 139.820312 L 348.164062 140.253906 L 346.710938 140.253906 L 346.832031 139.820312 L 343.964844 139.820312 L 344.242188 138.839844 L 344.527344 138.839844 L 345.925781 133.914062 Z M 347.261719 133.914062 L 346.875 135.246094 C 346.875 135.246094 347.523438 134.996094 348.097656 134.929688 C 348.21875 134.464844 348.382812 133.914062 348.382812 133.914062 Z M 346.699219 135.875 L 346.3125 137.277344 C 346.3125 137.277344 347.039062 136.921875 347.535156 136.890625 C 347.679688 136.351562 347.824219 135.875 347.824219 135.875 Z M 346.984375 138.839844 L 347.269531 137.828125 L 346.148438 137.828125 L 345.859375 138.839844 Z M 350.609375 132.800781 L 352.023438 132.800781 L 352.078125 133.320312 C 352.066406 133.453125 352.144531 133.515625 352.308594 133.515625 L 352.5625 133.515625 L 352.308594 134.398438 L 351.273438 134.398438 C 350.875 134.421875 350.675781 134.265625 350.65625 133.9375 Z M 350.203125 134.695312 L 354.777344 134.695312 L 354.511719 135.644531 L 353.058594 135.644531 L 352.804688 136.527344 L 354.257812 136.527344 L 353.984375 137.472656 L 352.363281 137.472656 L 352 138.027344 L 352.792969 138.027344 L 352.980469 139.140625 C 353.003906 139.25 353.101562 139.304688 353.265625 139.304688 L 353.511719 139.304688 L 353.257812 140.21875 L 352.386719 140.21875 C 351.933594 140.242188 351.703125 140.085938 351.679688 139.765625 L 351.472656 138.753906 L 350.753906 139.832031 C 350.578125 140.140625 350.324219 140.285156 349.972656 140.261719 L 348.636719 140.261719 L 348.902344 139.347656 L 349.320312 139.347656 C 349.496094 139.347656 349.628906 139.269531 349.761719 139.117188 L 350.898438 137.484375 L 349.441406 137.484375 L 349.71875 136.539062 L 351.292969 136.539062 L 351.546875 135.65625 L 349.925781 135.65625 Z M 350.203125 134.695312 " fill-opacity="1" fill-rule="nonzero"/><path fill="#ffffff" d="M 324.664062 128.25 C 324.488281 129.097656 324.089844 129.757812 323.464844 130.222656 C 322.847656 130.671875 322.042969 130.90625 321.070312 130.90625 C 320.144531 130.90625 319.472656 130.671875 319.042969 130.199219 C 318.746094 129.871094 318.589844 129.4375 318.589844 128.933594 C 318.589844 128.722656 318.613281 128.492188 318.667969 128.25 L 319.714844 123.222656 L 321.292969 123.222656 L 320.265625 128.195312 C 320.234375 128.335938 320.222656 128.457031 320.222656 128.578125 C 320.222656 128.832031 320.289062 129.042969 320.410156 129.207031 C 320.597656 129.449219 320.894531 129.570312 321.324219 129.570312 C 321.808594 129.570312 322.207031 129.449219 322.515625 129.21875 C 322.824219 128.976562 323.023438 128.644531 323.121094 128.203125 L 324.15625 123.234375 L 325.722656 123.234375 Z M 324.664062 128.25 " fill-opacity="1" fill-rule="nonzero"/><path fill="#ffffff" d="M 326.121094 126.277344 L 327.222656 126.277344 L 327.089844 126.925781 L 327.242188 126.738281 C 327.609375 126.351562 328.039062 126.164062 328.554688 126.164062 C 329.019531 126.164062 329.359375 126.296875 329.570312 126.574219 C 329.777344 126.847656 329.835938 127.222656 329.734375 127.707031 L 329.117188 130.761719 L 327.972656 130.761719 L 328.523438 127.996094 C 328.578125 127.707031 328.566406 127.5 328.480469 127.355469 C 328.390625 127.222656 328.226562 127.148438 327.984375 127.148438 C 327.683594 127.148438 327.441406 127.234375 327.242188 127.421875 C 327.046875 127.609375 326.914062 127.863281 326.847656 128.183594 L 326.339844 130.761719 L 325.195312 130.761719 Z M 326.121094 126.277344 " fill-opacity="1" fill-rule="nonzero"/><path fill="#ffffff" d="M 338.863281 126.277344 L 339.976562 126.277344 L 339.851562 126.925781 L 340.007812 126.738281 C 340.371094 126.351562 340.8125 126.164062 341.320312 126.164062 C 341.78125 126.164062 342.125 126.296875 342.332031 126.574219 C 342.542969 126.847656 342.597656 127.222656 342.5 127.707031 L 341.890625 130.761719 L 340.746094 130.761719 L 341.296875 127.996094 C 341.351562 127.707031 341.339844 127.5 341.253906 127.355469 C 341.164062 127.222656 341 127.148438 340.757812 127.148438 C 340.460938 127.148438 340.21875 127.234375 340.007812 127.421875 C 339.808594 127.609375 339.667969 127.863281 339.609375 128.183594 L 339.105469 130.761719 L 337.957031 130.761719 Z M 338.863281 126.277344 " fill-opacity="1" fill-rule="nonzero"/><path fill="#ffffff" d="M 331.277344 126.277344 L 332.511719 126.277344 L 331.542969 130.761719 L 330.308594 130.761719 Z M 331.664062 124.632812 L 332.910156 124.632812 L 332.679688 125.726562 L 331.433594 125.726562 Z M 331.664062 124.632812 " fill-opacity="1" fill-rule="nonzero"/><path fill="#ffffff" d="M 333.59375 130.421875 C 333.273438 130.113281 333.109375 129.691406 333.109375 129.164062 C 333.109375 129.074219 333.109375 128.964844 333.128906 128.855469 C 333.140625 128.746094 333.152344 128.632812 333.175781 128.523438 C 333.316406 127.796875 333.625 127.210938 334.109375 126.792969 C 334.585938 126.363281 335.167969 126.15625 335.839844 126.15625 C 336.390625 126.15625 336.832031 126.308594 337.152344 126.617188 C 337.472656 126.925781 337.636719 127.34375 337.636719 127.886719 C 337.636719 127.972656 337.625 128.082031 337.617188 128.195312 C 337.605469 128.304688 337.582031 128.414062 337.5625 128.523438 C 337.417969 129.242188 337.109375 129.8125 336.625 130.234375 C 336.140625 130.652344 335.566406 130.859375 334.894531 130.859375 C 334.351562 130.871094 333.921875 130.71875 333.59375 130.421875 M 335.941406 129.527344 C 336.160156 129.296875 336.316406 128.933594 336.402344 128.457031 C 336.414062 128.382812 336.425781 128.304688 336.4375 128.226562 C 336.449219 128.148438 336.449219 128.082031 336.449219 128.015625 C 336.449219 127.742188 336.382812 127.519531 336.238281 127.378906 C 336.09375 127.222656 335.894531 127.148438 335.644531 127.148438 C 335.300781 127.148438 335.027344 127.269531 334.804688 127.511719 C 334.585938 127.753906 334.429688 128.117188 334.332031 128.601562 C 334.320312 128.679688 334.308594 128.757812 334.296875 128.820312 C 334.289062 128.898438 334.289062 128.964844 334.289062 129.03125 C 334.289062 129.308594 334.351562 129.515625 334.496094 129.671875 C 334.640625 129.824219 334.839844 129.890625 335.101562 129.890625 C 335.445312 129.878906 335.730469 129.757812 335.941406 129.527344 " fill-opacity="1" fill-rule="nonzero"/><path fill="#ffffff" d="M 344.363281 123.488281 L 347.589844 123.488281 C 348.207031 123.488281 348.691406 123.628906 349.023438 123.90625 C 349.355469 124.183594 349.519531 124.589844 349.519531 125.109375 L 349.519531 125.117188 C 349.519531 125.21875 349.507812 125.328125 349.507812 125.449219 C 349.496094 125.570312 349.476562 125.691406 349.441406 125.8125 C 349.300781 126.507812 348.96875 127.058594 348.460938 127.476562 C 347.953125 127.894531 347.347656 128.105469 346.644531 128.105469 L 344.914062 128.105469 L 344.371094 130.730469 L 342.875 130.730469 Z M 345.167969 126.871094 L 346.597656 126.871094 C 346.972656 126.871094 347.269531 126.78125 347.492188 126.617188 C 347.710938 126.441406 347.84375 126.175781 347.933594 125.8125 C 347.945312 125.746094 347.953125 125.691406 347.964844 125.636719 C 347.964844 125.582031 347.976562 125.539062 347.976562 125.480469 C 347.976562 125.230469 347.886719 125.042969 347.703125 124.921875 C 347.515625 124.800781 347.226562 124.742188 346.832031 124.742188 L 345.605469 124.742188 Z M 345.167969 126.871094 " fill-opacity="1" fill-rule="nonzero"/><path fill="#ffffff" d="M 356.222656 131.621094 C 355.746094 132.625 355.296875 133.21875 355.03125 133.496094 C 354.765625 133.769531 354.238281 134.398438 352.96875 134.34375 L 353.078125 133.574219 C 354.148438 133.242188 354.722656 131.765625 355.054688 131.105469 L 354.65625 126.277344 L 355.484375 126.265625 L 356.175781 126.265625 L 356.253906 129.296875 L 357.554688 126.265625 L 358.867188 126.265625 Z M 356.222656 131.621094 " fill-opacity="1" fill-rule="nonzero"/><path fill="#ffffff" d="M 352.550781 126.640625 L 352.03125 127.003906 C 351.492188 126.574219 350.984375 126.308594 350.027344 126.761719 C 348.714844 127.367188 347.625 132.019531 351.226562 130.488281 L 351.4375 130.730469 L 352.859375 130.761719 L 353.785156 126.53125 Z M 351.746094 128.941406 C 351.515625 129.617188 351.007812 130.054688 350.609375 129.933594 C 350.214844 129.8125 350.070312 129.164062 350.300781 128.492188 C 350.535156 127.820312 351.039062 127.378906 351.4375 127.5 C 351.835938 127.632812 351.976562 128.269531 351.746094 128.941406 " fill-opacity="1" fill-rule="nonzero"/></svg>