<svg xmlns="http://www.w3.org/2000/svg" xmlns:xlink="http://www.w3.org/1999/xlink" width="944" zoomAndPan="magnify" viewBox="0 0 708 566.999966" height="755" preserveAspectRatio="xMidYMid meet" version="1.0"><defs><clipPath id="id1"><path d="M 0 0 L 708 0 L 708 566.398438 L 0 566.398438 Z M 0 0 " clip-rule="nonzero"/></clipPath><clipPath id="id2"><path d="M 294.722656 81.925781 L 353.910156 81.925781 L 353.910156 141.113281 L 294.722656 141.113281 Z M 294.722656 81.925781 " clip-rule="nonzero"/></clipPath></defs><rect x="-70.8" width="849.6" fill="#ffffff" y="-56.699997" height="680.399959" fill-opacity="1"/><path fill="#ffffff" d="M 0 0 L 708 0 L 708 566.398438 L 0 566.398438 Z M 0 0 " fill-opacity="1" fill-rule="nonzero"/><g clip-path="url(#id1)"><path fill="#ffffff" d="M 0 0 L 708 0 L 708 566.398438 L 0 566.398438 Z M 0 0 " fill-opacity="1" fill-rule="nonzero"/></g><g clip-path="url(#id2)"><path fill="#862165" d="M 294.722656 111.519531 C 294.722656 95.179688 307.972656 81.925781 324.316406 81.925781 C 340.65625 81.925781 353.910156 95.179688 353.910156 111.519531 C 353.910156 127.863281 340.65625 141.113281 324.316406 141.113281 C 307.972656 141.113281 294.722656 127.863281 294.722656 111.519531 Z M 294.722656 111.519531 " fill-opacity="1" fill-rule="nonzero"/></g><path fill="#ffffff" d="M 337.160156 104.542969 L 340.953125 103.863281 L 340.953125 118.414062 L 337.160156 118.414062 Z M 342.695312 104.542969 L 342.695312 118.414062 L 346.488281 118.414062 L 346.488281 103.863281 Z M 331.757812 118.414062 L 335.550781 118.414062 L 335.550781 107.773438 L 331.757812 107.773438 Z M 306.695312 109.277344 C 306.21875 109.242188 305.109375 109.171875 305.109375 108.179688 C 305.109375 106.976562 306.707031 106.976562 307.304688 106.976562 C 308.355469 106.976562 309.726562 107.285156 310.691406 107.582031 C 310.691406 107.582031 311.242188 107.773438 311.695312 107.964844 L 311.742188 107.976562 L 311.742188 104.671875 L 311.683594 104.660156 C 310.539062 104.253906 309.191406 103.875 306.722656 103.875 C 302.449219 103.875 300.9375 106.367188 300.9375 108.503906 C 300.9375 109.730469 301.460938 112.628906 306.363281 112.964844 C 306.78125 112.988281 307.878906 113.046875 307.878906 114.085938 C 307.878906 114.929688 306.972656 115.445312 305.457031 115.445312 C 303.796875 115.445312 302.175781 115.027344 301.199219 114.621094 L 301.199219 118.019531 C 302.664062 118.402344 304.3125 118.59375 306.253906 118.59375 C 310.429688 118.59375 312.304688 116.242188 312.304688 113.90625 C 312.304688 111.234375 310.214844 109.515625 306.695312 109.277344 M 329.621094 107.621094 C 326.117188 107.726562 324.339844 109.300781 324.339844 112.425781 L 324.339844 118.414062 L 328.167969 118.414062 L 328.167969 113.535156 C 328.167969 111.664062 328.417969 110.863281 330.636719 110.78125 L 330.636719 107.667969 C 330.253906 107.59375 329.621094 107.621094 329.621094 107.621094 M 319.328125 107.761719 C 319.246094 107.976562 318.636719 109.695312 317.167969 111.472656 L 317.167969 103.875 L 313.257812 104.648438 L 313.257812 118.425781 L 317.167969 118.425781 L 317.167969 114.167969 C 318.304688 115.863281 318.863281 118.425781 318.863281 118.425781 L 323.550781 118.425781 C 323.085938 116.492188 321.058594 112.9375 321.058594 112.9375 C 322.882812 110.636719 323.683594 108.167969 323.800781 107.761719 Z M 333.65625 106.75 C 334.691406 106.75 335.527344 105.914062 335.527344 104.875 C 335.527344 103.839844 334.691406 103.003906 333.65625 103.003906 C 332.628906 103.003906 331.78125 103.839844 331.78125 104.875 C 331.78125 105.914062 332.617188 106.75 333.65625 106.75 " fill-opacity="1" fill-rule="nonzero"/></svg>