<svg xmlns="http://www.w3.org/2000/svg" xmlns:xlink="http://www.w3.org/1999/xlink" width="944" zoomAndPan="magnify" viewBox="0 0 708 566.999966" height="755" preserveAspectRatio="xMidYMid meet" version="1.0"><defs><clipPath id="id1"><path d="M 0 0 L 708 0 L 708 566.398438 L 0 566.398438 Z M 0 0 " clip-rule="nonzero"/></clipPath><clipPath id="id2"><path d="M 316.148438 82.738281 L 375.335938 82.738281 L 375.335938 141.925781 L 316.148438 141.925781 Z M 316.148438 82.738281 " clip-rule="nonzero"/></clipPath><clipPath id="id3"><path d="M 333 114 L 375.335938 114 L 375.335938 141.925781 L 333 141.925781 Z M 333 114 " clip-rule="nonzero"/></clipPath></defs><rect x="-70.8" width="849.6" fill="#ffffff" y="-56.699997" height="680.399959" fill-opacity="1"/><path fill="#ffffff" d="M 0 0 L 708 0 L 708 566.398438 L 0 566.398438 Z M 0 0 " fill-opacity="1" fill-rule="nonzero"/><g clip-path="url(#id1)"><path fill="#ffffff" d="M 0 0 L 708 0 L 708 566.398438 L 0 566.398438 Z M 0 0 " fill-opacity="1" fill-rule="nonzero"/></g><g clip-path="url(#id2)"><path fill="#f3f2f2" d="M 316.148438 112.332031 C 316.148438 95.992188 329.398438 82.738281 345.742188 82.738281 C 362.082031 82.738281 375.335938 95.992188 375.335938 112.332031 C 375.335938 128.675781 362.082031 141.925781 345.742188 141.925781 C 329.398438 141.925781 316.148438 128.675781 316.148438 112.332031 Z M 316.148438 112.332031 " fill-opacity="1" fill-rule="nonzero"/></g><path fill="#f26e21" d="M 351.550781 110.496094 C 351.550781 112.644531 349.808594 114.386719 347.660156 114.386719 C 345.515625 114.386719 343.773438 112.644531 343.773438 110.496094 C 343.773438 108.351562 345.515625 106.609375 347.660156 106.609375 C 349.808594 106.609375 351.550781 108.351562 351.550781 110.496094 " fill-opacity="1" fill-rule="nonzero"/><path fill="#0b161f" d="M 326.691406 112.359375 C 326.238281 112.761719 325.640625 112.941406 324.699219 112.941406 L 324.304688 112.941406 L 324.304688 108.050781 L 324.699219 108.050781 C 325.640625 108.050781 326.214844 108.21875 326.691406 108.648438 C 327.191406 109.089844 327.492188 109.78125 327.492188 110.484375 C 327.492188 111.210938 327.191406 111.917969 326.691406 112.359375 M 324.996094 106.8125 L 322.863281 106.8125 L 322.863281 114.207031 L 324.984375 114.207031 C 326.117188 114.207031 326.929688 113.945312 327.644531 113.347656 C 328.492188 112.644531 328.992188 111.59375 328.992188 110.507812 C 328.992188 108.324219 327.347656 106.8125 324.996094 106.8125 " fill-opacity="1" fill-rule="nonzero"/><path fill="#0b161f" d="M 329.660156 114.207031 L 331.117188 114.207031 L 331.117188 106.8125 L 329.660156 106.8125 Z M 329.660156 114.207031 " fill-opacity="1" fill-rule="nonzero"/><path fill="#0b161f" d="M 334.671875 109.648438 C 333.800781 109.328125 333.539062 109.113281 333.539062 108.71875 C 333.539062 108.253906 333.992188 107.894531 334.625 107.894531 C 335.054688 107.894531 335.410156 108.074219 335.792969 108.492188 L 336.554688 107.503906 C 335.9375 106.953125 335.183594 106.679688 334.363281 106.679688 C 333.050781 106.679688 332.035156 107.585938 332.035156 108.789062 C 332.035156 109.816406 332.5 110.328125 333.871094 110.820312 C 334.445312 111.023438 334.730469 111.152344 334.875 111.234375 C 335.160156 111.425781 335.316406 111.691406 335.316406 112 C 335.316406 112.597656 334.839844 113.039062 334.183594 113.039062 C 333.492188 113.039062 332.929688 112.691406 332.597656 112.046875 L 331.652344 112.941406 C 332.320312 113.921875 333.132812 114.347656 334.230469 114.347656 C 335.734375 114.347656 336.792969 113.347656 336.792969 111.917969 C 336.820312 110.78125 336.328125 110.246094 334.671875 109.648438 " fill-opacity="1" fill-rule="nonzero"/><path fill="#0b161f" d="M 337.273438 110.507812 C 337.273438 112.679688 338.988281 114.375 341.207031 114.375 C 341.828125 114.375 342.363281 114.253906 343.03125 113.945312 L 343.03125 112.25 C 342.449219 112.824219 341.9375 113.0625 341.28125 113.0625 C 339.8125 113.0625 338.773438 112.011719 338.773438 110.507812 C 338.773438 109.089844 339.847656 107.96875 341.207031 107.96875 C 341.898438 107.96875 342.425781 108.207031 343.03125 108.804688 L 343.03125 107.109375 C 342.402344 106.785156 341.875 106.65625 341.242188 106.65625 C 339.039062 106.644531 337.273438 108.363281 337.273438 110.507812 " fill-opacity="1" fill-rule="nonzero"/><path fill="#0b161f" d="M 354.804688 111.773438 L 352.8125 106.8125 L 351.226562 106.8125 L 354.386719 114.398438 L 355.175781 114.398438 L 358.398438 106.8125 L 356.820312 106.8125 Z M 354.804688 111.773438 " fill-opacity="1" fill-rule="nonzero"/><path fill="#0b161f" d="M 359.050781 114.207031 L 363.179688 114.207031 L 363.179688 112.953125 L 360.507812 112.953125 L 360.507812 110.949219 L 363.074219 110.949219 L 363.074219 109.710938 L 360.507812 109.710938 L 360.507812 108.0625 L 363.179688 108.0625 L 363.179688 106.8125 L 359.050781 106.8125 Z M 359.050781 114.207031 " fill-opacity="1" fill-rule="nonzero"/><path fill="#0b161f" d="M 366.019531 110.210938 L 365.601562 110.210938 L 365.601562 107.96875 L 366.042969 107.96875 C 366.949219 107.96875 367.4375 108.351562 367.4375 109.066406 C 367.4375 109.816406 366.949219 110.210938 366.019531 110.210938 M 368.929688 108.992188 C 368.929688 107.609375 367.976562 106.8125 366.292969 106.8125 L 364.132812 106.8125 L 364.132812 114.207031 L 365.589844 114.207031 L 365.589844 111.234375 L 365.78125 111.234375 L 367.785156 114.207031 L 369.574219 114.207031 L 367.222656 111.09375 C 368.332031 110.867188 368.929688 110.125 368.929688 108.992188 " fill-opacity="1" fill-rule="nonzero"/><path fill="#000000" d="M 333.464844 121.078125 L 333.464844 116.914062 L 336.304688 119.882812 L 336.304688 117.175781 L 336.890625 117.175781 L 336.890625 121.304688 L 334.050781 118.34375 L 334.050781 121.078125 Z M 333.464844 121.078125 " fill-opacity="1" fill-rule="nonzero"/><path fill="#000000" d="M 339.96875 117.726562 L 338.40625 117.726562 L 338.40625 118.65625 L 339.917969 118.65625 L 339.917969 119.203125 L 338.40625 119.203125 L 338.40625 120.503906 L 339.96875 120.503906 L 339.96875 121.054688 L 337.820312 121.054688 L 337.820312 117.164062 L 339.96875 117.164062 Z M 339.96875 117.726562 " fill-opacity="1" fill-rule="nonzero"/><path fill="#000000" d="M 341.816406 117.726562 L 341.816406 121.066406 L 341.230469 121.066406 L 341.230469 117.726562 L 340.335938 117.726562 L 340.335938 117.175781 L 342.710938 117.175781 L 342.710938 117.726562 Z M 341.816406 117.726562 " fill-opacity="1" fill-rule="nonzero"/><path fill="#000000" d="M 343.652344 117.175781 L 344.667969 119.777344 L 345.730469 116.984375 L 346.742188 119.777344 L 347.816406 117.175781 L 348.449219 117.175781 L 346.707031 121.316406 L 345.703125 118.558594 L 344.65625 121.328125 L 342.996094 117.1875 L 343.652344 117.1875 Z M 343.652344 117.175781 " fill-opacity="1" fill-rule="nonzero"/><path fill="#000000" d="M 348.566406 119.109375 C 348.566406 118.558594 348.769531 118.09375 349.175781 117.703125 C 349.582031 117.308594 350.058594 117.117188 350.621094 117.117188 C 351.167969 117.117188 351.644531 117.320312 352.050781 117.714844 C 352.445312 118.105469 352.648438 118.582031 352.648438 119.144531 C 352.648438 119.707031 352.445312 120.183594 352.050781 120.5625 C 351.644531 120.957031 351.167969 121.148438 350.59375 121.148438 C 350.09375 121.148438 349.640625 120.96875 349.234375 120.625 C 348.792969 120.230469 348.566406 119.730469 348.566406 119.109375 M 349.164062 119.109375 C 349.164062 119.539062 349.308594 119.894531 349.59375 120.171875 C 349.878906 120.445312 350.214844 120.585938 350.59375 120.585938 C 351 120.585938 351.347656 120.445312 351.632812 120.171875 C 351.917969 119.882812 352.050781 119.539062 352.050781 119.132812 C 352.050781 118.714844 351.90625 118.371094 351.632812 118.09375 C 351.359375 117.808594 351.011719 117.675781 350.609375 117.675781 C 350.203125 117.675781 349.855469 117.820312 349.582031 118.09375 C 349.308594 118.355469 349.164062 118.703125 349.164062 119.109375 " fill-opacity="1" fill-rule="nonzero"/><path fill="#000000" d="M 354.699219 119.40625 L 355.902344 121.066406 L 355.1875 121.066406 L 354.078125 119.464844 L 353.972656 119.464844 L 353.972656 121.066406 L 353.375 121.066406 L 353.375 117.175781 L 354.066406 117.175781 C 354.578125 117.175781 354.949219 117.273438 355.175781 117.460938 C 355.425781 117.675781 355.558594 117.964844 355.558594 118.308594 C 355.558594 118.582031 355.472656 118.824219 355.320312 119.023438 C 355.164062 119.226562 354.960938 119.359375 354.699219 119.40625 M 353.972656 118.964844 L 354.160156 118.964844 C 354.722656 118.964844 354.996094 118.75 354.996094 118.332031 C 354.996094 117.941406 354.722656 117.738281 354.1875 117.738281 L 353.972656 117.738281 Z M 353.972656 118.964844 " fill-opacity="1" fill-rule="nonzero"/><path fill="#000000" d="M 357.074219 118.726562 L 358.585938 117.175781 L 359.375 117.175781 L 357.609375 118.941406 L 359.375 121.078125 L 358.585938 121.078125 L 357.191406 119.335938 L 357.074219 119.453125 L 357.074219 121.066406 L 356.488281 121.066406 L 356.488281 117.175781 L 357.074219 117.175781 Z M 357.074219 118.726562 " fill-opacity="1" fill-rule="nonzero"/><g clip-path="url(#id3)"><path fill="#f26e21" d="M 375.238281 114.550781 C 369.667969 121.601562 356.761719 133.78125 333.789062 139.398438 C 337.449219 141.019531 341.484375 141.914062 345.742188 141.914062 C 361.332031 141.925781 374.105469 129.855469 375.238281 114.550781 " fill-opacity="1" fill-rule="nonzero"/></g></svg>