<svg xmlns="http://www.w3.org/2000/svg" xmlns:xlink="http://www.w3.org/1999/xlink" width="944" zoomAndPan="magnify" viewBox="0 0 708 566.999966" height="755" preserveAspectRatio="xMidYMid meet" version="1.0"><defs><clipPath id="id1"><path d="M 0 0 L 708 0 L 708 566.398438 L 0 566.398438 Z M 0 0 " clip-rule="nonzero"/></clipPath><clipPath id="id2"><path d="M 302.382812 118.304688 L 363.820312 118.304688 L 363.820312 179.738281 L 302.382812 179.738281 Z M 302.382812 118.304688 " clip-rule="nonzero"/></clipPath></defs><rect x="-70.8" width="849.6" fill="#ffffff" y="-56.699997" height="680.399959" fill-opacity="1"/><path fill="#ffffff" d="M 0 0 L 708 0 L 708 566.398438 L 0 566.398438 Z M 0 0 " fill-opacity="1" fill-rule="nonzero"/><g clip-path="url(#id1)"><path fill="#ffffff" d="M 0 0 L 708 0 L 708 566.398438 L 0 566.398438 Z M 0 0 " fill-opacity="1" fill-rule="nonzero"/></g><g clip-path="url(#id2)"><path fill="#f3f2f2" d="M 302.382812 149.019531 C 302.382812 132.058594 316.140625 118.304688 333.101562 118.304688 C 350.0625 118.304688 363.820312 132.058594 363.820312 149.019531 C 363.820312 165.984375 350.0625 179.738281 333.101562 179.738281 C 316.140625 179.738281 302.382812 165.984375 302.382812 149.019531 Z M 302.382812 149.019531 " fill-opacity="1" fill-rule="nonzero"/></g><path fill="#1a80ad" d="M 347.414062 143.859375 C 346.140625 143.859375 345.125 144.191406 344.355469 144.351562 L 344.121094 146.296875 C 344.503906 146.109375 345.730469 145.777344 346.734375 145.738281 C 347.75 145.714844 348.34375 145.925781 348.132812 146.792969 C 345.125 146.792969 343.105469 147.410156 342.695312 149.355469 C 342.101562 152.6875 345.753906 152.597656 347.214844 151.136719 L 347.042969 151.941406 L 349.71875 151.941406 L 350.878906 146.644531 C 351.339844 144.390625 349.285156 143.832031 347.414062 143.859375 M 347.585938 149.292969 C 347.4375 150 346.871094 150.308594 346.1875 150.34375 C 345.59375 150.371094 345.0625 149.851562 345.445312 149.230469 C 345.742188 148.710938 346.570312 148.585938 347.078125 148.585938 L 347.734375 148.585938 C 347.675781 148.824219 347.648438 149.046875 347.585938 149.292969 " fill-opacity="1" fill-rule="evenodd"/><path fill="#1a80ad" d="M 353.148438 141.765625 L 350.929688 151.941406 L 353.652344 151.941406 L 355.894531 141.765625 Z M 353.148438 141.765625 " fill-opacity="1" fill-rule="evenodd"/><path fill="#1a80ad" d="M 340.667969 141.789062 L 335.6875 141.789062 L 333.484375 151.929688 L 336.371094 151.929688 L 337.113281 148.574219 L 339.167969 148.574219 C 341.199219 148.574219 342.859375 147.335938 343.304688 145.246094 C 343.824219 142.878906 342.089844 141.789062 340.667969 141.789062 M 340.578125 145.246094 C 340.40625 146.011719 339.625 146.632812 338.882812 146.632812 L 337.546875 146.632812 L 338.140625 143.859375 L 339.566406 143.859375 C 340.308594 143.859375 340.753906 144.476562 340.578125 145.246094 " fill-opacity="1" fill-rule="evenodd"/><path fill="#1a5b80" d="M 321.351562 143.859375 C 320.089844 143.859375 319.085938 144.191406 318.355469 144.351562 L 318.121094 146.296875 C 318.46875 146.109375 319.679688 145.777344 320.671875 145.738281 C 321.671875 145.714844 322.253906 145.925781 322.082031 146.792969 C 319.109375 146.792969 317.117188 147.410156 316.710938 149.355469 C 316.128906 152.6875 319.730469 152.597656 321.140625 151.136719 L 320.96875 151.941406 L 323.640625 151.941406 L 324.78125 146.644531 C 325.265625 144.390625 323.210938 143.832031 321.351562 143.859375 M 321.5625 149.292969 C 321.414062 150 320.832031 150.308594 320.152344 150.34375 C 319.570312 150.371094 319.0625 149.851562 319.445312 149.230469 C 319.742188 148.710938 320.558594 148.585938 321.03125 148.585938 L 321.710938 148.585938 C 321.648438 148.824219 321.585938 149.046875 321.5625 149.292969 " fill-opacity="1" fill-rule="evenodd"/><path fill="#1a5b80" d="M 325.957031 144.007812 L 328.632812 144.007812 L 329.066406 148.734375 L 331.675781 144.007812 L 334.425781 144.007812 L 328.085938 155.308594 L 325.089844 155.308594 L 327.046875 151.992188 Z M 325.957031 144.007812 " fill-opacity="1" fill-rule="evenodd"/><path fill="#1a5b80" d="M 314.714844 141.789062 L 309.726562 141.789062 L 307.511719 151.929688 L 310.445312 151.929688 L 311.164062 148.574219 L 313.253906 148.574219 C 315.261719 148.574219 316.933594 147.335938 317.378906 145.246094 C 317.871094 142.878906 316.175781 141.789062 314.714844 141.789062 M 314.617188 145.246094 C 314.441406 146.011719 313.6875 146.632812 312.945312 146.632812 L 311.570312 146.632812 L 312.203125 143.859375 L 313.636719 143.859375 C 314.355469 143.859375 314.828125 144.476562 314.617188 145.246094 " fill-opacity="1" fill-rule="evenodd"/><path fill="#1a5b80" d="M 356.476562 143.078125 L 356.476562 141.875 L 356.03125 141.875 L 356.03125 141.714844 L 357.109375 141.714844 L 357.109375 141.875 L 356.664062 141.875 L 356.664062 143.078125 Z M 356.476562 143.078125 " fill-opacity="1" fill-rule="nonzero"/><path fill="#1a5b80" d="M 357.292969 143.078125 L 357.292969 141.714844 L 357.566406 141.714844 L 357.886719 142.683594 C 357.914062 142.769531 357.9375 142.84375 357.949219 142.878906 C 357.960938 142.832031 357.988281 142.757812 358.023438 142.65625 L 358.347656 141.714844 L 358.59375 141.714844 L 358.59375 143.078125 L 358.421875 143.078125 L 358.421875 141.9375 L 358.023438 143.078125 L 357.863281 143.078125 L 357.46875 141.914062 L 357.46875 143.078125 Z M 357.292969 143.078125 " fill-opacity="1" fill-rule="nonzero"/></svg>