<svg xmlns="http://www.w3.org/2000/svg" xmlns:xlink="http://www.w3.org/1999/xlink" width="944" zoomAndPan="magnify" viewBox="0 0 708 566.999966" height="755" preserveAspectRatio="xMidYMid meet" version="1.0"><defs><clipPath id="id1"><path d="M 0 0 L 708 0 L 708 566.398438 L 0 566.398438 Z M 0 0 " clip-rule="nonzero"/></clipPath><clipPath id="id2"><path d="M 246.988281 88.636719 L 288 88.636719 L 288 138.835938 L 246.988281 138.835938 Z M 246.988281 88.636719 " clip-rule="nonzero"/></clipPath><clipPath id="id3"><path d="M 287 88.636719 L 327.152344 88.636719 L 327.152344 138.835938 L 287 138.835938 Z M 287 88.636719 " clip-rule="nonzero"/></clipPath></defs><rect x="-70.8" width="849.6" fill="#ffffff" y="-56.699997" height="680.399959" fill-opacity="1"/><path fill="#ffffff" d="M 0 0 L 708 0 L 708 566.398438 L 0 566.398438 Z M 0 0 " fill-opacity="1" fill-rule="nonzero"/><g clip-path="url(#id1)"><path fill="#ffffff" d="M 0 0 L 708 0 L 708 566.398438 L 0 566.398438 Z M 0 0 " fill-opacity="1" fill-rule="nonzero"/></g><path fill="#ff5f00" d="M 276.230469 94.21875 L 297.910156 94.21875 L 297.910156 133.25 L 276.230469 133.25 Z M 276.230469 94.21875 " fill-opacity="1" fill-rule="nonzero"/><g clip-path="url(#id2)"><path fill="#eb001b" d="M 277.605469 113.738281 C 277.605469 105.816406 281.308594 98.765625 287.070312 94.222656 C 282.707031 90.773438 277.3125 88.90625 271.761719 88.914062 C 258.078125 88.914062 246.988281 100.027344 246.988281 113.738281 C 246.988281 127.445312 258.078125 138.558594 271.757812 138.558594 C 277.3125 138.566406 282.707031 136.699219 287.066406 133.25 C 281.308594 128.707031 277.605469 121.65625 277.605469 113.738281 Z M 277.605469 113.738281 " fill-opacity="1" fill-rule="nonzero"/></g><g clip-path="url(#id3)"><path fill="#f79e1b" d="M 327.152344 113.738281 C 327.152344 127.445312 316.0625 138.558594 302.382812 138.558594 C 296.828125 138.566406 291.433594 136.699219 287.070312 133.25 C 292.832031 128.707031 296.53125 121.65625 296.53125 113.738281 C 296.53125 105.816406 292.832031 98.765625 287.070312 94.222656 C 291.433594 90.773438 296.828125 88.90625 302.382812 88.914062 C 316.0625 88.914062 327.152344 100.027344 327.152344 113.738281 Z M 327.152344 113.738281 " fill-opacity="1" fill-rule="nonzero"/></g></svg>